  0
SECTION
  2
HEADER
  9
$ANGBASE
  50
0.0
  9
$ANGDIR
  70
1
  9
$MEASUREMENT
  70
0
  0
ENDSEC
  0
SECTION
  2
TABLES
  0
TABLE
  2
LTYPE
  70
4
  0
LTYPE
  5
40F
  2
CONTINUOUS
  70
0
  3
Solid line
  72
65
  73
0
  40
0.0
  0
LTYPE
  5
410
  2
DASHDOT
 70
0
  3
Dash Dot ____ _ ____ _
 72
65
 73
4
 40
2.0
 49
1.25
 49
-0.25
 49
0.25
 49
-0.25
  0
LTYPE
  5
411
  2
DASHED
 70
0
  3
Dashed __ __ __ __ __
 72
65
 73
2
 40
0.75
 49
0.5
 49
-0.25
  0
LTYPE
  5
43B
  2
DOTTED
 70
0
  3
Dotted .  .  .  .
 72
65
 73
2
 40
0.2
 49
0.0
 49
-0.2
  0
ENDTAB
  0
TABLE
  2
STYLE
  70
4
  0
STYLE
  2
KICAD
  70
0
  40
0
  41
1
  42
1
  50
0
  71
0
  3
isocp.shx
  0
STYLE
  2
KICADB
  70
0
  40
0
  41
1
  42
1
  50
0
  71
0
  3
isocp.shx
  0
STYLE
  2
KICADI
  70
0
  40
0
  41
1
  42
1
  50
15
  71
0
  3
isocp.shx
  0
STYLE
  2
KICADBI
  70
0
  40
0
  41
1
  42
1
  50
15
  71
0
  3
isocp.shx
  0
ENDTAB
  0
TABLE
  2
LAYER
  70
1
  0
LAYER
  2
BLACK
  70
0
  62
7
  6
CONTINUOUS
  0
ENDTAB
  0
ENDSEC
  0
SECTION
  2
ENTITIES
0
LINE
8
BLACK
6
CONTINUOUS
10
1.905055590551181
20
-6.0724075590551179
11
1.9131855511811022
21
-6.0755570866141735
0
LINE
8
BLACK
6
CONTINUOUS
10
1.9131855511811022
20
-6.0755570866141735
11
1.9205983464566929
21
-6.0801468897637791
0
LINE
8
BLACK
6
CONTINUOUS
10
1.9205983464566929
20
-6.0801468897637791
11
1.9270415354330708
21
-6.0860206692913383
0
LINE
8
BLACK
6
CONTINUOUS
10
1.9270415354330708
20
-6.0860206692913383
11
1.932295748031496
21
-6.0929783464566931
0
LINE
8
BLACK
6
CONTINUOUS
10
1.932295748031496
20
-6.0929783464566931
11
1.9361820078740157
21
-6.1007829921259837
0
LINE
8
BLACK
6
CONTINUOUS
10
1.9361820078740157
20
-6.1007829921259837
11
1.9385679921259842
21
-6.1091688976377947
0
LINE
8
BLACK
6
CONTINUOUS
10
1.9385679921259842
20
-6.1091688976377947
11
1.9393724409448818
21
-6.1178503937007873
0
LINE
8
BLACK
6
CONTINUOUS
10
1.9393724409448818
20
-6.1178503937007873
11
1.9385679921259842
21
-6.126531889763779
0
LINE
8
BLACK
6
CONTINUOUS
10
1.9385679921259842
20
-6.126531889763779
11
1.9361820078740157
21
-6.13491779527559
0
LINE
8
BLACK
6
CONTINUOUS
10
1.9361820078740157
20
-6.13491779527559
11
1.932295748031496
21
-6.1427224409448815
0
LINE
8
BLACK
6
CONTINUOUS
10
1.932295748031496
20
-6.1427224409448815
11
1.9270415354330708
21
-6.1496801181102363
0
LINE
8
BLACK
6
CONTINUOUS
10
1.9270415354330708
20
-6.1496801181102363
11
1.9205983464566929
21
-6.1555538976377955
0
LINE
8
BLACK
6
CONTINUOUS
10
1.9205983464566929
20
-6.1555538976377955
11
1.9131855511811022
21
-6.1601437007874011
0
LINE
8
BLACK
6
CONTINUOUS
10
1.9131855511811022
20
-6.1601437007874011
11
1.905055590551181
21
-6.1632932283464568
0
LINE
8
BLACK
6
CONTINUOUS
10
1.905055590551181
20
-6.1632932283464568
11
1.8964853543307085
21
-6.1648953149606296
0
LINE
8
BLACK
6
CONTINUOUS
10
1.8964853543307085
20
-6.1648953149606296
11
1.8877666141732283
21
-6.1648953149606296
0
LINE
8
BLACK
6
CONTINUOUS
10
1.8877666141732283
20
-6.1648953149606296
11
1.8791963779527558
21
-6.1632932283464568
0
LINE
8
BLACK
6
CONTINUOUS
10
1.8791963779527558
20
-6.1632932283464568
11
1.8710664173228346
21
-6.1601437007874011
0
LINE
8
BLACK
6
CONTINUOUS
10
1.8710664173228346
20
-6.1601437007874011
11
1.8636536220472442
21
-6.1555538976377955
0
LINE
8
BLACK
6
CONTINUOUS
10
1.8636536220472442
20
-6.1555538976377955
11
1.8572104330708661
21
-6.1496801181102363
0
LINE
8
BLACK
6
CONTINUOUS
10
1.8572104330708661
20
-6.1496801181102363
11
1.8519562204724409
21
-6.1427224409448815
0
LINE
8
BLACK
6
CONTINUOUS
10
1.8519562204724409
20
-6.1427224409448815
11
1.8480699606299211
21
-6.13491779527559
0
LINE
8
BLACK
6
CONTINUOUS
10
1.8480699606299211
20
-6.13491779527559
11
1.8456839763779527
21
-6.126531889763779
0
LINE
8
BLACK
6
CONTINUOUS
10
1.8456839763779527
20
-6.126531889763779
11
1.844879527559055
21
-6.1178503937007873
0
LINE
8
BLACK
6
CONTINUOUS
10
1.844879527559055
20
-6.1178503937007873
11
1.8456839763779527
21
-6.1091688976377947
0
LINE
8
BLACK
6
CONTINUOUS
10
1.8456839763779527
20
-6.1091688976377947
11
1.8480699606299211
21
-6.1007829921259837
0
LINE
8
BLACK
6
CONTINUOUS
10
1.8480699606299211
20
-6.1007829921259837
11
1.8519562204724409
21
-6.0929783464566931
0
LINE
8
BLACK
6
CONTINUOUS
10
1.8519562204724409
20
-6.0929783464566931
11
1.8572104330708661
21
-6.0860206692913383
0
LINE
8
BLACK
6
CONTINUOUS
10
1.8572104330708661
20
-6.0860206692913383
11
1.8636536220472442
21
-6.0801468897637791
0
LINE
8
BLACK
6
CONTINUOUS
10
1.8636536220472442
20
-6.0801468897637791
11
1.8710664173228346
21
-6.0755570866141735
0
LINE
8
BLACK
6
CONTINUOUS
10
1.8710664173228346
20
-6.0755570866141735
11
1.8791963779527558
21
-6.0724075590551179
0
LINE
8
BLACK
6
CONTINUOUS
10
1.8791963779527558
20
-6.0724075590551179
11
1.8877666141732283
21
-6.070805472440945
0
LINE
8
BLACK
6
CONTINUOUS
10
1.8877666141732283
20
-6.070805472440945
11
1.8964853543307085
21
-6.070805472440945
0
LINE
8
BLACK
6
CONTINUOUS
10
1.8964853543307085
20
-6.070805472440945
11
1.905055590551181
21
-6.0724075590551179
0
LINE
8
BLACK
6
CONTINUOUS
10
1.8493715748031496
20
-6.125842598425197
11
1.8515681102362205
21
-6.1335625984251969
0
LINE
8
BLACK
6
CONTINUOUS
10
1.8515681102362205
20
-6.1335625984251969
11
1.8551457874015747
21
-6.1407475590551179
0
LINE
8
BLACK
6
CONTINUOUS
10
1.8551457874015747
20
-6.1407475590551179
11
1.8599827952755905
21
-6.1471527952755904
0
LINE
8
BLACK
6
CONTINUOUS
10
1.8599827952755905
20
-6.1471527952755904
11
1.8659144094488189
21
-6.1525601574803153
0
LINE
8
BLACK
6
CONTINUOUS
10
1.8659144094488189
20
-6.1525601574803153
11
1.8727385826771654
21
-6.1567855118110231
0
LINE
8
BLACK
6
CONTINUOUS
10
1.8727385826771654
20
-6.1567855118110231
11
1.8802230314960628
21
-6.1596849999999996
0
LINE
8
BLACK
6
CONTINUOUS
10
1.8802230314960628
20
-6.1596849999999996
11
1.8881127559055118
21
-6.1611598425196847
0
LINE
8
BLACK
6
CONTINUOUS
10
1.8881127559055118
20
-6.1611598425196847
11
1.8961392125984251
21
-6.1611598425196847
0
LINE
8
BLACK
6
CONTINUOUS
10
1.8961392125984251
20
-6.1611598425196847
11
1.904028937007874
21
-6.1596849999999996
0
LINE
8
BLACK
6
CONTINUOUS
10
1.904028937007874
20
-6.1596849999999996
11
1.9115133858267717
21
-6.1567855118110231
0
LINE
8
BLACK
6
CONTINUOUS
10
1.9115133858267717
20
-6.1567855118110231
11
1.9183375590551182
21
-6.1525601574803153
0
LINE
8
BLACK
6
CONTINUOUS
10
1.9183375590551182
20
-6.1525601574803153
11
1.9242691732283463
21
-6.1471527952755904
0
LINE
8
BLACK
6
CONTINUOUS
10
1.9242691732283463
20
-6.1471527952755904
11
1.9291061811023622
21
-6.1407475590551179
0
LINE
8
BLACK
6
CONTINUOUS
10
1.9291061811023622
20
-6.1407475590551179
11
1.9326838582677164
21
-6.1335625984251969
0
LINE
8
BLACK
6
CONTINUOUS
10
1.9326838582677164
20
-6.1335625984251969
11
1.9348803937007875
21
-6.125842598425197
0
LINE
8
BLACK
6
CONTINUOUS
10
1.9348803937007875
20
-6.125842598425197
11
1.9356209842519685
21
-6.1178503937007873
0
LINE
8
BLACK
6
CONTINUOUS
10
1.9356209842519685
20
-6.1178503937007873
11
1.9348803937007875
21
-6.1098581889763777
0
LINE
8
BLACK
6
CONTINUOUS
10
1.9348803937007875
20
-6.1098581889763777
11
1.9326838582677164
21
-6.1021381889763777
0
LINE
8
BLACK
6
CONTINUOUS
10
1.9326838582677164
20
-6.1021381889763777
11
1.9291061811023622
21
-6.0949532283464567
0
LINE
8
BLACK
6
CONTINUOUS
10
1.9291061811023622
20
-6.0949532283464567
11
1.9242691732283463
21
-6.0885479921259842
0
LINE
8
BLACK
6
CONTINUOUS
10
1.9242691732283463
20
-6.0885479921259842
11
1.9183375590551182
21
-6.0831406299212594
0
LINE
8
BLACK
6
CONTINUOUS
10
1.9183375590551182
20
-6.0831406299212594
11
1.9115133858267717
21
-6.0789152755905507
0
LINE
8
BLACK
6
CONTINUOUS
10
1.9115133858267717
20
-6.0789152755905507
11
1.904028937007874
21
-6.076015787401575
0
LINE
8
BLACK
6
CONTINUOUS
10
1.904028937007874
20
-6.076015787401575
11
1.8961392125984251
21
-6.0745409448818899
0
LINE
8
BLACK
6
CONTINUOUS
10
1.8961392125984251
20
-6.0745409448818899
11
1.8881127559055118
21
-6.0745409448818899
0
LINE
8
BLACK
6
CONTINUOUS
10
1.8881127559055118
20
-6.0745409448818899
11
1.8802230314960628
21
-6.076015787401575
0
LINE
8
BLACK
6
CONTINUOUS
10
1.8802230314960628
20
-6.076015787401575
11
1.8727385826771654
21
-6.0789152755905507
0
LINE
8
BLACK
6
CONTINUOUS
10
1.8727385826771654
20
-6.0789152755905507
11
1.8659144094488189
21
-6.0831406299212594
0
LINE
8
BLACK
6
CONTINUOUS
10
1.8659144094488189
20
-6.0831406299212594
11
1.8599827952755905
21
-6.0885479921259842
0
LINE
8
BLACK
6
CONTINUOUS
10
1.8599827952755905
20
-6.0885479921259842
11
1.8551457874015747
21
-6.0949532283464567
0
LINE
8
BLACK
6
CONTINUOUS
10
1.8551457874015747
20
-6.0949532283464567
11
1.8515681102362205
21
-6.1021381889763777
0
LINE
8
BLACK
6
CONTINUOUS
10
1.8515681102362205
20
-6.1021381889763777
11
1.8493715748031496
21
-6.1098581889763777
0
LINE
8
BLACK
6
CONTINUOUS
10
1.8493715748031496
20
-6.1098581889763777
11
1.8486309842519684
21
-6.1178503937007873
0
LINE
8
BLACK
6
CONTINUOUS
10
1.8486309842519684
20
-6.1178503937007873
11
1.8493715748031496
21
-6.125842598425197
0
LINE
8
BLACK
6
CONTINUOUS
10
14.1885201574803155
20
-6.0724075590551179
11
14.1966501181102362
21
-6.0755570866141735
0
LINE
8
BLACK
6
CONTINUOUS
10
14.1966501181102362
20
-6.0755570866141735
11
14.2040629133858261
21
-6.0801468897637791
0
LINE
8
BLACK
6
CONTINUOUS
10
14.2040629133858261
20
-6.0801468897637791
11
14.2105061023622046
21
-6.0860206692913383
0
LINE
8
BLACK
6
CONTINUOUS
10
14.2105061023622046
20
-6.0860206692913383
11
14.2157603149606295
21
-6.0929783464566931
0
LINE
8
BLACK
6
CONTINUOUS
10
14.2157603149606295
20
-6.0929783464566931
11
14.21964657480315
21
-6.1007829921259837
0
LINE
8
BLACK
6
CONTINUOUS
10
14.21964657480315
20
-6.1007829921259837
11
14.2220325590551173
21
-6.1091688976377947
0
LINE
8
BLACK
6
CONTINUOUS
10
14.2220325590551173
20
-6.1091688976377947
11
14.2228370078740163
21
-6.1178503937007873
0
LINE
8
BLACK
6
CONTINUOUS
10
14.2228370078740163
20
-6.1178503937007873
11
14.2220325590551173
21
-6.126531889763779
0
LINE
8
BLACK
6
CONTINUOUS
10
14.2220325590551173
20
-6.126531889763779
11
14.21964657480315
21
-6.13491779527559
0
LINE
8
BLACK
6
CONTINUOUS
10
14.21964657480315
20
-6.13491779527559
11
14.2157603149606295
21
-6.1427224409448815
0
LINE
8
BLACK
6
CONTINUOUS
10
14.2157603149606295
20
-6.1427224409448815
11
14.2105061023622046
21
-6.1496801181102363
0
LINE
8
BLACK
6
CONTINUOUS
10
14.2105061023622046
20
-6.1496801181102363
11
14.2040629133858261
21
-6.1555538976377955
0
LINE
8
BLACK
6
CONTINUOUS
10
14.2040629133858261
20
-6.1555538976377955
11
14.1966501181102362
21
-6.1601437007874011
0
LINE
8
BLACK
6
CONTINUOUS
10
14.1966501181102362
20
-6.1601437007874011
11
14.1885201574803155
21
-6.1632932283464568
0
LINE
8
BLACK
6
CONTINUOUS
10
14.1885201574803155
20
-6.1632932283464568
11
14.1799499212598423
21
-6.1648953149606296
0
LINE
8
BLACK
6
CONTINUOUS
10
14.1799499212598423
20
-6.1648953149606296
11
14.1712311811023621
21
-6.1648953149606296
0
LINE
8
BLACK
6
CONTINUOUS
10
14.1712311811023621
20
-6.1648953149606296
11
14.162660944881889
21
-6.1632932283464568
0
LINE
8
BLACK
6
CONTINUOUS
10
14.162660944881889
20
-6.1632932283464568
11
14.1545309842519682
21
-6.1601437007874011
0
LINE
8
BLACK
6
CONTINUOUS
10
14.1545309842519682
20
-6.1601437007874011
11
14.1471181889763784
21
-6.1555538976377955
0
LINE
8
BLACK
6
CONTINUOUS
10
14.1471181889763784
20
-6.1555538976377955
11
14.1406749999999999
21
-6.1496801181102363
0
LINE
8
BLACK
6
CONTINUOUS
10
14.1406749999999999
20
-6.1496801181102363
11
14.1354207874015749
21
-6.1427224409448815
0
LINE
8
BLACK
6
CONTINUOUS
10
14.1354207874015749
20
-6.1427224409448815
11
14.1315345275590545
21
-6.13491779527559
0
LINE
8
BLACK
6
CONTINUOUS
10
14.1315345275590545
20
-6.13491779527559
11
14.1291485433070871
21
-6.126531889763779
0
LINE
8
BLACK
6
CONTINUOUS
10
14.1291485433070871
20
-6.126531889763779
11
14.1283440944881882
21
-6.1178503937007873
0
LINE
8
BLACK
6
CONTINUOUS
10
14.1283440944881882
20
-6.1178503937007873
11
14.1291485433070871
21
-6.1091688976377947
0
LINE
8
BLACK
6
CONTINUOUS
10
14.1291485433070871
20
-6.1091688976377947
11
14.1315345275590545
21
-6.1007829921259837
0
LINE
8
BLACK
6
CONTINUOUS
10
14.1315345275590545
20
-6.1007829921259837
11
14.1354207874015749
21
-6.0929783464566931
0
LINE
8
BLACK
6
CONTINUOUS
10
14.1354207874015749
20
-6.0929783464566931
11
14.1406749999999999
21
-6.0860206692913383
0
LINE
8
BLACK
6
CONTINUOUS
10
14.1406749999999999
20
-6.0860206692913383
11
14.1471181889763784
21
-6.0801468897637791
0
LINE
8
BLACK
6
CONTINUOUS
10
14.1471181889763784
20
-6.0801468897637791
11
14.1545309842519682
21
-6.0755570866141735
0
LINE
8
BLACK
6
CONTINUOUS
10
14.1545309842519682
20
-6.0755570866141735
11
14.162660944881889
21
-6.0724075590551179
0
LINE
8
BLACK
6
CONTINUOUS
10
14.162660944881889
20
-6.0724075590551179
11
14.1712311811023621
21
-6.070805472440945
0
LINE
8
BLACK
6
CONTINUOUS
10
14.1712311811023621
20
-6.070805472440945
11
14.1799499212598423
21
-6.070805472440945
0
LINE
8
BLACK
6
CONTINUOUS
10
14.1799499212598423
20
-6.070805472440945
11
14.1885201574803155
21
-6.0724075590551179
0
LINE
8
BLACK
6
CONTINUOUS
10
14.1328361417322839
20
-6.125842598425197
11
14.1350326771653538
21
-6.1335625984251969
0
LINE
8
BLACK
6
CONTINUOUS
10
14.1350326771653538
20
-6.1335625984251969
11
14.1386103543307087
21
-6.1407475590551179
0
LINE
8
BLACK
6
CONTINUOUS
10
14.1386103543307087
20
-6.1407475590551179
11
14.1434473622047232
21
-6.1471527952755904
0
LINE
8
BLACK
6
CONTINUOUS
10
14.1434473622047232
20
-6.1471527952755904
11
14.1493789763779532
21
-6.1525601574803153
0
LINE
8
BLACK
6
CONTINUOUS
10
14.1493789763779532
20
-6.1525601574803153
11
14.1562031496062986
21
-6.1567855118110231
0
LINE
8
BLACK
6
CONTINUOUS
10
14.1562031496062986
20
-6.1567855118110231
11
14.1636875984251969
21
-6.1596849999999996
0
LINE
8
BLACK
6
CONTINUOUS
10
14.1636875984251969
20
-6.1596849999999996
11
14.1715773228346453
21
-6.1611598425196847
0
LINE
8
BLACK
6
CONTINUOUS
10
14.1715773228346453
20
-6.1611598425196847
11
14.1796037795275591
21
-6.1611598425196847
0
LINE
8
BLACK
6
CONTINUOUS
10
14.1796037795275591
20
-6.1611598425196847
11
14.1874935039370076
21
-6.1596849999999996
0
LINE
8
BLACK
6
CONTINUOUS
10
14.1874935039370076
20
-6.1596849999999996
11
14.1949779527559059
21
-6.1567855118110231
0
LINE
8
BLACK
6
CONTINUOUS
10
14.1949779527559059
20
-6.1567855118110231
11
14.2018021259842513
21
-6.1525601574803153
0
LINE
8
BLACK
6
CONTINUOUS
10
14.2018021259842513
20
-6.1525601574803153
11
14.2077337401574795
21
-6.1471527952755904
0
LINE
8
BLACK
6
CONTINUOUS
10
14.2077337401574795
20
-6.1471527952755904
11
14.2125707480314958
21
-6.1407475590551179
0
LINE
8
BLACK
6
CONTINUOUS
10
14.2125707480314958
20
-6.1407475590551179
11
14.2161484251968506
21
-6.1335625984251969
0
LINE
8
BLACK
6
CONTINUOUS
10
14.2161484251968506
20
-6.1335625984251969
11
14.2183449606299206
21
-6.125842598425197
0
LINE
8
BLACK
6
CONTINUOUS
10
14.2183449606299206
20
-6.125842598425197
11
14.2190855511811023
21
-6.1178503937007873
0
LINE
8
BLACK
6
CONTINUOUS
10
14.2190855511811023
20
-6.1178503937007873
11
14.2183449606299206
21
-6.1098581889763777
0
LINE
8
BLACK
6
CONTINUOUS
10
14.2183449606299206
20
-6.1098581889763777
11
14.2161484251968506
21
-6.1021381889763777
0
LINE
8
BLACK
6
CONTINUOUS
10
14.2161484251968506
20
-6.1021381889763777
11
14.2125707480314958
21
-6.0949532283464567
0
LINE
8
BLACK
6
CONTINUOUS
10
14.2125707480314958
20
-6.0949532283464567
11
14.2077337401574795
21
-6.0885479921259842
0
LINE
8
BLACK
6
CONTINUOUS
10
14.2077337401574795
20
-6.0885479921259842
11
14.2018021259842513
21
-6.0831406299212594
0
LINE
8
BLACK
6
CONTINUOUS
10
14.2018021259842513
20
-6.0831406299212594
11
14.1949779527559059
21
-6.0789152755905507
0
LINE
8
BLACK
6
CONTINUOUS
10
14.1949779527559059
20
-6.0789152755905507
11
14.1874935039370076
21
-6.076015787401575
0
LINE
8
BLACK
6
CONTINUOUS
10
14.1874935039370076
20
-6.076015787401575
11
14.1796037795275591
21
-6.0745409448818899
0
LINE
8
BLACK
6
CONTINUOUS
10
14.1796037795275591
20
-6.0745409448818899
11
14.1715773228346453
21
-6.0745409448818899
0
LINE
8
BLACK
6
CONTINUOUS
10
14.1715773228346453
20
-6.0745409448818899
11
14.1636875984251969
21
-6.076015787401575
0
LINE
8
BLACK
6
CONTINUOUS
10
14.1636875984251969
20
-6.076015787401575
11
14.1562031496062986
21
-6.0789152755905507
0
LINE
8
BLACK
6
CONTINUOUS
10
14.1562031496062986
20
-6.0789152755905507
11
14.1493789763779532
21
-6.0831406299212594
0
LINE
8
BLACK
6
CONTINUOUS
10
14.1493789763779532
20
-6.0831406299212594
11
14.1434473622047232
21
-6.0885479921259842
0
LINE
8
BLACK
6
CONTINUOUS
10
14.1434473622047232
20
-6.0885479921259842
11
14.1386103543307087
21
-6.0949532283464567
0
LINE
8
BLACK
6
CONTINUOUS
10
14.1386103543307087
20
-6.0949532283464567
11
14.1350326771653538
21
-6.1021381889763777
0
LINE
8
BLACK
6
CONTINUOUS
10
14.1350326771653538
20
-6.1021381889763777
11
14.1328361417322839
21
-6.1098581889763777
0
LINE
8
BLACK
6
CONTINUOUS
10
14.1328361417322839
20
-6.1098581889763777
11
14.1320955511811022
21
-6.1178503937007873
0
LINE
8
BLACK
6
CONTINUOUS
10
14.1320955511811022
20
-6.1178503937007873
11
14.1328361417322839
21
-6.125842598425197
0
LINE
8
BLACK
6
CONTINUOUS
10
8.232417795275591
20
-5.7262107086614176
11
8.2405477559055118
21
-5.7293602362204723
0
LINE
8
BLACK
6
CONTINUOUS
10
8.2405477559055118
20
-5.7293602362204723
11
8.2479605511811016
21
-5.7339500393700789
0
LINE
8
BLACK
6
CONTINUOUS
10
8.2479605511811016
20
-5.7339500393700789
11
8.2544037401574801
21
-5.739823818897638
0
LINE
8
BLACK
6
CONTINUOUS
10
8.2544037401574801
20
-5.739823818897638
11
8.2596579527559051
21
-5.7467814960629919
0
LINE
8
BLACK
6
CONTINUOUS
10
8.2596579527559051
20
-5.7467814960629919
11
8.2635442125984255
21
-5.7545861417322834
0
LINE
8
BLACK
6
CONTINUOUS
10
8.2635442125984255
20
-5.7545861417322834
11
8.2659301968503929
21
-5.7629720472440944
0
LINE
8
BLACK
6
CONTINUOUS
10
8.2659301968503929
20
-5.7629720472440944
11
8.2667346456692918
21
-5.7716535433070861
0
LINE
8
BLACK
6
CONTINUOUS
10
8.2667346456692918
20
-5.7716535433070861
11
8.2659301968503929
21
-5.7803350393700788
0
LINE
8
BLACK
6
CONTINUOUS
10
8.2659301968503929
20
-5.7803350393700788
11
8.2635442125984255
21
-5.7887209448818897
0
LINE
8
BLACK
6
CONTINUOUS
10
8.2635442125984255
20
-5.7887209448818897
11
8.2596579527559051
21
-5.7965255905511812
0
LINE
8
BLACK
6
CONTINUOUS
10
8.2596579527559051
20
-5.7965255905511812
11
8.2544037401574801
21
-5.8034832677165351
0
LINE
8
BLACK
6
CONTINUOUS
10
8.2544037401574801
20
-5.8034832677165351
11
8.2479605511811016
21
-5.8093570472440943
0
LINE
8
BLACK
6
CONTINUOUS
10
8.2479605511811016
20
-5.8093570472440943
11
8.2405477559055118
21
-5.8139468503937008
0
LINE
8
BLACK
6
CONTINUOUS
10
8.2405477559055118
20
-5.8139468503937008
11
8.232417795275591
21
-5.8170963779527556
0
LINE
8
BLACK
6
CONTINUOUS
10
8.232417795275591
20
-5.8170963779527556
11
8.2238475590551179
21
-5.8186984645669293
0
LINE
8
BLACK
6
CONTINUOUS
10
8.2238475590551179
20
-5.8186984645669293
11
8.2151288188976377
21
-5.8186984645669293
0
LINE
8
BLACK
6
CONTINUOUS
10
8.2151288188976377
20
-5.8186984645669293
11
8.2065585826771645
21
-5.8170963779527556
0
LINE
8
BLACK
6
CONTINUOUS
10
8.2065585826771645
20
-5.8170963779527556
11
8.1984286220472438
21
-5.8139468503937008
0
LINE
8
BLACK
6
CONTINUOUS
10
8.1984286220472438
20
-5.8139468503937008
11
8.191015826771654
21
-5.8093570472440943
0
LINE
8
BLACK
6
CONTINUOUS
10
8.191015826771654
20
-5.8093570472440943
11
8.1845726377952754
21
-5.8034832677165351
0
LINE
8
BLACK
6
CONTINUOUS
10
8.1845726377952754
20
-5.8034832677165351
11
8.1793184251968505
21
-5.7965255905511812
0
LINE
8
BLACK
6
CONTINUOUS
10
8.1793184251968505
20
-5.7965255905511812
11
8.17543216535433
21
-5.7887209448818897
0
LINE
8
BLACK
6
CONTINUOUS
10
8.17543216535433
20
-5.7887209448818897
11
8.1730461811023627
21
-5.7803350393700788
0
LINE
8
BLACK
6
CONTINUOUS
10
8.1730461811023627
20
-5.7803350393700788
11
8.1722417322834637
21
-5.7716535433070861
0
LINE
8
BLACK
6
CONTINUOUS
10
8.1722417322834637
20
-5.7716535433070861
11
8.1730461811023627
21
-5.7629720472440944
0
LINE
8
BLACK
6
CONTINUOUS
10
8.1730461811023627
20
-5.7629720472440944
11
8.17543216535433
21
-5.7545861417322834
0
LINE
8
BLACK
6
CONTINUOUS
10
8.17543216535433
20
-5.7545861417322834
11
8.1793184251968505
21
-5.7467814960629919
0
LINE
8
BLACK
6
CONTINUOUS
10
8.1793184251968505
20
-5.7467814960629919
11
8.1845726377952754
21
-5.739823818897638
0
LINE
8
BLACK
6
CONTINUOUS
10
8.1845726377952754
20
-5.739823818897638
11
8.191015826771654
21
-5.7339500393700789
0
LINE
8
BLACK
6
CONTINUOUS
10
8.191015826771654
20
-5.7339500393700789
11
8.1984286220472438
21
-5.7293602362204723
0
LINE
8
BLACK
6
CONTINUOUS
10
8.1984286220472438
20
-5.7293602362204723
11
8.2065585826771645
21
-5.7262107086614176
0
LINE
8
BLACK
6
CONTINUOUS
10
8.2065585826771645
20
-5.7262107086614176
11
8.2151288188976377
21
-5.7246086220472439
0
LINE
8
BLACK
6
CONTINUOUS
10
8.2151288188976377
20
-5.7246086220472439
11
8.2238475590551179
21
-5.7246086220472439
0
LINE
8
BLACK
6
CONTINUOUS
10
8.2238475590551179
20
-5.7246086220472439
11
8.232417795275591
21
-5.7262107086614176
0
LINE
8
BLACK
6
CONTINUOUS
10
8.1767337795275594
20
-5.7796457480314958
11
8.1789303149606294
21
-5.7873657480314957
0
LINE
8
BLACK
6
CONTINUOUS
10
8.1789303149606294
20
-5.7873657480314957
11
8.1825079921259842
21
-5.7945507086614167
0
LINE
8
BLACK
6
CONTINUOUS
10
8.1825079921259842
20
-5.7945507086614167
11
8.1873450000000005
21
-5.8009559448818893
0
LINE
8
BLACK
6
CONTINUOUS
10
8.1873450000000005
20
-5.8009559448818893
11
8.1932766141732287
21
-5.8063633070866141
0
LINE
8
BLACK
6
CONTINUOUS
10
8.1932766141732287
20
-5.8063633070866141
11
8.2001007874015741
21
-5.8105886614173228
0
LINE
8
BLACK
6
CONTINUOUS
10
8.2001007874015741
20
-5.8105886614173228
11
8.2075852362204724
21
-5.8134881496062993
0
LINE
8
BLACK
6
CONTINUOUS
10
8.2075852362204724
20
-5.8134881496062993
11
8.2154749606299209
21
-5.8149629921259844
0
LINE
8
BLACK
6
CONTINUOUS
10
8.2154749606299209
20
-5.8149629921259844
11
8.2235014173228347
21
-5.8149629921259844
0
LINE
8
BLACK
6
CONTINUOUS
10
8.2235014173228347
20
-5.8149629921259844
11
8.2313911417322831
21
-5.8134881496062993
0
LINE
8
BLACK
6
CONTINUOUS
10
8.2313911417322831
20
-5.8134881496062993
11
8.2388755905511815
21
-5.8105886614173228
0
LINE
8
BLACK
6
CONTINUOUS
10
8.2388755905511815
20
-5.8105886614173228
11
8.2456997637795268
21
-5.8063633070866141
0
LINE
8
BLACK
6
CONTINUOUS
10
8.2456997637795268
20
-5.8063633070866141
11
8.251631377952755
21
-5.8009559448818893
0
LINE
8
BLACK
6
CONTINUOUS
10
8.251631377952755
20
-5.8009559448818893
11
8.2564683858267713
21
-5.7945507086614167
0
LINE
8
BLACK
6
CONTINUOUS
10
8.2564683858267713
20
-5.7945507086614167
11
8.2600460629921262
21
-5.7873657480314957
0
LINE
8
BLACK
6
CONTINUOUS
10
8.2600460629921262
20
-5.7873657480314957
11
8.2622425984251961
21
-5.7796457480314958
0
LINE
8
BLACK
6
CONTINUOUS
10
8.2622425984251961
20
-5.7796457480314958
11
8.2629831889763778
21
-5.7716535433070861
0
LINE
8
BLACK
6
CONTINUOUS
10
8.2629831889763778
20
-5.7716535433070861
11
8.2622425984251961
21
-5.7636613385826774
0
LINE
8
BLACK
6
CONTINUOUS
10
8.2622425984251961
20
-5.7636613385826774
11
8.2600460629921262
21
-5.7559413385826774
0
LINE
8
BLACK
6
CONTINUOUS
10
8.2600460629921262
20
-5.7559413385826774
11
8.2564683858267713
21
-5.7487563779527555
0
LINE
8
BLACK
6
CONTINUOUS
10
8.2564683858267713
20
-5.7487563779527555
11
8.251631377952755
21
-5.742351141732283
0
LINE
8
BLACK
6
CONTINUOUS
10
8.251631377952755
20
-5.742351141732283
11
8.2456997637795268
21
-5.7369437795275591
0
LINE
8
BLACK
6
CONTINUOUS
10
8.2456997637795268
20
-5.7369437795275591
11
8.2388755905511815
21
-5.7327184251968504
0
LINE
8
BLACK
6
CONTINUOUS
10
8.2388755905511815
20
-5.7327184251968504
11
8.2313911417322831
21
-5.7298189370078738
0
LINE
8
BLACK
6
CONTINUOUS
10
8.2313911417322831
20
-5.7298189370078738
11
8.2235014173228347
21
-5.7283440944881887
0
LINE
8
BLACK
6
CONTINUOUS
10
8.2235014173228347
20
-5.7283440944881887
11
8.2154749606299209
21
-5.7283440944881887
0
LINE
8
BLACK
6
CONTINUOUS
10
8.2154749606299209
20
-5.7283440944881887
11
8.2075852362204724
21
-5.7298189370078738
0
LINE
8
BLACK
6
CONTINUOUS
10
8.2075852362204724
20
-5.7298189370078738
11
8.2001007874015741
21
-5.7327184251968504
0
LINE
8
BLACK
6
CONTINUOUS
10
8.2001007874015741
20
-5.7327184251968504
11
8.1932766141732287
21
-5.7369437795275591
0
LINE
8
BLACK
6
CONTINUOUS
10
8.1932766141732287
20
-5.7369437795275591
11
8.1873450000000005
21
-5.742351141732283
0
LINE
8
BLACK
6
CONTINUOUS
10
8.1873450000000005
20
-5.742351141732283
11
8.1825079921259842
21
-5.7487563779527555
0
LINE
8
BLACK
6
CONTINUOUS
10
8.1825079921259842
20
-5.7487563779527555
11
8.1789303149606294
21
-5.7559413385826774
0
LINE
8
BLACK
6
CONTINUOUS
10
8.1789303149606294
20
-5.7559413385826774
11
8.1767337795275594
21
-5.7636613385826774
0
LINE
8
BLACK
6
CONTINUOUS
10
8.1767337795275594
20
-5.7636613385826774
11
8.1759931889763777
21
-5.7716535433070861
0
LINE
8
BLACK
6
CONTINUOUS
10
8.1759931889763777
20
-5.7716535433070861
11
8.1767337795275594
21
-5.7796457480314958
0
LINE
8
BLACK
6
CONTINUOUS
10
1.8444864960629921
20
-2.6860240551181103
11
1.8444865748031496
21
-2.6860240551181103
0
LINE
8
BLACK
6
CONTINUOUS
10
1.8444865748031496
20
-2.6860240551181103
11
2.0196850393700787
21
-2.686023622047244
0
LINE
8
BLACK
6
CONTINUOUS
10
2.0196850393700787
20
-2.686023622047244
11
2.024283937007874
21
-2.6865418503937009
0
LINE
8
BLACK
6
CONTINUOUS
10
2.024283937007874
20
-2.6865418503937009
11
2.0286521653543308
21
-2.6880705118110235
0
LINE
8
BLACK
6
CONTINUOUS
10
2.0286521653543308
20
-2.6880705118110235
11
2.0325706692913386
21
-2.6905329527559054
0
LINE
8
BLACK
6
CONTINUOUS
10
2.0325706692913386
20
-2.6905329527559054
11
2.0358429133858267
21
-2.6938056692913386
0
LINE
8
BLACK
6
CONTINUOUS
10
2.0358429133858267
20
-2.6938056692913386
11
2.038304803149606
21
-2.6977244881889764
0
LINE
8
BLACK
6
CONTINUOUS
10
2.038304803149606
20
-2.6977244881889764
11
2.0398328346456691
21
-2.7020929527559057
0
LINE
8
BLACK
6
CONTINUOUS
10
2.0398328346456691
20
-2.7020929527559057
11
2.0403482677165354
21
-2.7066733070866142
0
LINE
8
BLACK
6
CONTINUOUS
10
2.0403482677165354
20
-2.7066733070866142
11
2.0403519685039369
21
-2.7066917716535435
0
LINE
8
BLACK
6
CONTINUOUS
10
2.0403519685039369
20
-2.7066917716535435
11
2.0403524409448819
21
-2.8996070866141732
0
LINE
8
BLACK
6
CONTINUOUS
10
2.0403524409448819
20
-2.8996070866141732
11
2.0403524409448819
21
-2.899607125984252
0
LINE
8
BLACK
6
CONTINUOUS
10
2.0403524409448819
20
-2.899607125984252
11
2.0398340944881888
21
-2.9042060236220473
0
LINE
8
BLACK
6
CONTINUOUS
10
2.0398340944881888
20
-2.9042060236220473
11
2.0383053543307086
21
-2.9085742913385828
0
LINE
8
BLACK
6
CONTINUOUS
10
2.0383053543307086
20
-2.9085742913385828
11
2.0358429527559054
21
-2.9124928346456693
0
LINE
8
BLACK
6
CONTINUOUS
10
2.0358429527559054
20
-2.9124928346456693
11
2.0325703149606298
21
-2.9157652362204725
0
LINE
8
BLACK
6
CONTINUOUS
10
2.0325703149606298
20
-2.9157652362204725
11
2.0286515748031495
21
-2.9182273228346456
0
LINE
8
BLACK
6
CONTINUOUS
10
2.0286515748031495
20
-2.9182273228346456
11
2.0242831889763777
21
-2.9197557086614174
0
LINE
8
BLACK
6
CONTINUOUS
10
2.0242831889763777
20
-2.9197557086614174
11
2.0196879921259843
21
-2.9202732677165355
0
LINE
8
BLACK
6
CONTINUOUS
10
2.0196879921259843
20
-2.9202732677165355
11
2.0196842913385828
21
-2.9202740157480314
0
LINE
8
BLACK
6
CONTINUOUS
10
2.0196842913385828
20
-2.9202740157480314
11
1.8444858267716535
21
-2.9202744488188976
0
LINE
8
BLACK
6
CONTINUOUS
10
1.8444858267716535
20
-2.9202744488188976
11
1.844485748031496
21
-2.9202744094488189
0
LINE
8
BLACK
6
CONTINUOUS
10
1.844485748031496
20
-2.9202744094488189
11
1.8444857086614173
21
-2.9202744488188976
0
LINE
8
BLACK
6
CONTINUOUS
10
1.8444857086614173
20
-2.9202744488188976
11
1.8398870078740157
21
-2.9197557874015749
0
LINE
8
BLACK
6
CONTINUOUS
10
1.8398870078740157
20
-2.9197557874015749
11
1.8355190157480314
21
-2.9182268897637793
0
LINE
8
BLACK
6
CONTINUOUS
10
1.8355190157480314
20
-2.9182268897637793
11
1.8316007086614172
21
-2.9157644094488187
0
LINE
8
BLACK
6
CONTINUOUS
10
1.8316007086614172
20
-2.9157644094488187
11
1.8283285039370079
21
-2.9124918503937005
0
LINE
8
BLACK
6
CONTINUOUS
10
1.8283285039370079
20
-2.9124918503937005
11
1.8258665354330708
21
-2.9085732283464565
0
LINE
8
BLACK
6
CONTINUOUS
10
1.8258665354330708
20
-2.9085732283464565
11
1.8243381496062991
21
-2.9042050393700785
0
LINE
8
BLACK
6
CONTINUOUS
10
1.8243381496062991
20
-2.9042050393700785
11
1.8238214960629922
21
-2.8996195275590551
0
LINE
8
BLACK
6
CONTINUOUS
10
1.8238214960629922
20
-2.8996195275590551
11
1.8238188976377951
21
-2.8996062992125982
0
LINE
8
BLACK
6
CONTINUOUS
10
1.8238188976377951
20
-2.8996062992125982
11
1.8238184251968503
21
-2.7066909842519684
0
LINE
8
BLACK
6
CONTINUOUS
10
1.8238184251968503
20
-2.7066909842519684
11
1.8238184251968503
21
-2.7066909055118109
0
LINE
8
BLACK
6
CONTINUOUS
10
1.8238184251968503
20
-2.7066909055118109
11
1.8243370078740158
21
-2.7020920078740156
0
LINE
8
BLACK
6
CONTINUOUS
10
1.8243370078740158
20
-2.7020920078740156
11
1.8258657874015747
21
-2.6977237795275588
0
LINE
8
BLACK
6
CONTINUOUS
10
1.8258657874015747
20
-2.6977237795275588
11
1.8283281889763778
21
-2.6938051968503935
0
LINE
8
BLACK
6
CONTINUOUS
10
1.8283281889763778
20
-2.6938051968503935
11
1.8316007086614172
21
-2.6905327165354329
0
LINE
8
BLACK
6
CONTINUOUS
10
1.8316007086614172
20
-2.6905327165354329
11
1.8355193307086615
21
-2.6880703543307085
0
LINE
8
BLACK
6
CONTINUOUS
10
1.8355193307086615
20
-2.6880703543307085
11
1.8398875984251968
21
-2.6865416535433071
0
LINE
8
BLACK
6
CONTINUOUS
10
1.8398875984251968
20
-2.6865416535433071
11
1.8444864960629921
21
-2.686023149606299
0
LINE
8
BLACK
6
CONTINUOUS
10
1.8444864960629921
20
-2.686023149606299
11
1.8444864960629921
21
-2.6860240551181103
0
LINE
8
BLACK
6
CONTINUOUS
10
1.8420248818897638
20
-2.6879918110236218
11
1.8372691338582676
21
-2.6892663779527557
0
LINE
8
BLACK
6
CONTINUOUS
10
1.8372691338582676
20
-2.6892663779527557
11
1.8330052362204723
21
-2.6917282677165355
0
LINE
8
BLACK
6
CONTINUOUS
10
1.8330052362204723
20
-2.6917282677165355
11
1.8295237007874015
21
-2.6952097244094486
0
LINE
8
BLACK
6
CONTINUOUS
10
1.8295237007874015
20
-2.6952097244094486
11
1.8270617716535433
21
-2.6994735826771654
0
LINE
8
BLACK
6
CONTINUOUS
10
1.8270617716535433
20
-2.6994735826771654
11
1.825787125984252
21
-2.7042292913385828
0
LINE
8
BLACK
6
CONTINUOUS
10
1.825787125984252
20
-2.7042292913385828
11
1.8257869291338582
21
-2.7066909055118109
0
LINE
8
BLACK
6
CONTINUOUS
10
1.8257869291338582
20
-2.7066909055118109
11
1.8257869291338582
21
-2.7066909842519684
0
LINE
8
BLACK
6
CONTINUOUS
10
1.8257869291338582
20
-2.7066909842519684
11
1.825787401574803
21
-2.8996062992125982
0
LINE
8
BLACK
6
CONTINUOUS
10
1.825787401574803
20
-2.8996062992125982
11
1.8257885433070866
21
-2.8996062992125982
0
LINE
8
BLACK
6
CONTINUOUS
10
1.8257885433070866
20
-2.8996062992125982
11
1.8257885039370079
21
-2.9020679527559055
0
LINE
8
BLACK
6
CONTINUOUS
10
1.8257885039370079
20
-2.9020679527559055
11
1.8270626771653542
21
-2.9068235826771653
0
LINE
8
BLACK
6
CONTINUOUS
10
1.8270626771653542
20
-2.9068235826771653
11
1.8295241732283465
21
-2.9110874015748029
0
LINE
8
BLACK
6
CONTINUOUS
10
1.8295241732283465
20
-2.9110874015748029
11
1.833005275590551
21
-2.914568937007874
0
LINE
8
BLACK
6
CONTINUOUS
10
1.833005275590551
20
-2.914568937007874
11
1.8372688188976378
21
-2.9170309448818896
0
LINE
8
BLACK
6
CONTINUOUS
10
1.8372688188976378
20
-2.9170309448818896
11
1.8420242913385827
21
-2.9183057086614173
0
LINE
8
BLACK
6
CONTINUOUS
10
1.8420242913385827
20
-2.9183057086614173
11
1.844485905511811
21
-2.918305905511811
0
LINE
8
BLACK
6
CONTINUOUS
10
1.844485905511811
20
-2.918305905511811
11
2.0196842913385828
21
-2.9183055118110235
0
LINE
8
BLACK
6
CONTINUOUS
10
2.0196842913385828
20
-2.9183055118110235
11
2.0196843307086612
21
-2.9183055118110235
0
LINE
8
BLACK
6
CONTINUOUS
10
2.0196843307086612
20
-2.9183055118110235
11
2.0196843307086612
21
-2.9183051968503935
0
LINE
8
BLACK
6
CONTINUOUS
10
2.0196843307086612
20
-2.9183051968503935
11
2.022146062992126
21
-2.918305275590551
0
LINE
8
BLACK
6
CONTINUOUS
10
2.022146062992126
20
-2.918305275590551
11
2.0269018503937009
21
-2.9170311811023621
0
LINE
8
BLACK
6
CONTINUOUS
10
2.0269018503937009
20
-2.9170311811023621
11
2.0311658267716535
21
-2.9145695669291336
0
LINE
8
BLACK
6
CONTINUOUS
10
2.0311658267716535
20
-2.9145695669291336
11
2.0346474015748033
21
-2.9110882677165355
0
LINE
8
BLACK
6
CONTINUOUS
10
2.0346474015748033
20
-2.9110882677165355
11
2.0371093307086614
21
-2.9068244881889762
0
LINE
8
BLACK
6
CONTINUOUS
10
2.0371093307086614
20
-2.9068244881889762
11
2.0383838188976378
21
-2.9020687795275588
0
LINE
8
BLACK
6
CONTINUOUS
10
2.0383838188976378
20
-2.9020687795275588
11
2.038383937007874
21
-2.8996070472440945
0
LINE
8
BLACK
6
CONTINUOUS
10
2.038383937007874
20
-2.8996070472440945
11
2.038383464566929
21
-2.7066917716535435
0
LINE
8
BLACK
6
CONTINUOUS
10
2.038383464566929
20
-2.7066917716535435
11
2.038383464566929
21
-2.7066916535433072
0
LINE
8
BLACK
6
CONTINUOUS
10
2.038383464566929
20
-2.7066916535433072
11
2.038383464566929
21
-2.7066916141732285
0
LINE
8
BLACK
6
CONTINUOUS
10
2.038383464566929
20
-2.7066916141732285
11
2.0383818897637793
21
-2.7066916141732285
0
LINE
8
BLACK
6
CONTINUOUS
10
2.0383818897637793
20
-2.7066916141732285
11
2.0383822047244093
21
-2.7042299212598424
0
LINE
8
BLACK
6
CONTINUOUS
10
2.0383822047244093
20
-2.7042299212598424
11
2.037108503937008
21
-2.6994741338582675
0
LINE
8
BLACK
6
CONTINUOUS
10
2.037108503937008
20
-2.6994741338582675
11
2.0346472047244095
21
-2.6952100787401574
0
LINE
8
BLACK
6
CONTINUOUS
10
2.0346472047244095
20
-2.6952100787401574
11
2.031166062992126
21
-2.6917284645669293
0
LINE
8
BLACK
6
CONTINUOUS
10
2.031166062992126
20
-2.6917284645669293
11
2.0269023622047242
21
-2.6892665354330707
0
LINE
8
BLACK
6
CONTINUOUS
10
2.0269023622047242
20
-2.6892665354330707
11
2.0221467322834643
21
-2.6879921653543306
0
LINE
8
BLACK
6
CONTINUOUS
10
2.0221467322834643
20
-2.6879921653543306
11
2.0196850393700787
21
-2.6879921259842519
0
LINE
8
BLACK
6
CONTINUOUS
10
2.0196850393700787
20
-2.6879921259842519
11
1.8444866535433071
21
-2.6879925196850394
0
LINE
8
BLACK
6
CONTINUOUS
10
1.8444866535433071
20
-2.6879925196850394
11
1.8444865748031496
21
-2.6879925590551181
0
LINE
8
BLACK
6
CONTINUOUS
10
1.8444865748031496
20
-2.6879925590551181
11
1.8444820078740156
21
-2.6879916535433068
0
LINE
8
BLACK
6
CONTINUOUS
10
1.8444820078740156
20
-2.6879916535433068
11
1.8420248818897638
21
-2.6879918110236218
0
LINE
8
BLACK
6
CONTINUOUS
10
14.1885201574803155
20
-2.3976055905511808
11
14.1966501181102362
21
-2.400755118110236
0
LINE
8
BLACK
6
CONTINUOUS
10
14.1966501181102362
20
-2.400755118110236
11
14.2040629133858261
21
-2.4053449212598426
0
LINE
8
BLACK
6
CONTINUOUS
10
14.2040629133858261
20
-2.4053449212598426
11
14.2105061023622046
21
-2.4112187007874013
0
LINE
8
BLACK
6
CONTINUOUS
10
14.2105061023622046
20
-2.4112187007874013
11
14.2157603149606295
21
-2.4181763779527556
0
LINE
8
BLACK
6
CONTINUOUS
10
14.2157603149606295
20
-2.4181763779527556
11
14.21964657480315
21
-2.4259810236220472
0
LINE
8
BLACK
6
CONTINUOUS
10
14.21964657480315
20
-2.4259810236220472
11
14.2220325590551173
21
-2.4343669291338581
0
LINE
8
BLACK
6
CONTINUOUS
10
14.2220325590551173
20
-2.4343669291338581
11
14.2228370078740163
21
-2.4430484251968503
0
LINE
8
BLACK
6
CONTINUOUS
10
14.2228370078740163
20
-2.4430484251968503
11
14.2220325590551173
21
-2.4517299212598425
0
LINE
8
BLACK
6
CONTINUOUS
10
14.2220325590551173
20
-2.4517299212598425
11
14.21964657480315
21
-2.4601158267716534
0
LINE
8
BLACK
6
CONTINUOUS
10
14.21964657480315
20
-2.4601158267716534
11
14.2157603149606295
21
-2.4679204724409449
0
LINE
8
BLACK
6
CONTINUOUS
10
14.2157603149606295
20
-2.4679204724409449
11
14.2105061023622046
21
-2.4748781496062993
0
LINE
8
BLACK
6
CONTINUOUS
10
14.2105061023622046
20
-2.4748781496062993
11
14.2040629133858261
21
-2.480751929133858
0
LINE
8
BLACK
6
CONTINUOUS
10
14.2040629133858261
20
-2.480751929133858
11
14.1966501181102362
21
-2.4853417322834646
0
LINE
8
BLACK
6
CONTINUOUS
10
14.1966501181102362
20
-2.4853417322834646
11
14.1885201574803155
21
-2.4884912598425197
0
LINE
8
BLACK
6
CONTINUOUS
10
14.1885201574803155
20
-2.4884912598425197
11
14.1799499212598423
21
-2.490093346456693
0
LINE
8
BLACK
6
CONTINUOUS
10
14.1799499212598423
20
-2.490093346456693
11
14.1712311811023621
21
-2.490093346456693
0
LINE
8
BLACK
6
CONTINUOUS
10
14.1712311811023621
20
-2.490093346456693
11
14.162660944881889
21
-2.4884912598425197
0
LINE
8
BLACK
6
CONTINUOUS
10
14.162660944881889
20
-2.4884912598425197
11
14.1545309842519682
21
-2.4853417322834646
0
LINE
8
BLACK
6
CONTINUOUS
10
14.1545309842519682
20
-2.4853417322834646
11
14.1471181889763784
21
-2.480751929133858
0
LINE
8
BLACK
6
CONTINUOUS
10
14.1471181889763784
20
-2.480751929133858
11
14.1406749999999999
21
-2.4748781496062993
0
LINE
8
BLACK
6
CONTINUOUS
10
14.1406749999999999
20
-2.4748781496062993
11
14.1354207874015749
21
-2.4679204724409449
0
LINE
8
BLACK
6
CONTINUOUS
10
14.1354207874015749
20
-2.4679204724409449
11
14.1315345275590545
21
-2.4601158267716534
0
LINE
8
BLACK
6
CONTINUOUS
10
14.1315345275590545
20
-2.4601158267716534
11
14.1291485433070871
21
-2.4517299212598425
0
LINE
8
BLACK
6
CONTINUOUS
10
14.1291485433070871
20
-2.4517299212598425
11
14.1283440944881882
21
-2.4430484251968503
0
LINE
8
BLACK
6
CONTINUOUS
10
14.1283440944881882
20
-2.4430484251968503
11
14.1291485433070871
21
-2.4343669291338581
0
LINE
8
BLACK
6
CONTINUOUS
10
14.1291485433070871
20
-2.4343669291338581
11
14.1315345275590545
21
-2.4259810236220472
0
LINE
8
BLACK
6
CONTINUOUS
10
14.1315345275590545
20
-2.4259810236220472
11
14.1354207874015749
21
-2.4181763779527556
0
LINE
8
BLACK
6
CONTINUOUS
10
14.1354207874015749
20
-2.4181763779527556
11
14.1406749999999999
21
-2.4112187007874013
0
LINE
8
BLACK
6
CONTINUOUS
10
14.1406749999999999
20
-2.4112187007874013
11
14.1471181889763784
21
-2.4053449212598426
0
LINE
8
BLACK
6
CONTINUOUS
10
14.1471181889763784
20
-2.4053449212598426
11
14.1545309842519682
21
-2.400755118110236
0
LINE
8
BLACK
6
CONTINUOUS
10
14.1545309842519682
20
-2.400755118110236
11
14.162660944881889
21
-2.3976055905511808
0
LINE
8
BLACK
6
CONTINUOUS
10
14.162660944881889
20
-2.3976055905511808
11
14.1712311811023621
21
-2.396003503937008
0
LINE
8
BLACK
6
CONTINUOUS
10
14.1712311811023621
20
-2.396003503937008
11
14.1799499212598423
21
-2.396003503937008
0
LINE
8
BLACK
6
CONTINUOUS
10
14.1799499212598423
20
-2.396003503937008
11
14.1885201574803155
21
-2.3976055905511808
0
LINE
8
BLACK
6
CONTINUOUS
10
14.1328361417322839
20
-2.4510406299212599
11
14.1350326771653538
21
-2.4587606299212599
0
LINE
8
BLACK
6
CONTINUOUS
10
14.1350326771653538
20
-2.4587606299212599
11
14.1386103543307087
21
-2.4659455905511809
0
LINE
8
BLACK
6
CONTINUOUS
10
14.1386103543307087
20
-2.4659455905511809
11
14.1434473622047232
21
-2.4723508267716534
0
LINE
8
BLACK
6
CONTINUOUS
10
14.1434473622047232
20
-2.4723508267716534
11
14.1493789763779532
21
-2.4777581889763778
0
LINE
8
BLACK
6
CONTINUOUS
10
14.1493789763779532
20
-2.4777581889763778
11
14.1562031496062986
21
-2.4819835433070865
0
LINE
8
BLACK
6
CONTINUOUS
10
14.1562031496062986
20
-2.4819835433070865
11
14.1636875984251969
21
-2.484883031496063
0
LINE
8
BLACK
6
CONTINUOUS
10
14.1636875984251969
20
-2.484883031496063
11
14.1715773228346453
21
-2.4863578740157481
0
LINE
8
BLACK
6
CONTINUOUS
10
14.1715773228346453
20
-2.4863578740157481
11
14.1796037795275591
21
-2.4863578740157481
0
LINE
8
BLACK
6
CONTINUOUS
10
14.1796037795275591
20
-2.4863578740157481
11
14.1874935039370076
21
-2.484883031496063
0
LINE
8
BLACK
6
CONTINUOUS
10
14.1874935039370076
20
-2.484883031496063
11
14.1949779527559059
21
-2.4819835433070865
0
LINE
8
BLACK
6
CONTINUOUS
10
14.1949779527559059
20
-2.4819835433070865
11
14.2018021259842513
21
-2.4777581889763778
0
LINE
8
BLACK
6
CONTINUOUS
10
14.2018021259842513
20
-2.4777581889763778
11
14.2077337401574795
21
-2.4723508267716534
0
LINE
8
BLACK
6
CONTINUOUS
10
14.2077337401574795
20
-2.4723508267716534
11
14.2125707480314958
21
-2.4659455905511809
0
LINE
8
BLACK
6
CONTINUOUS
10
14.2125707480314958
20
-2.4659455905511809
11
14.2161484251968506
21
-2.4587606299212599
0
LINE
8
BLACK
6
CONTINUOUS
10
14.2161484251968506
20
-2.4587606299212599
11
14.2183449606299206
21
-2.4510406299212599
0
LINE
8
BLACK
6
CONTINUOUS
10
14.2183449606299206
20
-2.4510406299212599
11
14.2190855511811023
21
-2.4430484251968503
0
LINE
8
BLACK
6
CONTINUOUS
10
14.2190855511811023
20
-2.4430484251968503
11
14.2183449606299206
21
-2.4350562204724411
0
LINE
8
BLACK
6
CONTINUOUS
10
14.2183449606299206
20
-2.4350562204724411
11
14.2161484251968506
21
-2.4273362204724407
0
LINE
8
BLACK
6
CONTINUOUS
10
14.2161484251968506
20
-2.4273362204724407
11
14.2125707480314958
21
-2.4201512598425197
0
LINE
8
BLACK
6
CONTINUOUS
10
14.2125707480314958
20
-2.4201512598425197
11
14.2077337401574795
21
-2.4137460236220472
0
LINE
8
BLACK
6
CONTINUOUS
10
14.2077337401574795
20
-2.4137460236220472
11
14.2018021259842513
21
-2.4083386614173228
0
LINE
8
BLACK
6
CONTINUOUS
10
14.2018021259842513
20
-2.4083386614173228
11
14.1949779527559059
21
-2.4041133070866141
0
LINE
8
BLACK
6
CONTINUOUS
10
14.1949779527559059
20
-2.4041133070866141
11
14.1874935039370076
21
-2.4012138188976375
0
LINE
8
BLACK
6
CONTINUOUS
10
14.1874935039370076
20
-2.4012138188976375
11
14.1796037795275591
21
-2.3997389763779529
0
LINE
8
BLACK
6
CONTINUOUS
10
14.1796037795275591
20
-2.3997389763779529
11
14.1715773228346453
21
-2.3997389763779529
0
LINE
8
BLACK
6
CONTINUOUS
10
14.1715773228346453
20
-2.3997389763779529
11
14.1636875984251969
21
-2.4012138188976375
0
LINE
8
BLACK
6
CONTINUOUS
10
14.1636875984251969
20
-2.4012138188976375
11
14.1562031496062986
21
-2.4041133070866141
0
LINE
8
BLACK
6
CONTINUOUS
10
14.1562031496062986
20
-2.4041133070866141
11
14.1493789763779532
21
-2.4083386614173228
0
LINE
8
BLACK
6
CONTINUOUS
10
14.1493789763779532
20
-2.4083386614173228
11
14.1434473622047232
21
-2.4137460236220472
0
LINE
8
BLACK
6
CONTINUOUS
10
14.1434473622047232
20
-2.4137460236220472
11
14.1386103543307087
21
-2.4201512598425197
0
LINE
8
BLACK
6
CONTINUOUS
10
14.1386103543307087
20
-2.4201512598425197
11
14.1350326771653538
21
-2.4273362204724407
0
LINE
8
BLACK
6
CONTINUOUS
10
14.1350326771653538
20
-2.4273362204724407
11
14.1328361417322839
21
-2.4350562204724411
0
LINE
8
BLACK
6
CONTINUOUS
10
14.1328361417322839
20
-2.4350562204724411
11
14.1320955511811022
21
-2.4430484251968503
0
LINE
8
BLACK
6
CONTINUOUS
10
14.1320955511811022
20
-2.4430484251968503
11
14.1328361417322839
21
-2.4510406299212599
0
LINE
8
BLACK
6
CONTINUOUS
10
1.905055590551181
20
-2.3976044094488187
11
1.9131855511811022
21
-2.4007539370078739
0
LINE
8
BLACK
6
CONTINUOUS
10
1.9131855511811022
20
-2.4007539370078739
11
1.9205983464566929
21
-2.4053437401574804
0
LINE
8
BLACK
6
CONTINUOUS
10
1.9205983464566929
20
-2.4053437401574804
11
1.9270415354330708
21
-2.4112175196850392
0
LINE
8
BLACK
6
CONTINUOUS
10
1.9270415354330708
20
-2.4112175196850392
11
1.932295748031496
21
-2.4181751968503935
0
LINE
8
BLACK
6
CONTINUOUS
10
1.932295748031496
20
-2.4181751968503935
11
1.9361820078740157
21
-2.425979842519685
0
LINE
8
BLACK
6
CONTINUOUS
10
1.9361820078740157
20
-2.425979842519685
11
1.9385679921259842
21
-2.434365748031496
0
LINE
8
BLACK
6
CONTINUOUS
10
1.9385679921259842
20
-2.434365748031496
11
1.9393724409448818
21
-2.4430472440944881
0
LINE
8
BLACK
6
CONTINUOUS
10
1.9393724409448818
20
-2.4430472440944881
11
1.9385679921259842
21
-2.4517287401574803
0
LINE
8
BLACK
6
CONTINUOUS
10
1.9385679921259842
20
-2.4517287401574803
11
1.9361820078740157
21
-2.4601146456692913
0
LINE
8
BLACK
6
CONTINUOUS
10
1.9361820078740157
20
-2.4601146456692913
11
1.932295748031496
21
-2.4679192913385828
0
LINE
8
BLACK
6
CONTINUOUS
10
1.932295748031496
20
-2.4679192913385828
11
1.9270415354330708
21
-2.4748769685039371
0
LINE
8
BLACK
6
CONTINUOUS
10
1.9270415354330708
20
-2.4748769685039371
11
1.9205983464566929
21
-2.4807507480314959
0
LINE
8
BLACK
6
CONTINUOUS
10
1.9205983464566929
20
-2.4807507480314959
11
1.9131855511811022
21
-2.4853405511811024
0
LINE
8
BLACK
6
CONTINUOUS
10
1.9131855511811022
20
-2.4853405511811024
11
1.905055590551181
21
-2.4884900787401576
0
LINE
8
BLACK
6
CONTINUOUS
10
1.905055590551181
20
-2.4884900787401576
11
1.8964853543307085
21
-2.4900921653543309
0
LINE
8
BLACK
6
CONTINUOUS
10
1.8964853543307085
20
-2.4900921653543309
11
1.8877666141732283
21
-2.4900921653543309
0
LINE
8
BLACK
6
CONTINUOUS
10
1.8877666141732283
20
-2.4900921653543309
11
1.8791963779527558
21
-2.4884900787401576
0
LINE
8
BLACK
6
CONTINUOUS
10
1.8791963779527558
20
-2.4884900787401576
11
1.8710664173228346
21
-2.4853405511811024
0
LINE
8
BLACK
6
CONTINUOUS
10
1.8710664173228346
20
-2.4853405511811024
11
1.8636536220472442
21
-2.4807507480314959
0
LINE
8
BLACK
6
CONTINUOUS
10
1.8636536220472442
20
-2.4807507480314959
11
1.8572104330708661
21
-2.4748769685039371
0
LINE
8
BLACK
6
CONTINUOUS
10
1.8572104330708661
20
-2.4748769685039371
11
1.8519562204724409
21
-2.4679192913385828
0
LINE
8
BLACK
6
CONTINUOUS
10
1.8519562204724409
20
-2.4679192913385828
11
1.8480699606299211
21
-2.4601146456692913
0
LINE
8
BLACK
6
CONTINUOUS
10
1.8480699606299211
20
-2.4601146456692913
11
1.8456839763779527
21
-2.4517287401574803
0
LINE
8
BLACK
6
CONTINUOUS
10
1.8456839763779527
20
-2.4517287401574803
11
1.844879527559055
21
-2.4430472440944881
0
LINE
8
BLACK
6
CONTINUOUS
10
1.844879527559055
20
-2.4430472440944881
11
1.8456839763779527
21
-2.434365748031496
0
LINE
8
BLACK
6
CONTINUOUS
10
1.8456839763779527
20
-2.434365748031496
11
1.8480699606299211
21
-2.425979842519685
0
LINE
8
BLACK
6
CONTINUOUS
10
1.8480699606299211
20
-2.425979842519685
11
1.8519562204724409
21
-2.4181751968503935
0
LINE
8
BLACK
6
CONTINUOUS
10
1.8519562204724409
20
-2.4181751968503935
11
1.8572104330708661
21
-2.4112175196850392
0
LINE
8
BLACK
6
CONTINUOUS
10
1.8572104330708661
20
-2.4112175196850392
11
1.8636536220472442
21
-2.4053437401574804
0
LINE
8
BLACK
6
CONTINUOUS
10
1.8636536220472442
20
-2.4053437401574804
11
1.8710664173228346
21
-2.4007539370078739
0
LINE
8
BLACK
6
CONTINUOUS
10
1.8710664173228346
20
-2.4007539370078739
11
1.8791963779527558
21
-2.3976044094488187
0
LINE
8
BLACK
6
CONTINUOUS
10
1.8791963779527558
20
-2.3976044094488187
11
1.8877666141732283
21
-2.3960023228346454
0
LINE
8
BLACK
6
CONTINUOUS
10
1.8877666141732283
20
-2.3960023228346454
11
1.8964853543307085
21
-2.3960023228346454
0
LINE
8
BLACK
6
CONTINUOUS
10
1.8964853543307085
20
-2.3960023228346454
11
1.905055590551181
21
-2.3976044094488187
0
LINE
8
BLACK
6
CONTINUOUS
10
1.8493715748031496
20
-2.4510394488188978
11
1.8515681102362205
21
-2.4587594488188977
0
LINE
8
BLACK
6
CONTINUOUS
10
1.8515681102362205
20
-2.4587594488188977
11
1.8551457874015747
21
-2.4659444094488188
0
LINE
8
BLACK
6
CONTINUOUS
10
1.8551457874015747
20
-2.4659444094488188
11
1.8599827952755905
21
-2.4723496456692913
0
LINE
8
BLACK
6
CONTINUOUS
10
1.8599827952755905
20
-2.4723496456692913
11
1.8659144094488189
21
-2.4777570078740156
0
LINE
8
BLACK
6
CONTINUOUS
10
1.8659144094488189
20
-2.4777570078740156
11
1.8727385826771654
21
-2.4819823622047243
0
LINE
8
BLACK
6
CONTINUOUS
10
1.8727385826771654
20
-2.4819823622047243
11
1.8802230314960628
21
-2.4848818503937009
0
LINE
8
BLACK
6
CONTINUOUS
10
1.8802230314960628
20
-2.4848818503937009
11
1.8881127559055118
21
-2.4863566929133856
0
LINE
8
BLACK
6
CONTINUOUS
10
1.8881127559055118
20
-2.4863566929133856
11
1.8961392125984251
21
-2.4863566929133856
0
LINE
8
BLACK
6
CONTINUOUS
10
1.8961392125984251
20
-2.4863566929133856
11
1.904028937007874
21
-2.4848818503937009
0
LINE
8
BLACK
6
CONTINUOUS
10
1.904028937007874
20
-2.4848818503937009
11
1.9115133858267717
21
-2.4819823622047243
0
LINE
8
BLACK
6
CONTINUOUS
10
1.9115133858267717
20
-2.4819823622047243
11
1.9183375590551182
21
-2.4777570078740156
0
LINE
8
BLACK
6
CONTINUOUS
10
1.9183375590551182
20
-2.4777570078740156
11
1.9242691732283463
21
-2.4723496456692913
0
LINE
8
BLACK
6
CONTINUOUS
10
1.9242691732283463
20
-2.4723496456692913
11
1.9291061811023622
21
-2.4659444094488188
0
LINE
8
BLACK
6
CONTINUOUS
10
1.9291061811023622
20
-2.4659444094488188
11
1.9326838582677164
21
-2.4587594488188977
0
LINE
8
BLACK
6
CONTINUOUS
10
1.9326838582677164
20
-2.4587594488188977
11
1.9348803937007875
21
-2.4510394488188978
0
LINE
8
BLACK
6
CONTINUOUS
10
1.9348803937007875
20
-2.4510394488188978
11
1.9356209842519685
21
-2.4430472440944881
0
LINE
8
BLACK
6
CONTINUOUS
10
1.9356209842519685
20
-2.4430472440944881
11
1.9348803937007875
21
-2.4350550393700785
0
LINE
8
BLACK
6
CONTINUOUS
10
1.9348803937007875
20
-2.4350550393700785
11
1.9326838582677164
21
-2.4273350393700786
0
LINE
8
BLACK
6
CONTINUOUS
10
1.9326838582677164
20
-2.4273350393700786
11
1.9291061811023622
21
-2.4201500787401575
0
LINE
8
BLACK
6
CONTINUOUS
10
1.9291061811023622
20
-2.4201500787401575
11
1.9242691732283463
21
-2.413744842519685
0
LINE
8
BLACK
6
CONTINUOUS
10
1.9242691732283463
20
-2.413744842519685
11
1.9183375590551182
21
-2.4083374803149606
0
LINE
8
BLACK
6
CONTINUOUS
10
1.9183375590551182
20
-2.4083374803149606
11
1.9115133858267717
21
-2.4041121259842519
0
LINE
8
BLACK
6
CONTINUOUS
10
1.9115133858267717
20
-2.4041121259842519
11
1.904028937007874
21
-2.4012126377952754
0
LINE
8
BLACK
6
CONTINUOUS
10
1.904028937007874
20
-2.4012126377952754
11
1.8961392125984251
21
-2.3997377952755903
0
LINE
8
BLACK
6
CONTINUOUS
10
1.8961392125984251
20
-2.3997377952755903
11
1.8881127559055118
21
-2.3997377952755903
0
LINE
8
BLACK
6
CONTINUOUS
10
1.8881127559055118
20
-2.3997377952755903
11
1.8802230314960628
21
-2.4012126377952754
0
LINE
8
BLACK
6
CONTINUOUS
10
1.8802230314960628
20
-2.4012126377952754
11
1.8727385826771654
21
-2.4041121259842519
0
LINE
8
BLACK
6
CONTINUOUS
10
1.8727385826771654
20
-2.4041121259842519
11
1.8659144094488189
21
-2.4083374803149606
0
LINE
8
BLACK
6
CONTINUOUS
10
1.8659144094488189
20
-2.4083374803149606
11
1.8599827952755905
21
-2.413744842519685
0
LINE
8
BLACK
6
CONTINUOUS
10
1.8599827952755905
20
-2.413744842519685
11
1.8551457874015747
21
-2.4201500787401575
0
LINE
8
BLACK
6
CONTINUOUS
10
1.8551457874015747
20
-2.4201500787401575
11
1.8515681102362205
21
-2.4273350393700786
0
LINE
8
BLACK
6
CONTINUOUS
10
1.8515681102362205
20
-2.4273350393700786
11
1.8493715748031496
21
-2.4350550393700785
0
LINE
8
BLACK
6
CONTINUOUS
10
1.8493715748031496
20
-2.4350550393700785
11
1.8486309842519684
21
-2.4430472440944881
0
LINE
8
BLACK
6
CONTINUOUS
10
1.8486309842519684
20
-2.4430472440944881
11
1.8493715748031496
21
-2.4510394488188978
0
LINE
8
BLACK
6
CONTINUOUS
10
14.1755905511811022
20
-2.2845837401574802
11
14.1902117716535425
21
-2.2852597244094488
0
LINE
8
BLACK
6
CONTINUOUS
10
14.1902117716535425
20
-2.2852597244094488
11
14.2047082677165353
21
-2.2872818897637797
0
LINE
8
BLACK
6
CONTINUOUS
10
14.2047082677165353
20
-2.2872818897637797
11
14.2189563385826769
21
-2.2906330314960628
0
LINE
8
BLACK
6
CONTINUOUS
10
14.2189563385826769
20
-2.2906330314960628
11
14.2328344094488184
21
-2.2952845275590552
0
LINE
8
BLACK
6
CONTINUOUS
10
14.2328344094488184
20
-2.2952845275590552
11
14.2462240944881895
21
-2.301196653543307
0
LINE
8
BLACK
6
CONTINUOUS
10
14.2462240944881895
20
-2.301196653543307
11
14.2590111417322838
21
-2.3083190551181101
0
LINE
8
BLACK
6
CONTINUOUS
10
14.2590111417322838
20
-2.3083190551181101
11
14.271086496062992
21
-2.316590905511811
0
LINE
8
BLACK
6
CONTINUOUS
10
14.271086496062992
20
-2.316590905511811
11
14.2823470866141733
21
-2.3259416535433068
0
LINE
8
BLACK
6
CONTINUOUS
10
14.2823470866141733
20
-2.3259416535433068
11
14.2926968897637785
21
-2.3362914960629921
0
LINE
8
BLACK
6
CONTINUOUS
10
14.2926968897637785
20
-2.3362914960629921
11
14.3020475196850398
21
-2.3475521653543305
0
LINE
8
BLACK
6
CONTINUOUS
10
14.3020475196850398
20
-2.3475521653543305
11
14.3103192913385815
21
-2.3596275590551179
0
LINE
8
BLACK
6
CONTINUOUS
10
14.3103192913385815
20
-2.3596275590551179
11
14.3174416141732284
21
-2.3724146456692914
0
LINE
8
BLACK
6
CONTINUOUS
10
14.3174416141732284
20
-2.3724146456692914
11
14.3233536614173218
21
-2.3858043700787399
0
LINE
8
BLACK
6
CONTINUOUS
10
14.3233536614173218
20
-2.3858043700787399
11
14.328005039370078
21
-2.3996824803149606
0
LINE
8
BLACK
6
CONTINUOUS
10
14.328005039370078
20
-2.3996824803149606
11
14.3313561023622036
21
-2.413930590551181
0
LINE
8
BLACK
6
CONTINUOUS
10
14.3313561023622036
20
-2.413930590551181
11
14.3333781889763774
21
-2.4284270866141733
0
LINE
8
BLACK
6
CONTINUOUS
10
14.3333781889763774
20
-2.4284270866141733
11
14.3340537007874005
21
-2.443041338582677
0
LINE
8
BLACK
6
CONTINUOUS
10
14.3340537007874005
20
-2.443041338582677
11
14.3340551181102356
21
-2.443048307086614
0
LINE
8
BLACK
6
CONTINUOUS
10
14.3340551181102356
20
-2.443048307086614
11
14.3340551181102356
21
-6.1178514566929136
0
LINE
8
BLACK
6
CONTINUOUS
10
14.3340551181102356
20
-6.1178514566929136
11
14.3333790551181099
21
-6.1324726771653539
0
LINE
8
BLACK
6
CONTINUOUS
10
14.3333790551181099
20
-6.1324726771653539
11
14.3313567716535424
21
-6.1469690944881892
0
LINE
8
BLACK
6
CONTINUOUS
10
14.3313567716535424
20
-6.1469690944881892
11
14.3280055905511805
21
-6.1612171259842521
0
LINE
8
BLACK
6
CONTINUOUS
10
14.3280055905511805
20
-6.1612171259842521
11
14.3233540551181093
21
-6.1750951574803148
0
LINE
8
BLACK
6
CONTINUOUS
10
14.3233540551181093
20
-6.1750951574803148
11
14.3174418897637796
21
-6.1884848031496063
0
LINE
8
BLACK
6
CONTINUOUS
10
14.3174418897637796
20
-6.1884848031496063
11
14.3103194881889753
21
-6.2012718110236218
0
LINE
8
BLACK
6
CONTINUOUS
10
14.3103194881889753
20
-6.2012718110236218
11
14.3020476377952761
21
-6.2133471259842521
0
LINE
8
BLACK
6
CONTINUOUS
10
14.3020476377952761
20
-6.2133471259842521
11
14.2926968897637785
21
-6.2246077165354325
0
LINE
8
BLACK
6
CONTINUOUS
10
14.2926968897637785
20
-6.2246077165354325
11
14.2823470866141733
21
-6.2349574803149608
0
LINE
8
BLACK
6
CONTINUOUS
10
14.2823470866141733
20
-6.2349574803149608
11
14.2710864173228344
21
-6.2443081102362203
0
LINE
8
BLACK
6
CONTINUOUS
10
14.2710864173228344
20
-6.2443081102362203
11
14.2590110629921263
21
-6.2525798818897638
0
LINE
8
BLACK
6
CONTINUOUS
10
14.2590110629921263
20
-6.2525798818897638
11
14.246224015748032
21
-6.2597022047244097
0
LINE
8
BLACK
6
CONTINUOUS
10
14.246224015748032
20
-6.2597022047244097
11
14.2328343307086609
21
-6.2656142913385828
0
LINE
8
BLACK
6
CONTINUOUS
10
14.2328343307086609
20
-6.2656142913385828
11
14.2189562598425194
21
-6.2702657480314956
0
LINE
8
BLACK
6
CONTINUOUS
10
14.2189562598425194
20
-6.2702657480314956
11
14.2047082283464565
21
-6.2736168110236221
0
LINE
8
BLACK
6
CONTINUOUS
10
14.2047082283464565
20
-6.2736168110236221
11
14.1902117716535425
21
-6.2756389763779525
0
LINE
8
BLACK
6
CONTINUOUS
10
14.1902117716535425
20
-6.2756389763779525
11
14.1755974803149609
21
-6.2763146062992128
0
LINE
8
BLACK
6
CONTINUOUS
10
14.1755974803149609
20
-6.2763146062992128
11
14.1755905511811022
21
-6.276316023622047
0
LINE
8
BLACK
6
CONTINUOUS
10
14.1755905511811022
20
-6.276316023622047
11
1.8921259842519684
21
-6.276316023622047
0
LINE
8
BLACK
6
CONTINUOUS
10
1.8921259842519684
20
-6.276316023622047
11
1.87750468503937
21
-6.2756400393700789
0
LINE
8
BLACK
6
CONTINUOUS
10
1.87750468503937
20
-6.2756400393700789
11
1.8630081102362204
21
-6.2736178740157476
0
LINE
8
BLACK
6
CONTINUOUS
10
1.8630081102362204
20
-6.2736178740157476
11
1.84876
21
-6.2702667322834644
0
LINE
8
BLACK
6
CONTINUOUS
10
1.84876
20
-6.2702667322834644
11
1.8348818503937008
21
-6.2656152755905508
0
LINE
8
BLACK
6
CONTINUOUS
10
1.8348818503937008
20
-6.2656152755905508
11
1.8214920472440945
21
-6.2597031496062989
0
LINE
8
BLACK
6
CONTINUOUS
10
1.8214920472440945
20
-6.2597031496062989
11
1.8087048818897637
21
-6.2525807874015751
0
LINE
8
BLACK
6
CONTINUOUS
10
1.8087048818897637
20
-6.2525807874015751
11
1.7966294488188976
21
-6.2443089763779529
0
LINE
8
BLACK
6
CONTINUOUS
10
1.7966294488188976
20
-6.2443089763779529
11
1.7853687401574803
21
-6.2349582283464562
0
LINE
8
BLACK
6
CONTINUOUS
10
1.7853687401574803
20
-6.2349582283464562
11
1.7750188582677164
21
-6.2246084251968501
0
LINE
8
BLACK
6
CONTINUOUS
10
1.7750188582677164
20
-6.2246084251968501
11
1.7656680708661416
21
-6.2133477559055112
0
LINE
8
BLACK
6
CONTINUOUS
10
1.7656680708661416
20
-6.2133477559055112
11
1.7573961417322834
21
-6.2012724015748031
0
LINE
8
BLACK
6
CONTINUOUS
10
1.7573961417322834
20
-6.2012724015748031
11
1.7502737007874016
21
-6.1884852755905513
0
LINE
8
BLACK
6
CONTINUOUS
10
1.7502737007874016
20
-6.1884852755905513
11
1.7443614960629921
21
-6.1750955511811023
0
LINE
8
BLACK
6
CONTINUOUS
10
1.7443614960629921
20
-6.1750955511811023
11
1.7397099212598426
21
-6.1612174015748034
0
LINE
8
BLACK
6
CONTINUOUS
10
1.7397099212598426
20
-6.1612174015748034
11
1.7363587007874015
21
-6.1469692913385829
0
LINE
8
BLACK
6
CONTINUOUS
10
1.7363587007874015
20
-6.1469692913385829
11
1.7343364173228346
21
-6.1324727559055114
0
LINE
8
BLACK
6
CONTINUOUS
10
1.7343364173228346
20
-6.1324727559055114
11
1.7336603543307085
21
-6.1178514566929136
0
LINE
8
BLACK
6
CONTINUOUS
10
1.7336603543307085
20
-6.1178514566929136
11
1.7336614173228346
21
-6.1178514566929136
0
LINE
8
BLACK
6
CONTINUOUS
10
1.7336614173228346
20
-6.1178514566929136
11
1.7336614173228346
21
-2.443048307086614
0
LINE
8
BLACK
6
CONTINUOUS
10
1.7336614173228346
20
-2.443048307086614
11
1.7343372440944882
21
-2.4284270078740158
0
LINE
8
BLACK
6
CONTINUOUS
10
1.7343372440944882
20
-2.4284270078740158
11
1.7363592913385826
21
-2.413930433070866
0
LINE
8
BLACK
6
CONTINUOUS
10
1.7363592913385826
20
-2.413930433070866
11
1.7397103149606299
21
-2.399682244094488
0
LINE
8
BLACK
6
CONTINUOUS
10
1.7397103149606299
20
-2.399682244094488
11
1.7443616929133858
21
-2.3858040551181103
0
LINE
8
BLACK
6
CONTINUOUS
10
1.7443616929133858
20
-2.3858040551181103
11
1.7502737795275589
21
-2.3724142519685039
0
LINE
8
BLACK
6
CONTINUOUS
10
1.7502737795275589
20
-2.3724142519685039
11
1.7573961417322834
21
-2.3596270866141733
0
LINE
8
BLACK
6
CONTINUOUS
10
1.7573961417322834
20
-2.3596270866141733
11
1.7656679527559054
21
-2.3475516141732284
0
LINE
8
BLACK
6
CONTINUOUS
10
1.7656679527559054
20
-2.3475516141732284
11
1.7750187007874014
21
-2.3362909448818896
0
LINE
8
BLACK
6
CONTINUOUS
10
1.7750187007874014
20
-2.3362909448818896
11
1.7853685826771653
21
-2.325941062992126
0
LINE
8
BLACK
6
CONTINUOUS
10
1.7853685826771653
20
-2.325941062992126
11
1.7966292913385826
21
-2.3165903149606297
0
LINE
8
BLACK
6
CONTINUOUS
10
1.7966292913385826
20
-2.3165903149606297
11
1.8087047244094487
21
-2.308318503937008
0
LINE
8
BLACK
6
CONTINUOUS
10
1.8087047244094487
20
-2.308318503937008
11
1.8214919291338583
21
-2.301196181102362
0
LINE
8
BLACK
6
CONTINUOUS
10
1.8214919291338583
20
-2.301196181102362
11
1.8348817322834645
21
-2.2952840944881889
0
LINE
8
BLACK
6
CONTINUOUS
10
1.8348817322834645
20
-2.2952840944881889
11
1.8487599212598425
21
-2.2906327165354332
0
LINE
8
BLACK
6
CONTINUOUS
10
1.8487599212598425
20
-2.2906327165354332
11
1.8630081102362204
21
-2.2872816929133859
0
LINE
8
BLACK
6
CONTINUOUS
10
1.8630081102362204
20
-2.2872816929133859
11
1.87750468503937
21
-2.28525968503937
0
LINE
8
BLACK
6
CONTINUOUS
10
1.87750468503937
20
-2.28525968503937
11
1.8921251968503936
21
-2.2845838582677165
0
LINE
8
BLACK
6
CONTINUOUS
10
1.8921251968503936
20
-2.2845838582677165
11
1.8921259842519684
21
-2.2845837401574802
0
LINE
8
BLACK
6
CONTINUOUS
10
1.8921259842519684
20
-2.2845837401574802
11
14.1755905511811022
21
-2.2845837401574802
0
LINE
8
BLACK
6
CONTINUOUS
10
1.8921259842519684
20
-2.2865522440944881
11
1.8921259842519684
21
-2.2865523622047244
0
LINE
8
BLACK
6
CONTINUOUS
10
1.8921259842519684
20
-2.2865523622047244
11
1.8848907086614173
21
-2.2865522834645668
0
LINE
8
BLACK
6
CONTINUOUS
10
1.8848907086614173
20
-2.2865522834645668
11
1.8704818897637794
21
-2.2878872834645669
0
LINE
8
BLACK
6
CONTINUOUS
10
1.8704818897637794
20
-2.2878872834645669
11
1.8562576771653543
21
-2.2905461023622045
0
LINE
8
BLACK
6
CONTINUOUS
10
1.8562576771653543
20
-2.2905461023622045
11
1.8423395275590551
21
-2.2945060236220471
0
LINE
8
BLACK
6
CONTINUOUS
10
1.8423395275590551
20
-2.2945060236220471
11
1.8288461023622047
21
-2.2997333070866142
0
LINE
8
BLACK
6
CONTINUOUS
10
1.8288461023622047
20
-2.2997333070866142
11
1.8158925984251968
21
-2.3061833070866142
0
LINE
8
BLACK
6
CONTINUOUS
10
1.8158925984251968
20
-2.3061833070866142
11
1.8035894488188975
21
-2.3138010236220472
0
LINE
8
BLACK
6
CONTINUOUS
10
1.8035894488188975
20
-2.3138010236220472
11
1.7920416929133858
21
-2.3225214566929133
0
LINE
8
BLACK
6
CONTINUOUS
10
1.7920416929133858
20
-2.3225214566929133
11
1.7813478346456693
21
-2.3322701574803149
0
LINE
8
BLACK
6
CONTINUOUS
10
1.7813478346456693
20
-2.3322701574803149
11
1.771599094488189
21
-2.3429640551181103
0
LINE
8
BLACK
6
CONTINUOUS
10
1.771599094488189
20
-2.3429640551181103
11
1.7628786614173229
21
-2.3545118110236221
0
LINE
8
BLACK
6
CONTINUOUS
10
1.7628786614173229
20
-2.3545118110236221
11
1.7552609448818897
21
-2.3668149212598424
0
LINE
8
BLACK
6
CONTINUOUS
10
1.7552609448818897
20
-2.3668149212598424
11
1.7488109055118111
21
-2.3797684645669293
0
LINE
8
BLACK
6
CONTINUOUS
10
1.7488109055118111
20
-2.3797684645669293
11
1.743583622047244
21
-2.3932618503937007
0
LINE
8
BLACK
6
CONTINUOUS
10
1.743583622047244
20
-2.3932618503937007
11
1.7396237007874016
21
-2.4071800393700786
0
LINE
8
BLACK
6
CONTINUOUS
10
1.7396237007874016
20
-2.4071800393700786
11
1.7369648425196851
21
-2.421404212598425
0
LINE
8
BLACK
6
CONTINUOUS
10
1.7369648425196851
20
-2.421404212598425
11
1.735629842519685
21
-2.4358130314960631
0
LINE
8
BLACK
6
CONTINUOUS
10
1.735629842519685
20
-2.4358130314960631
11
1.7356299212598425
21
-2.443048307086614
0
LINE
8
BLACK
6
CONTINUOUS
10
1.7356299212598425
20
-2.443048307086614
11
1.7356299212598425
21
-6.1178514566929136
0
LINE
8
BLACK
6
CONTINUOUS
10
1.7356299212598425
20
-6.1178514566929136
11
1.7356288582677164
21
-6.1178567716535435
0
LINE
8
BLACK
6
CONTINUOUS
10
1.7356288582677164
20
-6.1178567716535435
11
1.7356288976377952
21
-6.1250867322834646
0
LINE
8
BLACK
6
CONTINUOUS
10
1.7356288976377952
20
-6.1250867322834646
11
1.7369641732283465
21
-6.139495511811023
0
LINE
8
BLACK
6
CONTINUOUS
10
1.7369641732283465
20
-6.139495511811023
11
1.739623188976378
21
-6.1537196456692911
0
LINE
8
BLACK
6
CONTINUOUS
10
1.739623188976378
20
-6.1537196456692911
11
1.7435833464566928
21
-6.1676377559055116
0
LINE
8
BLACK
6
CONTINUOUS
10
1.7435833464566928
20
-6.1676377559055116
11
1.7488107480314961
21
-6.1811311023622046
0
LINE
8
BLACK
6
CONTINUOUS
10
1.7488107480314961
20
-6.1811311023622046
11
1.7552609055118109
21
-6.194084566929134
0
LINE
8
BLACK
6
CONTINUOUS
10
1.7552609055118109
20
-6.194084566929134
11
1.7628787007874016
21
-6.2063876377952756
0
LINE
8
BLACK
6
CONTINUOUS
10
1.7628787007874016
20
-6.2063876377952756
11
1.7715992125984252
21
-6.2179353149606298
0
LINE
8
BLACK
6
CONTINUOUS
10
1.7715992125984252
20
-6.2179353149606298
11
1.7813479921259843
21
-6.2286291338582673
0
LINE
8
BLACK
6
CONTINUOUS
10
1.7813479921259843
20
-6.2286291338582673
11
1.7920418503937008
21
-6.2383778346456689
0
LINE
8
BLACK
6
CONTINUOUS
10
1.7920418503937008
20
-6.2383778346456689
11
1.8035896062992125
21
-6.2470982677165354
0
LINE
8
BLACK
6
CONTINUOUS
10
1.8035896062992125
20
-6.2470982677165354
11
1.8158927559055118
21
-6.254715984251968
0
LINE
8
BLACK
6
CONTINUOUS
10
1.8158927559055118
20
-6.254715984251968
11
1.8288462598425197
21
-6.2611660236220468
0
LINE
8
BLACK
6
CONTINUOUS
10
1.8288462598425197
20
-6.2611660236220468
11
1.8423396062992126
21
-6.2663933858267713
0
LINE
8
BLACK
6
CONTINUOUS
10
1.8423396062992126
20
-6.2663933858267713
11
1.8562577559055118
21
-6.2703534251968502
0
LINE
8
BLACK
6
CONTINUOUS
10
1.8562577559055118
20
-6.2703534251968502
11
1.8704818897637794
21
-6.2730123622047245
0
LINE
8
BLACK
6
CONTINUOUS
10
1.8704818897637794
20
-6.2730123622047245
11
1.8848907086614173
21
-6.2743475196850396
0
LINE
8
BLACK
6
CONTINUOUS
10
1.8848907086614173
20
-6.2743475196850396
11
1.8921259842519684
21
-6.2743475196850396
0
LINE
8
BLACK
6
CONTINUOUS
10
1.8921259842519684
20
-6.2743475196850396
11
14.1755905511811022
21
-6.2743475196850396
0
LINE
8
BLACK
6
CONTINUOUS
10
14.1755905511811022
20
-6.2743475196850396
11
14.1755905511811022
21
-6.2743464566929132
0
LINE
8
BLACK
6
CONTINUOUS
10
14.1755905511811022
20
-6.2743464566929132
11
14.1828257874015744
21
-6.2743464566929132
0
LINE
8
BLACK
6
CONTINUOUS
10
14.1828257874015744
20
-6.2743464566929132
11
14.1972344881889754
21
-6.2730112992125981
0
LINE
8
BLACK
6
CONTINUOUS
10
14.1972344881889754
20
-6.2730112992125981
11
14.2114585433070868
21
-6.2703523622047239
0
LINE
8
BLACK
6
CONTINUOUS
10
14.2114585433070868
20
-6.2703523622047239
11
14.2253765748031498
21
-6.2663923622047246
0
LINE
8
BLACK
6
CONTINUOUS
10
14.2253765748031498
20
-6.2663923622047246
11
14.2388698818897641
21
-6.2611650787401576
0
LINE
8
BLACK
6
CONTINUOUS
10
14.2388698818897641
20
-6.2611650787401576
11
14.2518232677165351
21
-6.2547150787401575
0
LINE
8
BLACK
6
CONTINUOUS
10
14.2518232677165351
20
-6.2547150787401575
11
14.2641262992125988
21
-6.2470974015748029
0
LINE
8
BLACK
6
CONTINUOUS
10
14.2641262992125988
20
-6.2470974015748029
11
14.2756739763779521
21
-6.2383770472440947
0
LINE
8
BLACK
6
CONTINUOUS
10
14.2756739763779521
20
-6.2383770472440947
11
14.2863677952755896
21
-6.2286283858267719
0
LINE
8
BLACK
6
CONTINUOUS
10
14.2863677952755896
20
-6.2286283858267719
11
14.2961165354330699
21
-6.217934645669291
0
LINE
8
BLACK
6
CONTINUOUS
10
14.2961165354330699
20
-6.217934645669291
11
14.3048369685039365
21
-6.2063870472440943
0
LINE
8
BLACK
6
CONTINUOUS
10
14.3048369685039365
20
-6.2063870472440943
11
14.3124547244094487
21
-6.1940840551181102
0
LINE
8
BLACK
6
CONTINUOUS
10
14.3124547244094487
20
-6.1940840551181102
11
14.3189048031496053
21
-6.1811306692913384
0
LINE
8
BLACK
6
CONTINUOUS
10
14.3189048031496053
20
-6.1811306692913384
11
14.3241322047244086
21
-6.1676374015748028
0
LINE
8
BLACK
6
CONTINUOUS
10
14.3241322047244086
20
-6.1676374015748028
11
14.3280922834645672
21
-6.1537194094488186
0
LINE
8
BLACK
6
CONTINUOUS
10
14.3280922834645672
20
-6.1537194094488186
11
14.3307512992125989
21
-6.1394953543307089
0
LINE
8
BLACK
6
CONTINUOUS
10
14.3307512992125989
20
-6.1394953543307089
11
14.3320865748031494
21
-6.1250866535433071
0
LINE
8
BLACK
6
CONTINUOUS
10
14.3320865748031494
20
-6.1250866535433071
11
14.3320866141732282
21
-6.1178514566929136
0
LINE
8
BLACK
6
CONTINUOUS
10
14.3320866141732282
20
-6.1178514566929136
11
14.3320866141732282
21
-2.443048307086614
0
LINE
8
BLACK
6
CONTINUOUS
10
14.3320866141732282
20
-2.443048307086614
11
14.3320855511811018
21
-2.443048307086614
0
LINE
8
BLACK
6
CONTINUOUS
10
14.3320855511811018
20
-2.443048307086614
11
14.3320855905511806
21
-2.4358130708661418
0
LINE
8
BLACK
6
CONTINUOUS
10
14.3320855905511806
20
-2.4358130708661418
11
14.3307505118110239
21
-2.4214043307086612
0
LINE
8
BLACK
6
CONTINUOUS
10
14.3307505118110239
20
-2.4214043307086612
11
14.3280916535433072
21
-2.4071802362204724
0
LINE
8
BLACK
6
CONTINUOUS
10
14.3280916535433072
20
-2.4071802362204724
11
14.3241317322834636
21
-2.3932621653543307
0
LINE
8
BLACK
6
CONTINUOUS
10
14.3241317322834636
20
-2.3932621653543307
11
14.3189044488188966
21
-2.3797688188976376
0
LINE
8
BLACK
6
CONTINUOUS
10
14.3189044488188966
20
-2.3797688188976376
11
14.3124544881889761
21
-2.3668153543307087
0
LINE
8
BLACK
6
CONTINUOUS
10
14.3124544881889761
20
-2.3668153543307087
11
14.3048368110236215
21
-2.3545122834645671
0
LINE
8
BLACK
6
CONTINUOUS
10
14.3048368110236215
20
-2.3545122834645671
11
14.2961164566929124
21
-2.3429645669291337
0
LINE
8
BLACK
6
CONTINUOUS
10
14.2961164566929124
20
-2.3429645669291337
11
14.2863677952755896
21
-2.3322707480314961
0
LINE
8
BLACK
6
CONTINUOUS
10
14.2863677952755896
20
-2.3322707480314961
11
14.2756740157480309
21
-2.3225220078740159
0
LINE
8
BLACK
6
CONTINUOUS
10
14.2756740157480309
20
-2.3225220078740159
11
14.2641263779527563
21
-2.3138015748031497
0
LINE
8
BLACK
6
CONTINUOUS
10
14.2641263779527563
20
-2.3138015748031497
11
14.2518233464566926
21
-2.3061838188976376
0
LINE
8
BLACK
6
CONTINUOUS
10
14.2518233464566926
20
-2.3061838188976376
11
14.2388699606299216
21
-2.2997337795275592
0
LINE
8
BLACK
6
CONTINUOUS
10
14.2388699606299216
20
-2.2997337795275592
11
14.2253766535433073
21
-2.2945064173228347
0
LINE
8
BLACK
6
CONTINUOUS
10
14.2253766535433073
20
-2.2945064173228347
11
14.2114585826771656
21
-2.2905463779527557
0
LINE
8
BLACK
6
CONTINUOUS
10
14.2114585826771656
20
-2.2905463779527557
11
14.1972345275590541
21
-2.2878874015748032
0
LINE
8
BLACK
6
CONTINUOUS
10
14.1972345275590541
20
-2.2878874015748032
11
14.1828257874015744
21
-2.2865522440944881
0
LINE
8
BLACK
6
CONTINUOUS
10
14.1828257874015744
20
-2.2865522440944881
11
14.1755905511811022
21
-2.2865522440944881
0
LINE
8
BLACK
6
CONTINUOUS
10
14.1755905511811022
20
-2.2865522440944881
11
1.8921259842519684
21
-2.2865522440944881
  0
ENDSEC
  0
EOF
