  0
SECTION
  2
HEADER
  9
$ANGBASE
  50
0.0
  9
$ANGDIR
  70
1
  9
$MEASUREMENT
  70
0
  0
ENDSEC
  0
SECTION
  2
TABLES
  0
TABLE
  2
LTYPE
  70
4
  0
LTYPE
  5
40F
  2
CONTINUOUS
  70
0
  3
Solid line
  72
65
  73
0
  40
0.0
  0
LTYPE
  5
410
  2
DASHDOT
 70
0
  3
Dash Dot ____ _ ____ _
 72
65
 73
4
 40
2.0
 49
1.25
 49
-0.25
 49
0.25
 49
-0.25
  0
LTYPE
  5
411
  2
DASHED
 70
0
  3
Dashed __ __ __ __ __
 72
65
 73
2
 40
0.75
 49
0.5
 49
-0.25
  0
LTYPE
  5
43B
  2
DOTTED
 70
0
  3
Dotted .  .  .  .
 72
65
 73
2
 40
0.2
 49
0.0
 49
-0.2
  0
ENDTAB
  0
TABLE
  2
STYLE
  70
4
  0
STYLE
  2
KICAD
  70
0
  40
0
  41
1
  42
1
  50
0
  71
0
  3
isocp.shx
  0
STYLE
  2
KICADB
  70
0
  40
0
  41
1
  42
1
  50
0
  71
0
  3
isocp.shx
  0
STYLE
  2
KICADI
  70
0
  40
0
  41
1
  42
1
  50
15
  71
0
  3
isocp.shx
  0
STYLE
  2
KICADBI
  70
0
  40
0
  41
1
  42
1
  50
15
  71
0
  3
isocp.shx
  0
ENDTAB
  0
TABLE
  2
LAYER
  70
1
  0
LAYER
  2
BLACK
  70
0
  62
7
  6
CONTINUOUS
  0
ENDTAB
  0
ENDSEC
  0
SECTION
  2
ENTITIES
0
LINE
8
BLACK
6
CONTINUOUS
10
13.2182075196850395
20
-3.2674373622047241
11
13.2182157086614165
21
-3.2674558661417321
0
LINE
8
BLACK
6
CONTINUOUS
10
13.2182157086614165
20
-3.2674558661417321
11
13.2292965748031488
21
-3.2941145275590551
0
LINE
8
BLACK
6
CONTINUOUS
10
13.2292965748031488
20
-3.2941145275590551
11
13.2292970078740151
21
-3.2944670866141732
0
LINE
8
BLACK
6
CONTINUOUS
10
13.2292970078740151
20
-3.2944670866141732
11
13.2292965748031488
21
-3.2944681496062991
0
LINE
8
BLACK
6
CONTINUOUS
10
13.2292965748031488
20
-3.2944681496062991
11
13.2182157086614165
21
-3.3211267716535433
0
LINE
8
BLACK
6
CONTINUOUS
10
13.2182157086614165
20
-3.3211267716535433
11
13.2179661023622046
21
-3.321375748031496
0
LINE
8
BLACK
6
CONTINUOUS
10
13.2179661023622046
20
-3.321375748031496
11
13.2176135433070865
21
-3.3213753149606298
0
LINE
8
BLACK
6
CONTINUOUS
10
13.2176135433070865
20
-3.3213753149606298
11
13.2175950393700781
21
-3.3213671259842519
0
LINE
8
BLACK
6
CONTINUOUS
10
13.2175950393700781
20
-3.3213671259842519
11
13.1705409055118103
21
-3.2993368110236219
0
LINE
8
BLACK
6
CONTINUOUS
10
13.1705409055118103
20
-3.2993368110236219
11
13.1703031102362207
21
-3.2990765354330707
0
LINE
8
BLACK
6
CONTINUOUS
10
13.1703031102362207
20
-3.2990765354330707
11
13.1702755905511815
21
-3.2989196456692911
0
LINE
8
BLACK
6
CONTINUOUS
10
13.1702755905511815
20
-3.2989196456692911
11
13.1702755905511815
21
-3.2896629921259843
0
LINE
8
BLACK
6
CONTINUOUS
10
13.1702755905511815
20
-3.2896629921259843
11
13.1704105118110242
21
-3.2893372834645667
0
LINE
8
BLACK
6
CONTINUOUS
10
13.1704105118110242
20
-3.2893372834645667
11
13.1705407480314953
21
-3.2892459055118111
0
LINE
8
BLACK
6
CONTINUOUS
10
13.1705407480314953
20
-3.2892459055118111
11
13.2175950393700781
21
-3.2672154724409448
0
LINE
8
BLACK
6
CONTINUOUS
10
13.2175950393700781
20
-3.2672154724409448
11
13.2179472440944874
21
-3.2671995669291336
0
LINE
8
BLACK
6
CONTINUOUS
10
13.2179472440944874
20
-3.2671995669291336
11
13.2182075196850395
21
-3.2674373622047241
0
LINE
8
BLACK
6
CONTINUOUS
10
14.00759968503937
20
-2.3052785433070864
11
14.0207451968503936
21
-2.3059243700787402
0
LINE
8
BLACK
6
CONTINUOUS
10
14.0207451968503936
20
-2.3059243700787402
11
14.0212218897637797
21
-2.3059712992125982
0
LINE
8
BLACK
6
CONTINUOUS
10
14.0212218897637797
20
-2.3059712992125982
11
14.0341220472440948
21
-2.3078848818897639
0
LINE
8
BLACK
6
CONTINUOUS
10
14.0341220472440948
20
-2.3078848818897639
11
14.0345911023622048
21
-2.307978188976378
0
LINE
8
BLACK
6
CONTINUOUS
10
14.0345911023622048
20
-2.307978188976378
11
14.0472420472440938
21
-2.3111470866141732
0
LINE
8
BLACK
6
CONTINUOUS
10
14.0472420472440938
20
-2.3111470866141732
11
14.0477001181102352
21
-2.3112860629921261
0
LINE
8
BLACK
6
CONTINUOUS
10
14.0477001181102352
20
-2.3112860629921261
11
14.0599790944881882
21
-2.3156795669291337
0
LINE
8
BLACK
6
CONTINUOUS
10
14.0599790944881882
20
-2.3156795669291337
11
14.0604205905511801
21
-2.315862440944882
0
LINE
8
BLACK
6
CONTINUOUS
10
14.0604205905511801
20
-2.315862440944882
11
14.0722105511811026
21
-2.3214387007874016
0
LINE
8
BLACK
6
CONTINUOUS
10
14.0722105511811026
20
-2.3214387007874016
11
14.0726329133858261
21
-2.3216644881889765
0
LINE
8
BLACK
6
CONTINUOUS
10
14.0726329133858261
20
-2.3216644881889765
11
14.083818110236221
21
-2.3283686614173229
0
LINE
8
BLACK
6
CONTINUOUS
10
14.083818110236221
20
-2.3283686614173229
11
14.0842164566929124
21
-2.3286348425196848
0
LINE
8
BLACK
6
CONTINUOUS
10
14.0842164566929124
20
-2.3286348425196848
11
14.0946911417322838
21
-2.3364034645669292
0
LINE
8
BLACK
6
CONTINUOUS
10
14.0946911417322838
20
-2.3364034645669292
11
14.095061496062991
21
-2.3367073622047245
0
LINE
8
BLACK
6
CONTINUOUS
10
14.095061496062991
20
-2.3367073622047245
11
14.0950617716535422
21
-2.3367075984251966
0
LINE
8
BLACK
6
CONTINUOUS
10
14.0950617716535422
20
-2.3367075984251966
11
14.1047242519685039
21
-2.3454652362204724
0
LINE
8
BLACK
6
CONTINUOUS
10
14.1047242519685039
20
-2.3454652362204724
11
14.1047244094488189
21
-2.3454653543307087
0
LINE
8
BLACK
6
CONTINUOUS
10
14.1047244094488189
20
-2.3454653543307087
11
14.1050631496062984
21
-2.3458041338582678
0
LINE
8
BLACK
6
CONTINUOUS
10
14.1050631496062984
20
-2.3458041338582678
11
14.113820748031495
21
-2.3554666929133856
0
LINE
8
BLACK
6
CONTINUOUS
10
14.113820748031495
20
-2.3554666929133856
11
14.1141246850393696
21
-2.3558370472440946
0
LINE
8
BLACK
6
CONTINUOUS
10
14.1141246850393696
20
-2.3558370472440946
11
14.1218929921259839
21
-2.3663114960629921
0
LINE
8
BLACK
6
CONTINUOUS
10
14.1218929921259839
20
-2.3663114960629921
11
14.1221591732283454
21
-2.3667098425196849
0
LINE
8
BLACK
6
CONTINUOUS
10
14.1221591732283454
20
-2.3667098425196849
11
14.128863622047243
21
-2.3778957086614172
0
LINE
8
BLACK
6
CONTINUOUS
10
14.128863622047243
20
-2.3778957086614172
11
14.1290894488188972
21
-2.3783182283464566
0
LINE
8
BLACK
6
CONTINUOUS
10
14.1290894488188972
20
-2.3783182283464566
11
14.134665
21
-2.3901068897637794
0
LINE
8
BLACK
6
CONTINUOUS
10
14.134665
20
-2.3901068897637794
11
14.1348483464566925
21
-2.3905494881889764
0
LINE
8
BLACK
6
CONTINUOUS
10
14.1348483464566925
20
-2.3905494881889764
11
14.139241771653543
21
-2.4028284645669289
0
LINE
8
BLACK
6
CONTINUOUS
10
14.139241771653543
20
-2.4028284645669289
11
14.139380826771653
21
-2.4032869291338583
0
LINE
8
BLACK
6
CONTINUOUS
10
14.139380826771653
20
-2.4032869291338583
11
14.1425494094488187
21
-2.4159368897637794
0
LINE
8
BLACK
6
CONTINUOUS
10
14.1425494094488187
20
-2.4159368897637794
11
14.1426428740157473
21
-2.4164067716535431
0
LINE
8
BLACK
6
CONTINUOUS
10
14.1426428740157473
20
-2.4164067716535431
11
14.1445562598425187
21
-2.4293064566929132
0
LINE
8
BLACK
6
CONTINUOUS
10
14.1445562598425187
20
-2.4293064566929132
11
14.1446032283464564
21
-2.4297832283464564
0
LINE
8
BLACK
6
CONTINUOUS
10
14.1446032283464564
20
-2.4297832283464564
11
14.145249999999999
21
-2.442950275590551
0
LINE
8
BLACK
6
CONTINUOUS
10
14.145249999999999
20
-2.442950275590551
11
14.1452558661417314
21
-2.4431898031496062
0
LINE
8
BLACK
6
CONTINUOUS
10
14.1452558661417314
20
-2.4431898031496062
11
14.1452558661417314
21
-2.4460355511811023
0
LINE
8
BLACK
6
CONTINUOUS
10
14.1452558661417314
20
-2.4460355511811023
11
14.1452559055118101
21
-2.4460360629921261
0
LINE
8
BLACK
6
CONTINUOUS
10
14.1452559055118101
20
-2.4460360629921261
11
14.1452559055118101
21
-6.1177311417322837
0
LINE
8
BLACK
6
CONTINUOUS
10
14.1452559055118101
20
-6.1177311417322837
11
14.1452500393700777
21
-6.1179707086614172
0
LINE
8
BLACK
6
CONTINUOUS
10
14.1452500393700777
20
-6.1179707086614172
11
14.1446041338582678
21
-6.1311161417322833
0
LINE
8
BLACK
6
CONTINUOUS
10
14.1446041338582678
20
-6.1311161417322833
11
14.1445571653543301
21
-6.1315929133858269
0
LINE
8
BLACK
6
CONTINUOUS
10
14.1445571653543301
20
-6.1315929133858269
11
14.1426436220472436
21
-6.144492598425197
0
LINE
8
BLACK
6
CONTINUOUS
10
14.1426436220472436
20
-6.144492598425197
11
14.142550157480315
21
-6.1449624803149607
0
LINE
8
BLACK
6
CONTINUOUS
10
14.142550157480315
20
-6.1449624803149607
11
14.1393813385826768
21
-6.1576127952755906
0
LINE
8
BLACK
6
CONTINUOUS
10
14.1393813385826768
20
-6.1576127952755906
11
14.139242244094488
21
-6.1580712598425196
0
LINE
8
BLACK
6
CONTINUOUS
10
14.139242244094488
20
-6.1580712598425196
11
14.1348488582677163
21
-6.1703497637795275
0
LINE
8
BLACK
6
CONTINUOUS
10
14.1348488582677163
20
-6.1703497637795275
11
14.1346655118110238
21
-6.1707923622047245
0
LINE
8
BLACK
6
CONTINUOUS
10
14.1346655118110238
20
-6.1707923622047245
11
14.1290898425196847
21
-6.1825809448818898
0
LINE
8
BLACK
6
CONTINUOUS
10
14.1290898425196847
20
-6.1825809448818898
11
14.1288640157480305
21
-6.1830034645669292
0
LINE
8
BLACK
6
CONTINUOUS
10
14.1288640157480305
20
-6.1830034645669292
11
14.1221596062992116
21
-6.1941889763779523
0
LINE
8
BLACK
6
CONTINUOUS
10
14.1221596062992116
20
-6.1941889763779523
11
14.1218934251968502
21
-6.1945873228346455
0
LINE
8
BLACK
6
CONTINUOUS
10
14.1218934251968502
20
-6.1945873228346455
11
14.1141248031496058
21
-6.205062007874016
0
LINE
8
BLACK
6
CONTINUOUS
10
14.1141248031496058
20
-6.205062007874016
11
14.11382090551181
21
-6.2054323622047241
0
LINE
8
BLACK
6
CONTINUOUS
10
14.11382090551181
20
-6.2054323622047241
11
14.1050629133858259
21
-6.2150952755905511
0
LINE
8
BLACK
6
CONTINUOUS
10
14.1050629133858259
20
-6.2150952755905511
11
14.1047241338582676
21
-6.2154340157480314
0
LINE
8
BLACK
6
CONTINUOUS
10
14.1047241338582676
20
-6.2154340157480314
11
14.0950617322834635
21
-6.2241914173228343
0
LINE
8
BLACK
6
CONTINUOUS
10
14.0950617322834635
20
-6.2241914173228343
11
14.094691417322835
21
-6.2244953543307089
0
LINE
8
BLACK
6
CONTINUOUS
10
14.094691417322835
20
-6.2244953543307089
11
14.0842166141732275
21
-6.2322639763779524
0
LINE
8
BLACK
6
CONTINUOUS
10
14.0842166141732275
20
-6.2322639763779524
11
14.0838182283464572
21
-6.2325301574803147
0
LINE
8
BLACK
6
CONTINUOUS
10
14.0838182283464572
20
-6.2325301574803147
11
14.0726327559055111
21
-6.2392344094488186
0
LINE
8
BLACK
6
CONTINUOUS
10
14.0726327559055111
20
-6.2392344094488186
11
14.0722102755905514
21
-6.2394602362204719
0
LINE
8
BLACK
6
CONTINUOUS
10
14.0722102755905514
20
-6.2394602362204719
11
14.0604213385826764
21
-6.2450359842519685
0
LINE
8
BLACK
6
CONTINUOUS
10
14.0604213385826764
20
-6.2450359842519685
11
14.0599787007874006
21
-6.245219330708661
0
LINE
8
BLACK
6
CONTINUOUS
10
14.0599787007874006
20
-6.245219330708661
11
14.047699999999999
21
-6.249612677165354
0
LINE
8
BLACK
6
CONTINUOUS
10
14.047699999999999
20
-6.249612677165354
11
14.0472415748031487
21
-6.2497517322834648
0
LINE
8
BLACK
6
CONTINUOUS
10
14.0472415748031487
20
-6.2497517322834648
11
14.0345914566929135
21
-6.2529204330708659
0
LINE
8
BLACK
6
CONTINUOUS
10
14.0345914566929135
20
-6.2529204330708659
11
14.0341215354330711
21
-6.2530138976377954
0
LINE
8
BLACK
6
CONTINUOUS
10
14.0341215354330711
20
-6.2530138976377954
11
14.0212219685039372
21
-6.2549273228346456
0
LINE
8
BLACK
6
CONTINUOUS
10
14.0212219685039372
20
-6.2549273228346456
11
14.0207452362204723
21
-6.2549742913385824
0
LINE
8
BLACK
6
CONTINUOUS
10
14.0207452362204723
20
-6.2549742913385824
11
14.0140649606299217
21
-6.2553024803149606
0
LINE
8
BLACK
6
CONTINUOUS
10
14.0140649606299217
20
-6.2553024803149606
11
14.0075774803149606
21
-6.2556211811023621
0
LINE
8
BLACK
6
CONTINUOUS
10
14.0075774803149606
20
-6.2556211811023621
11
14.0073390944881879
21
-6.2556270472440945
0
LINE
8
BLACK
6
CONTINUOUS
10
14.0073390944881879
20
-6.2556270472440945
11
1.7241358661417323
21
-6.2556270472440945
0
LINE
8
BLACK
6
CONTINUOUS
10
1.7241358661417323
20
-6.2556270472440945
11
1.7238963779527559
21
-6.2556211811023621
0
LINE
8
BLACK
6
CONTINUOUS
10
1.7238963779527559
20
-6.2556211811023621
11
1.7231118897637794
21
-6.2555826377952757
0
LINE
8
BLACK
6
CONTINUOUS
10
1.7231118897637794
20
-6.2555826377952757
11
1.7107507874015748
21
-6.2549753543307087
0
LINE
8
BLACK
6
CONTINUOUS
10
1.7107507874015748
20
-6.2549753543307087
11
1.7102740551181101
21
-6.2549283858267719
0
LINE
8
BLACK
6
CONTINUOUS
10
1.7102740551181101
20
-6.2549283858267719
11
1.6973741338582677
21
-6.2530148818897633
0
LINE
8
BLACK
6
CONTINUOUS
10
1.6973741338582677
20
-6.2530148818897633
11
1.6969042519685038
21
-6.2529214173228347
0
LINE
8
BLACK
6
CONTINUOUS
10
1.6969042519685038
20
-6.2529214173228347
11
1.684254251968504
21
-6.2497527952755902
0
LINE
8
BLACK
6
CONTINUOUS
10
1.684254251968504
20
-6.2497527952755902
11
1.6837957874015748
21
-6.2496137401574803
0
LINE
8
BLACK
6
CONTINUOUS
10
1.6837957874015748
20
-6.2496137401574803
11
1.6715168897637795
21
-6.2452203149606298
0
LINE
8
BLACK
6
CONTINUOUS
10
1.6715168897637795
20
-6.2452203149606298
11
1.671074251968504
21
-6.2450369685039373
0
LINE
8
BLACK
6
CONTINUOUS
10
1.671074251968504
20
-6.2450369685039373
11
1.6592851181102362
21
-6.2394611417322832
0
LINE
8
BLACK
6
CONTINUOUS
10
1.6592851181102362
20
-6.2394611417322832
11
1.6588627952755906
21
-6.2392353543307086
0
LINE
8
BLACK
6
CONTINUOUS
10
1.6588627952755906
20
-6.2392353543307086
11
1.6476770866141732
21
-6.2325309448818897
0
LINE
8
BLACK
6
CONTINUOUS
10
1.6476770866141732
20
-6.2325309448818897
11
1.647278779527559
21
-6.2322648031496062
0
LINE
8
BLACK
6
CONTINUOUS
10
1.647278779527559
20
-6.2322648031496062
11
1.6368041338582677
21
-6.2244963385826768
0
LINE
8
BLACK
6
CONTINUOUS
10
1.6368041338582677
20
-6.2244963385826768
11
1.636433779527559
21
-6.2241924015748031
0
LINE
8
BLACK
6
CONTINUOUS
10
1.636433779527559
20
-6.2241924015748031
11
1.6364326771653543
21
-6.2241914173228343
0
LINE
8
BLACK
6
CONTINUOUS
10
1.6364326771653543
20
-6.2241914173228343
11
1.6267710629921259
21
-6.2154346850393702
0
LINE
8
BLACK
6
CONTINUOUS
10
1.6267710629921259
20
-6.2154346850393702
11
1.6264323622047243
21
-6.2150960236220474
0
LINE
8
BLACK
6
CONTINUOUS
10
1.6264323622047243
20
-6.2150960236220474
11
1.6176742913385826
21
-6.2054330314960628
0
LINE
8
BLACK
6
CONTINUOUS
10
1.6176742913385826
20
-6.2054330314960628
11
1.6173703543307085
21
-6.2050626771653539
0
LINE
8
BLACK
6
CONTINUOUS
10
1.6173703543307085
20
-6.2050626771653539
11
1.6096016929133858
21
-6.1945879133858268
0
LINE
8
BLACK
6
CONTINUOUS
10
1.6096016929133858
20
-6.1945879133858268
11
1.6093355511811023
21
-6.1941895669291336
0
LINE
8
BLACK
6
CONTINUOUS
10
1.6093355511811023
20
-6.1941895669291336
11
1.6093351968503937
21
-6.1941889763779523
0
LINE
8
BLACK
6
CONTINUOUS
10
1.6093351968503937
20
-6.1941889763779523
11
1.6026307874015748
21
-6.1830034645669292
0
LINE
8
BLACK
6
CONTINUOUS
10
1.6026307874015748
20
-6.1830034645669292
11
1.6024052362204724
21
-6.1825814566929136
0
LINE
8
BLACK
6
CONTINUOUS
10
1.6024052362204724
20
-6.1825814566929136
11
1.6022397244094488
21
-6.1822314960629923
0
LINE
8
BLACK
6
CONTINUOUS
10
1.6022397244094488
20
-6.1822314960629923
11
1.5968293307086614
21
-6.1707923228346457
0
LINE
8
BLACK
6
CONTINUOUS
10
1.5968293307086614
20
-6.1707923228346457
11
1.5966463385826772
21
-6.1703505905511813
0
LINE
8
BLACK
6
CONTINUOUS
10
1.5966463385826772
20
-6.1703505905511813
11
1.5922526377952755
21
-6.1580711417322833
0
LINE
8
BLACK
6
CONTINUOUS
10
1.5922526377952755
20
-6.1580711417322833
11
1.5921138188976378
21
-6.1576136614173231
0
LINE
8
BLACK
6
CONTINUOUS
10
1.5921138188976378
20
-6.1576136614173231
11
1.5889446062992125
21
-6.1449618110236219
0
LINE
8
BLACK
6
CONTINUOUS
10
1.5889446062992125
20
-6.1449618110236219
11
1.5888514566929133
21
-6.1444935039370074
0
LINE
8
BLACK
6
CONTINUOUS
10
1.5888514566929133
20
-6.1444935039370074
11
1.5869377952755905
21
-6.1315929133858269
0
LINE
8
BLACK
6
CONTINUOUS
10
1.5869377952755905
20
-6.1315929133858269
11
1.5868908267716535
21
-6.1311162598425195
0
LINE
8
BLACK
6
CONTINUOUS
10
1.5868908267716535
20
-6.1311162598425195
11
1.5862460236220473
21
-6.1179923228346453
0
LINE
8
BLACK
6
CONTINUOUS
10
1.5862460236220473
20
-6.1179923228346453
11
1.5862425590551181
21
-6.1178503937007873
0
LINE
8
BLACK
6
CONTINUOUS
10
1.5862425590551181
20
-6.1178503937007873
11
1.5862401574803149
21
-6.1177527559055118
0
LINE
8
BLACK
6
CONTINUOUS
10
1.5862401574803149
20
-6.1177527559055118
11
1.5862401574803149
21
-5.7716535433070861
0
LINE
8
BLACK
6
CONTINUOUS
10
1.5862401574803149
20
-5.7716535433070861
11
1.5862401574803149
21
-3.2896629921259843
0
LINE
8
BLACK
6
CONTINUOUS
10
1.5862401574803149
20
-3.2896629921259843
11
1.5862401574803149
21
-2.8975864566929133
0
LINE
8
BLACK
6
CONTINUOUS
10
1.5862401574803149
20
-2.8975864566929133
11
1.5862401574803149
21
-2.4431683070866139
0
LINE
8
BLACK
6
CONTINUOUS
10
1.5862401574803149
20
-2.4431683070866139
11
1.5862431102362204
21
-2.4430484251968503
0
LINE
8
BLACK
6
CONTINUOUS
10
1.5862431102362204
20
-2.4430484251968503
11
1.5862460236220473
21
-2.4429287795275592
0
LINE
8
BLACK
6
CONTINUOUS
10
1.5862460236220473
20
-2.4429287795275592
11
1.5863677952755906
21
-2.4404502362204723
0
LINE
8
BLACK
6
CONTINUOUS
10
1.5863677952755906
20
-2.4404502362204723
11
1.5868918110236221
21
-2.4297833070866139
0
LINE
8
BLACK
6
CONTINUOUS
10
1.5868918110236221
20
-2.4297833070866139
11
1.5869387795275591
21
-2.429306653543307
0
LINE
8
BLACK
6
CONTINUOUS
10
1.5869387795275591
20
-2.429306653543307
11
1.5878884645669291
21
-2.4229045669291338
0
LINE
8
BLACK
6
CONTINUOUS
10
1.5878884645669291
20
-2.4229045669291338
11
1.5888522834645669
21
-2.4164067716535431
0
LINE
8
BLACK
6
CONTINUOUS
10
1.5888522834645669
20
-2.4164067716535431
11
1.5889457480314961
21
-2.4159370078740157
0
LINE
8
BLACK
6
CONTINUOUS
10
1.5889457480314961
20
-2.4159370078740157
11
1.5895672834645669
21
-2.4134556692913387
0
LINE
8
BLACK
6
CONTINUOUS
10
1.5895672834645669
20
-2.4134556692913387
11
1.5921146850393701
21
-2.403285866141732
0
LINE
8
BLACK
6
CONTINUOUS
10
1.5921146850393701
20
-2.403285866141732
11
1.5922534251968503
21
-2.4028287401574802
0
LINE
8
BLACK
6
CONTINUOUS
10
1.5922534251968503
20
-2.4028287401574802
11
1.5966470078740158
21
-2.3905494881889764
0
LINE
8
BLACK
6
CONTINUOUS
10
1.5966470078740158
20
-2.3905494881889764
11
1.596829842519685
21
-2.390107992125984
0
LINE
8
BLACK
6
CONTINUOUS
10
1.596829842519685
20
-2.390107992125984
11
1.6024062992125985
21
-2.3783175196850395
0
LINE
8
BLACK
6
CONTINUOUS
10
1.6024062992125985
20
-2.3783175196850395
11
1.6026316535433069
21
-2.3778959448818897
0
LINE
8
BLACK
6
CONTINUOUS
10
1.6026316535433069
20
-2.3778959448818897
11
1.6093364566929134
21
-2.3667097244094486
0
LINE
8
BLACK
6
CONTINUOUS
10
1.6093364566929134
20
-2.3667097244094486
11
1.6096019291338581
21
-2.3663123622047242
0
LINE
8
BLACK
6
CONTINUOUS
10
1.6096019291338581
20
-2.3663123622047242
11
1.6173713779527559
21
-2.3558364960629921
0
LINE
8
BLACK
6
CONTINUOUS
10
1.6173713779527559
20
-2.3558364960629921
11
1.6176746456692912
21
-2.3554670078740156
0
LINE
8
BLACK
6
CONTINUOUS
10
1.6176746456692912
20
-2.3554670078740156
11
1.6264333070866142
21
-2.345803307086614
0
LINE
8
BLACK
6
CONTINUOUS
10
1.6264333070866142
20
-2.345803307086614
11
1.6267707086614174
21
-2.3454659055118108
0
LINE
8
BLACK
6
CONTINUOUS
10
1.6267707086614174
20
-2.3454659055118108
11
1.6364344094488188
21
-2.3367072440944883
0
LINE
8
BLACK
6
CONTINUOUS
10
1.6364344094488188
20
-2.3367072440944883
11
1.6368038976377952
21
-2.3364039763779525
0
LINE
8
BLACK
6
CONTINUOUS
10
1.6368038976377952
20
-2.3364039763779525
11
1.6472797637795276
21
-2.328634566929134
0
LINE
8
BLACK
6
CONTINUOUS
10
1.6472797637795276
20
-2.328634566929134
11
1.647677125984252
21
-2.3283690944881887
0
LINE
8
BLACK
6
CONTINUOUS
10
1.647677125984252
20
-2.3283690944881887
11
1.6588633464566929
21
-2.3216642913385828
0
LINE
8
BLACK
6
CONTINUOUS
10
1.6588633464566929
20
-2.3216642913385828
11
1.6592849212598424
21
-2.3214389370078741
0
LINE
8
BLACK
6
CONTINUOUS
10
1.6592849212598424
20
-2.3214389370078741
11
1.6710753937007874
21
-2.3158624803149608
0
LINE
8
BLACK
6
CONTINUOUS
10
1.6710753937007874
20
-2.3158624803149608
11
1.671516220472441
21
-2.315679842519685
0
LINE
8
BLACK
6
CONTINUOUS
10
1.671516220472441
20
-2.315679842519685
11
1.6837964173228346
21
-2.3112859448818899
0
LINE
8
BLACK
6
CONTINUOUS
10
1.6837964173228346
20
-2.3112859448818899
11
1.6842537007874014
21
-2.3111472440944882
0
LINE
8
BLACK
6
CONTINUOUS
10
1.6842537007874014
20
-2.3111472440944882
11
1.6969049606299211
21
-2.3079782677165355
0
LINE
8
BLACK
6
CONTINUOUS
10
1.6969049606299211
20
-2.3079782677165355
11
1.6973737401574802
21
-2.3078850393700785
0
LINE
8
BLACK
6
CONTINUOUS
10
1.6973737401574802
20
-2.3078850393700785
11
1.7102741732283464
21
-2.3059714173228345
0
LINE
8
BLACK
6
CONTINUOUS
10
1.7102741732283464
20
-2.3059714173228345
11
1.7107506299212598
21
-2.3059244881889764
0
LINE
8
BLACK
6
CONTINUOUS
10
1.7107506299212598
20
-2.3059244881889764
11
1.7238993307086614
21
-2.3052785433070864
0
LINE
8
BLACK
6
CONTINUOUS
10
1.7238993307086614
20
-2.3052785433070864
11
1.724137716535433
21
-2.3052727165354332
0
LINE
8
BLACK
6
CONTINUOUS
10
1.724137716535433
20
-2.3052727165354332
11
1.7266099212598425
21
-2.3052727165354332
0
LINE
8
BLACK
6
CONTINUOUS
10
1.7266099212598425
20
-2.3052727165354332
11
14.0048861417322836
21
-2.3052727165354332
0
LINE
8
BLACK
6
CONTINUOUS
10
14.0048861417322836
20
-2.3052727165354332
11
14.007360196850394
21
-2.3052727165354332
0
LINE
8
BLACK
6
CONTINUOUS
10
14.007360196850394
20
-2.3052727165354332
11
14.00759968503937
21
-2.3052785433070864
0
LINE
8
BLACK
6
CONTINUOUS
10
13.1503740157480316
20
-3.2989196456692911
11
13.1506515748031489
21
-3.3021085826771652
0
LINE
8
BLACK
6
CONTINUOUS
10
13.1506515748031489
20
-3.3021085826771652
11
13.1506733464566921
21
-3.3023583070866143
0
LINE
8
BLACK
6
CONTINUOUS
10
13.1506733464566921
20
-3.3023583070866143
11
13.1507007874015738
21
-3.3025147637795276
0
LINE
8
BLACK
6
CONTINUOUS
10
13.1507007874015738
20
-3.3025147637795276
11
13.1507008661417313
21
-3.3025151181102363
0
LINE
8
BLACK
6
CONTINUOUS
10
13.1507008661417313
20
-3.3025151181102363
11
13.1518340944881889
21
-3.3060027559055118
0
LINE
8
BLACK
6
CONTINUOUS
10
13.1518340944881889
20
-3.3060027559055118
11
13.1524236220472446
21
-3.3078170866141732
0
LINE
8
BLACK
6
CONTINUOUS
10
13.1524236220472446
20
-3.3078170866141732
11
13.1540669291338581
21
-3.3102320472440945
0
LINE
8
BLACK
6
CONTINUOUS
10
13.1540669291338581
20
-3.3102320472440945
11
13.1556102755905506
21
-3.312500157480315
0
LINE
8
BLACK
6
CONTINUOUS
10
13.1556102755905506
20
-3.312500157480315
11
13.1556103543307081
21
-3.3125002362204725
0
LINE
8
BLACK
6
CONTINUOUS
10
13.1556103543307081
20
-3.3125002362204725
11
13.1558481496062996
21
-3.3127605118110237
0
LINE
8
BLACK
6
CONTINUOUS
10
13.1558481496062996
20
-3.3127605118110237
11
13.1573661811023612
21
-3.314253188976378
0
LINE
8
BLACK
6
CONTINUOUS
10
13.1573661811023612
20
-3.314253188976378
11
13.1609751574803155
21
-3.316621181102362
0
LINE
8
BLACK
6
CONTINUOUS
10
13.1609751574803155
20
-3.316621181102362
11
13.1621022047244089
21
-3.3173607086614174
0
LINE
8
BLACK
6
CONTINUOUS
10
13.1621022047244089
20
-3.3173607086614174
11
13.2091554724409441
21
-3.3393906299212599
0
LINE
8
BLACK
6
CONTINUOUS
10
13.2091554724409441
20
-3.3393906299212599
11
13.2095416929133851
21
-3.3395665354330708
0
LINE
8
BLACK
6
CONTINUOUS
10
13.2095416929133851
20
-3.3395665354330708
11
13.2095584645669284
21
-3.3395739370078741
0
LINE
8
BLACK
6
CONTINUOUS
10
13.2095584645669284
20
-3.3395739370078741
11
13.2095586614173222
21
-3.3395740157480316
0
LINE
8
BLACK
6
CONTINUOUS
10
13.2095586614173222
20
-3.3395740157480316
11
13.209559488188976
21
-3.3395743700787399
0
LINE
8
BLACK
6
CONTINUOUS
10
13.209559488188976
20
-3.3395743700787399
11
13.2119831889763777
21
-3.3404638188976379
0
LINE
8
BLACK
6
CONTINUOUS
10
13.2119831889763777
20
-3.3404638188976379
11
13.2175890944881882
21
-3.3412768897637792
0
LINE
8
BLACK
6
CONTINUOUS
10
13.2175890944881882
20
-3.3412768897637792
11
13.2179416535433063
21
-3.3412773228346455
0
LINE
8
BLACK
6
CONTINUOUS
10
13.2179416535433063
20
-3.3412773228346455
11
13.2221719291338573
21
-3.340827834645669
0
LINE
8
BLACK
6
CONTINUOUS
10
13.2221719291338573
20
-3.340827834645669
11
13.2260401181102356
21
-3.3393906299212599
0
LINE
8
BLACK
6
CONTINUOUS
10
13.2260401181102356
20
-3.3393906299212599
11
13.2274817716535438
21
-3.3388550000000001
0
LINE
8
BLACK
6
CONTINUOUS
10
13.2274817716535438
20
-3.3388550000000001
11
13.2274818503937013
21
-3.3388549606299214
0
LINE
8
BLACK
6
CONTINUOUS
10
13.2274818503937013
20
-3.3388549606299214
11
13.2320207480314966
21
-3.3354661417322835
0
LINE
8
BLACK
6
CONTINUOUS
10
13.2320207480314966
20
-3.3354661417322835
11
13.2320209055118099
21
-3.3354660236220472
0
LINE
8
BLACK
6
CONTINUOUS
10
13.2320209055118099
20
-3.3354660236220472
11
13.2322704724409448
21
-3.3352170866141733
0
LINE
8
BLACK
6
CONTINUOUS
10
13.2322704724409448
20
-3.3352170866141733
11
13.2336964960629917
21
-3.3336334645669292
0
LINE
8
BLACK
6
CONTINUOUS
10
13.2336964960629917
20
-3.3336334645669292
11
13.2365929527559061
21
-3.328765433070866
0
LINE
8
BLACK
6
CONTINUOUS
10
13.2365929527559061
20
-3.328765433070866
11
13.2365931889763768
21
-3.3287648818897635
0
LINE
8
BLACK
6
CONTINUOUS
10
13.2365931889763768
20
-3.3287648818897635
11
13.2476731102362209
21
-3.3021085826771652
0
LINE
8
BLACK
6
CONTINUOUS
10
13.2476731102362209
20
-3.3021085826771652
11
13.2476967322834636
21
-3.3020510629921258
0
LINE
8
BLACK
6
CONTINUOUS
10
13.2476967322834636
20
-3.3020510629921258
11
13.2477272834645667
21
-3.3019769685039368
0
LINE
8
BLACK
6
CONTINUOUS
10
13.2477272834645667
20
-3.3019769685039368
11
13.247727716535433
21
-3.301975905511811
0
LINE
8
BLACK
6
CONTINUOUS
10
13.247727716535433
20
-3.301975905511811
11
13.2483992913385826
21
-3.3000505511811022
0
LINE
8
BLACK
6
CONTINUOUS
10
13.2483992913385826
20
-3.3000505511811022
11
13.249198582677165
21
-3.2944426377952754
0
LINE
8
BLACK
6
CONTINUOUS
10
13.249198582677165
20
-3.2944426377952754
11
13.2491981496062987
21
-3.2940900787401572
0
LINE
8
BLACK
6
CONTINUOUS
10
13.2491981496062987
20
-3.2940900787401572
11
13.2490814960629919
21
-3.2919627952755905
0
LINE
8
BLACK
6
CONTINUOUS
10
13.2490814960629919
20
-3.2919627952755905
11
13.2476738188976366
21
-3.2864758661417324
0
LINE
8
BLACK
6
CONTINUOUS
10
13.2476738188976366
20
-3.2864758661417324
11
13.2365929527559061
21
-3.2598172047244094
0
LINE
8
BLACK
6
CONTINUOUS
10
13.2365929527559061
20
-3.2598172047244094
11
13.2364147637795266
21
-3.259401811023622
0
LINE
8
BLACK
6
CONTINUOUS
10
13.2364147637795266
20
-3.259401811023622
11
13.2364065748031496
21
-3.2593833070866141
0
LINE
8
BLACK
6
CONTINUOUS
10
13.2364065748031496
20
-3.2593833070866141
11
13.2352268897637799
21
-3.2571216929133859
0
LINE
8
BLACK
6
CONTINUOUS
10
13.2352268897637799
20
-3.2571216929133859
11
13.2352267716535437
21
-3.2571215354330709
0
LINE
8
BLACK
6
CONTINUOUS
10
13.2352267716535437
20
-3.2571215354330709
11
13.2316313385826767
21
-3.2527447244094487
0
LINE
8
BLACK
6
CONTINUOUS
10
13.2316313385826767
20
-3.2527447244094487
11
13.2316312598425192
21
-3.2527446456692912
0
LINE
8
BLACK
6
CONTINUOUS
10
13.2316312598425192
20
-3.2527446456692912
11
13.2313711417322839
21
-3.2525069685039369
0
LINE
8
BLACK
6
CONTINUOUS
10
13.2313711417322839
20
-3.2525069685039369
11
13.2279407086614178
21
-3.2499890157480316
0
LINE
8
BLACK
6
CONTINUOUS
10
13.2279407086614178
20
-3.2499890157480316
11
13.2279405905511815
21
-3.2499889370078741
0
LINE
8
BLACK
6
CONTINUOUS
10
13.2279405905511815
20
-3.2499889370078741
11
13.2226871653543299
21
-3.2478706692913386
0
LINE
8
BLACK
6
CONTINUOUS
10
13.2226871653543299
20
-3.2478706692913386
11
13.2226868897637786
21
-3.2478705905511811
0
LINE
8
BLACK
6
CONTINUOUS
10
13.2226868897637786
20
-3.2478705905511811
11
13.2170493307086616
21
-3.2473182283464568
0
LINE
8
BLACK
6
CONTINUOUS
10
13.2170493307086616
20
-3.2473182283464568
11
13.2167112204724404
21
-3.2473335039370079
0
LINE
8
BLACK
6
CONTINUOUS
10
13.2167112204724404
20
-3.2473335039370079
11
13.2166972047244098
21
-3.2473341732283463
0
LINE
8
BLACK
6
CONTINUOUS
10
13.2166972047244098
20
-3.2473341732283463
11
13.216697165354331
21
-3.2473341732283463
0
LINE
8
BLACK
6
CONTINUOUS
10
13.216697165354331
20
-3.2473341732283463
11
13.2166962598425197
21
-3.247334212598425
0
LINE
8
BLACK
6
CONTINUOUS
10
13.2166962598425197
20
-3.247334212598425
11
13.2145762204724413
21
-3.2475441732283463
0
LINE
8
BLACK
6
CONTINUOUS
10
13.2145762204724413
20
-3.2475441732283463
11
13.2091564566929129
21
-3.2491914960629922
0
LINE
8
BLACK
6
CONTINUOUS
10
13.2091564566929129
20
-3.2491914960629922
11
13.2091561417322829
21
-3.2491916141732284
0
LINE
8
BLACK
6
CONTINUOUS
10
13.2091561417322829
20
-3.2491916141732284
11
13.1621026377952752
21
-3.2712216535433072
0
LINE
8
BLACK
6
CONTINUOUS
10
13.1621026377952752
20
-3.2712216535433072
11
13.1591101968503938
21
-3.2729543307086613
0
LINE
8
BLACK
6
CONTINUOUS
10
13.1591101968503938
20
-3.2729543307086613
11
13.1589799212598422
21
-3.2730457480314961
0
LINE
8
BLACK
6
CONTINUOUS
10
13.1589799212598422
20
-3.2730457480314961
11
13.154914527559054
21
-3.27684937007874
0
LINE
8
BLACK
6
CONTINUOUS
10
13.154914527559054
20
-3.27684937007874
11
13.154914527559054
21
-3.2768494094488188
0
LINE
8
BLACK
6
CONTINUOUS
10
13.154914527559054
20
-3.2768494094488188
11
13.1520241732283463
21
-3.2817205511811025
0
LINE
8
BLACK
6
CONTINUOUS
10
13.1520241732283463
20
-3.2817205511811025
11
13.1520241338582675
21
-3.2817205905511808
0
LINE
8
BLACK
6
CONTINUOUS
10
13.1520241338582675
20
-3.2817205905511808
11
13.1520240157480313
21
-3.2817208267716533
0
LINE
8
BLACK
6
CONTINUOUS
10
13.1520240157480313
20
-3.2817208267716533
11
13.1520240157480313
21
-3.2817208661417321
0
LINE
8
BLACK
6
CONTINUOUS
10
13.1520240157480313
20
-3.2817208661417321
11
13.1518890944881885
21
-3.2820465748031493
0
LINE
8
BLACK
6
CONTINUOUS
10
13.1518890944881885
20
-3.2820465748031493
11
13.1518888976377948
21
-3.2820470472440944
0
LINE
8
BLACK
6
CONTINUOUS
10
13.1518888976377948
20
-3.2820470472440944
11
13.151888700787401
21
-3.2820475984251969
0
LINE
8
BLACK
6
CONTINUOUS
10
13.151888700787401
20
-3.2820475984251969
11
13.1511801574803151
21
-3.2840559842519683
0
LINE
8
BLACK
6
CONTINUOUS
10
13.1511801574803151
20
-3.2840559842519683
11
13.1511801574803151
21
-3.2840560629921258
0
LINE
8
BLACK
6
CONTINUOUS
10
13.1511801574803151
20
-3.2840560629921258
11
13.1503740157480316
21
-3.2896629921259843
0
LINE
8
BLACK
6
CONTINUOUS
10
13.1503740157480316
20
-3.2896629921259843
11
13.1503740157480316
21
-3.2989196456692911
0
LINE
8
BLACK
6
CONTINUOUS
10
1.6596346456692912
20
-6.1280474803149607
11
1.6620223622047243
21
-6.1379930314960625
0
LINE
8
BLACK
6
CONTINUOUS
10
1.6620223622047243
20
-6.1379930314960625
11
1.6659366929133859
21
-6.1474431496062989
0
LINE
8
BLACK
6
CONTINUOUS
10
1.6659366929133859
20
-6.1474431496062989
11
1.6712809448818897
21
-6.1561641732283467
0
LINE
8
BLACK
6
CONTINUOUS
10
1.6712809448818897
20
-6.1561641732283467
11
1.6712809842519685
21
-6.1561642519685034
0
LINE
8
BLACK
6
CONTINUOUS
10
1.6712809842519685
20
-6.1561642519685034
11
1.6735320078740157
21
-6.1587998425196853
0
LINE
8
BLACK
6
CONTINUOUS
10
1.6735320078740157
20
-6.1587998425196853
11
1.6779239763779528
21
-6.1639421653543307
0
LINE
8
BLACK
6
CONTINUOUS
10
1.6779239763779528
20
-6.1639421653543307
11
1.6839447637795275
21
-6.1690844094488186
0
LINE
8
BLACK
6
CONTINUOUS
10
1.6839447637795275
20
-6.1690844094488186
11
1.6857018503937007
21
-6.1705851181102362
0
LINE
8
BLACK
6
CONTINUOUS
10
1.6857018503937007
20
-6.1705851181102362
11
1.6857019291338582
21
-6.170585157480315
0
LINE
8
BLACK
6
CONTINUOUS
10
1.6857019291338582
20
-6.170585157480315
11
1.6944229527559054
21
-6.1759294094488189
0
LINE
8
BLACK
6
CONTINUOUS
10
1.6944229527559054
20
-6.1759294094488189
11
1.698077559055118
21
-6.1774431889763779
0
LINE
8
BLACK
6
CONTINUOUS
10
1.698077559055118
20
-6.1774431889763779
11
1.7038729133858268
21
-6.1798437007874014
0
LINE
8
BLACK
6
CONTINUOUS
10
1.7038729133858268
20
-6.1798437007874014
11
1.713818779527559
21
-6.1822314960629923
0
LINE
8
BLACK
6
CONTINUOUS
10
1.713818779527559
20
-6.1822314960629923
11
1.7240157480314959
21
-6.1830340157480315
0
LINE
8
BLACK
6
CONTINUOUS
10
1.7240157480314959
20
-6.1830340157480315
11
1.7342127165354331
21
-6.1822314960629923
0
LINE
8
BLACK
6
CONTINUOUS
10
1.7342127165354331
20
-6.1822314960629923
11
1.7441585826771653
21
-6.1798437007874014
0
LINE
8
BLACK
6
CONTINUOUS
10
1.7441585826771653
20
-6.1798437007874014
11
1.7536085039370077
21
-6.1759294094488189
0
LINE
8
BLACK
6
CONTINUOUS
10
1.7536085039370077
20
-6.1759294094488189
11
1.7623297244094487
21
-6.1705850393700787
0
LINE
8
BLACK
6
CONTINUOUS
10
1.7623297244094487
20
-6.1705850393700787
11
1.7701075196850393
21
-6.1639421653543307
0
LINE
8
BLACK
6
CONTINUOUS
10
1.7701075196850393
20
-6.1639421653543307
11
1.7767503937007874
21
-6.1561643700787396
0
LINE
8
BLACK
6
CONTINUOUS
10
1.7767503937007874
20
-6.1561643700787396
11
1.7820947637795275
21
-6.1474431496062989
0
LINE
8
BLACK
6
CONTINUOUS
10
1.7820947637795275
20
-6.1474431496062989
11
1.7860090551181103
21
-6.1379932283464562
0
LINE
8
BLACK
6
CONTINUOUS
10
1.7860090551181103
20
-6.1379932283464562
11
1.7883968503937007
21
-6.1280473622047245
0
LINE
8
BLACK
6
CONTINUOUS
10
1.7883968503937007
20
-6.1280473622047245
11
1.7891993700787401
21
-6.1178503937007873
0
LINE
8
BLACK
6
CONTINUOUS
10
1.7891993700787401
20
-6.1178503937007873
11
1.7883968503937007
21
-6.1076534251968502
0
LINE
8
BLACK
6
CONTINUOUS
10
1.7883968503937007
20
-6.1076534251968502
11
1.7860090551181103
21
-6.0977075590551184
0
LINE
8
BLACK
6
CONTINUOUS
10
1.7860090551181103
20
-6.0977075590551184
11
1.7820947637795275
21
-6.0882576377952757
0
LINE
8
BLACK
6
CONTINUOUS
10
1.7820947637795275
20
-6.0882576377952757
11
1.7820947637795275
21
-6.088257598425197
0
LINE
8
BLACK
6
CONTINUOUS
10
1.7820947637795275
20
-6.088257598425197
11
1.7767505118110236
21
-6.0795365748031491
0
LINE
8
BLACK
6
CONTINUOUS
10
1.7767505118110236
20
-6.0795365748031491
11
1.7767504724409449
21
-6.0795364960629916
0
LINE
8
BLACK
6
CONTINUOUS
10
1.7767504724409449
20
-6.0795364960629916
11
1.7752497637795275
21
-6.0777794094488184
0
LINE
8
BLACK
6
CONTINUOUS
10
1.7752497637795275
20
-6.0777794094488184
11
1.7701075196850393
21
-6.0717586220472439
0
LINE
8
BLACK
6
CONTINUOUS
10
1.7701075196850393
20
-6.0717586220472439
11
1.7649651968503937
21
-6.0673666535433073
0
LINE
8
BLACK
6
CONTINUOUS
10
1.7649651968503937
20
-6.0673666535433073
11
1.7623296062992126
21
-6.0651156299212596
0
LINE
8
BLACK
6
CONTINUOUS
10
1.7623296062992126
20
-6.0651156299212596
11
1.7623295275590551
21
-6.0651155905511809
0
LINE
8
BLACK
6
CONTINUOUS
10
1.7623295275590551
20
-6.0651155905511809
11
1.7536085039370077
21
-6.059771338582677
0
LINE
8
BLACK
6
CONTINUOUS
10
1.7536085039370077
20
-6.059771338582677
11
1.7441583858267715
21
-6.0558570078740157
0
LINE
8
BLACK
6
CONTINUOUS
10
1.7441583858267715
20
-6.0558570078740157
11
1.7342128346456693
21
-6.0534692913385824
0
LINE
8
BLACK
6
CONTINUOUS
10
1.7342128346456693
20
-6.0534692913385824
11
1.7240157480314959
21
-6.0526667716535432
0
LINE
8
BLACK
6
CONTINUOUS
10
1.7240157480314959
20
-6.0526667716535432
11
1.713818622047244
21
-6.0534692913385824
0
LINE
8
BLACK
6
CONTINUOUS
10
1.713818622047244
20
-6.0534692913385824
11
1.7038730708661416
21
-6.0558570078740157
0
LINE
8
BLACK
6
CONTINUOUS
10
1.7038730708661416
20
-6.0558570078740157
11
1.6944229527559054
21
-6.059771338582677
0
LINE
8
BLACK
6
CONTINUOUS
10
1.6944229527559054
20
-6.059771338582677
11
1.6857019291338582
21
-6.0651155905511809
0
LINE
8
BLACK
6
CONTINUOUS
10
1.6857019291338582
20
-6.0651155905511809
11
1.6857018503937007
21
-6.0651156299212596
0
LINE
8
BLACK
6
CONTINUOUS
10
1.6857018503937007
20
-6.0651156299212596
11
1.6779239763779528
21
-6.0717586220472439
0
LINE
8
BLACK
6
CONTINUOUS
10
1.6779239763779528
20
-6.0717586220472439
11
1.6712809842519685
21
-6.0795364960629916
0
LINE
8
BLACK
6
CONTINUOUS
10
1.6712809842519685
20
-6.0795364960629916
11
1.6712809448818897
21
-6.0795365748031491
0
LINE
8
BLACK
6
CONTINUOUS
10
1.6712809448818897
20
-6.0795365748031491
11
1.6659366929133859
21
-6.088257598425197
0
LINE
8
BLACK
6
CONTINUOUS
10
1.6659366929133859
20
-6.088257598425197
11
1.6620223622047243
21
-6.0977077165354325
0
LINE
8
BLACK
6
CONTINUOUS
10
1.6620223622047243
20
-6.0977077165354325
11
1.6596346456692912
21
-6.1076532677165352
0
LINE
8
BLACK
6
CONTINUOUS
10
1.6596346456692912
20
-6.1076532677165352
11
1.658832125984252
21
-6.1178503937007873
0
LINE
8
BLACK
6
CONTINUOUS
10
1.658832125984252
20
-6.1178503937007873
11
1.6596346456692912
21
-6.1280474803149607
0
LINE
8
BLACK
6
CONTINUOUS
10
13.9430992125984243
20
-6.1280474803149607
11
13.9454869291338586
21
-6.1379930314960625
0
LINE
8
BLACK
6
CONTINUOUS
10
13.9454869291338586
20
-6.1379930314960625
11
13.949401259842519
21
-6.1474431496062989
0
LINE
8
BLACK
6
CONTINUOUS
10
13.949401259842519
20
-6.1474431496062989
11
13.9547455118110229
21
-6.1561641732283467
0
LINE
8
BLACK
6
CONTINUOUS
10
13.9547455118110229
20
-6.1561641732283467
11
13.9547455511811016
21
-6.1561642519685034
0
LINE
8
BLACK
6
CONTINUOUS
10
13.9547455511811016
20
-6.1561642519685034
11
13.9569965748031493
21
-6.1587998425196853
0
LINE
8
BLACK
6
CONTINUOUS
10
13.9569965748031493
20
-6.1587998425196853
11
13.9613885433070859
21
-6.1639421653543307
0
LINE
8
BLACK
6
CONTINUOUS
10
13.9613885433070859
20
-6.1639421653543307
11
13.9674093307086604
21
-6.1690844094488186
0
LINE
8
BLACK
6
CONTINUOUS
10
13.9674093307086604
20
-6.1690844094488186
11
13.9691664173228336
21
-6.1705851181102362
0
LINE
8
BLACK
6
CONTINUOUS
10
13.9691664173228336
20
-6.1705851181102362
11
13.9691664960629911
21
-6.170585157480315
0
LINE
8
BLACK
6
CONTINUOUS
10
13.9691664960629911
20
-6.170585157480315
11
13.977887519685039
21
-6.1759294094488189
0
LINE
8
BLACK
6
CONTINUOUS
10
13.977887519685039
20
-6.1759294094488189
11
13.9815421259842516
21
-6.1774431889763779
0
LINE
8
BLACK
6
CONTINUOUS
10
13.9815421259842516
20
-6.1774431889763779
11
13.9873374803149595
21
-6.1798437007874014
0
LINE
8
BLACK
6
CONTINUOUS
10
13.9873374803149595
20
-6.1798437007874014
11
13.9972833464566921
21
-6.1822314960629923
0
LINE
8
BLACK
6
CONTINUOUS
10
13.9972833464566921
20
-6.1822314960629923
11
14.0074803149606293
21
-6.1830340157480315
0
LINE
8
BLACK
6
CONTINUOUS
10
14.0074803149606293
20
-6.1830340157480315
11
14.0176772834645664
21
-6.1822314960629923
0
LINE
8
BLACK
6
CONTINUOUS
10
14.0176772834645664
20
-6.1822314960629923
11
14.0276231496062991
21
-6.1798437007874014
0
LINE
8
BLACK
6
CONTINUOUS
10
14.0276231496062991
20
-6.1798437007874014
11
14.0370730708661409
21
-6.1759294094488189
0
LINE
8
BLACK
6
CONTINUOUS
10
14.0370730708661409
20
-6.1759294094488189
11
14.0457942913385825
21
-6.1705850393700787
0
LINE
8
BLACK
6
CONTINUOUS
10
14.0457942913385825
20
-6.1705850393700787
11
14.0535720866141727
21
-6.1639421653543307
0
LINE
8
BLACK
6
CONTINUOUS
10
14.0535720866141727
20
-6.1639421653543307
11
14.0602149606299207
21
-6.1561643700787396
0
LINE
8
BLACK
6
CONTINUOUS
10
14.0602149606299207
20
-6.1561643700787396
11
14.0655593307086608
21
-6.1474431496062989
0
LINE
8
BLACK
6
CONTINUOUS
10
14.0655593307086608
20
-6.1474431496062989
11
14.0694736220472443
21
-6.1379932283464562
0
LINE
8
BLACK
6
CONTINUOUS
10
14.0694736220472443
20
-6.1379932283464562
11
14.0718614173228342
21
-6.1280473622047245
0
LINE
8
BLACK
6
CONTINUOUS
10
14.0718614173228342
20
-6.1280473622047245
11
14.0726639370078743
21
-6.1178503937007873
0
LINE
8
BLACK
6
CONTINUOUS
10
14.0726639370078743
20
-6.1178503937007873
11
14.0718614173228342
21
-6.1076534251968502
0
LINE
8
BLACK
6
CONTINUOUS
10
14.0718614173228342
20
-6.1076534251968502
11
14.0694736220472443
21
-6.0977075590551184
0
LINE
8
BLACK
6
CONTINUOUS
10
14.0694736220472443
20
-6.0977075590551184
11
14.0655593307086608
21
-6.0882576377952757
0
LINE
8
BLACK
6
CONTINUOUS
10
14.0655593307086608
20
-6.0882576377952757
11
14.0655593307086608
21
-6.088257598425197
0
LINE
8
BLACK
6
CONTINUOUS
10
14.0655593307086608
20
-6.088257598425197
11
14.060215078740157
21
-6.0795365748031491
0
LINE
8
BLACK
6
CONTINUOUS
10
14.060215078740157
20
-6.0795365748031491
11
14.0602150393700782
21
-6.0795364960629916
0
LINE
8
BLACK
6
CONTINUOUS
10
14.0602150393700782
20
-6.0795364960629916
11
14.0587143307086606
21
-6.0777794094488184
0
LINE
8
BLACK
6
CONTINUOUS
10
14.0587143307086606
20
-6.0777794094488184
11
14.0535720866141727
21
-6.0717586220472439
0
LINE
8
BLACK
6
CONTINUOUS
10
14.0535720866141727
20
-6.0717586220472439
11
14.0484297637795272
21
-6.0673666535433073
0
LINE
8
BLACK
6
CONTINUOUS
10
14.0484297637795272
20
-6.0673666535433073
11
14.0457941732283462
21
-6.0651156299212596
0
LINE
8
BLACK
6
CONTINUOUS
10
14.0457941732283462
20
-6.0651156299212596
11
14.0457940944881887
21
-6.0651155905511809
0
LINE
8
BLACK
6
CONTINUOUS
10
14.0457940944881887
20
-6.0651155905511809
11
14.0370730708661409
21
-6.059771338582677
0
LINE
8
BLACK
6
CONTINUOUS
10
14.0370730708661409
20
-6.059771338582677
11
14.0276229527559053
21
-6.0558570078740157
0
LINE
8
BLACK
6
CONTINUOUS
10
14.0276229527559053
20
-6.0558570078740157
11
14.0176774015748027
21
-6.0534692913385824
0
LINE
8
BLACK
6
CONTINUOUS
10
14.0176774015748027
20
-6.0534692913385824
11
14.0074803149606293
21
-6.0526667716535432
0
LINE
8
BLACK
6
CONTINUOUS
10
14.0074803149606293
20
-6.0526667716535432
11
13.9972831889763771
21
-6.0534692913385824
0
LINE
8
BLACK
6
CONTINUOUS
10
13.9972831889763771
20
-6.0534692913385824
11
13.9873376377952745
21
-6.0558570078740157
0
LINE
8
BLACK
6
CONTINUOUS
10
13.9873376377952745
20
-6.0558570078740157
11
13.977887519685039
21
-6.059771338582677
0
LINE
8
BLACK
6
CONTINUOUS
10
13.977887519685039
20
-6.059771338582677
11
13.9691664960629911
21
-6.0651155905511809
0
LINE
8
BLACK
6
CONTINUOUS
10
13.9691664960629911
20
-6.0651155905511809
11
13.9691664173228336
21
-6.0651156299212596
0
LINE
8
BLACK
6
CONTINUOUS
10
13.9691664173228336
20
-6.0651156299212596
11
13.9613885433070859
21
-6.0717586220472439
0
LINE
8
BLACK
6
CONTINUOUS
10
13.9613885433070859
20
-6.0717586220472439
11
13.9547455511811016
21
-6.0795364960629916
0
LINE
8
BLACK
6
CONTINUOUS
10
13.9547455511811016
20
-6.0795364960629916
11
13.9547455118110229
21
-6.0795365748031491
0
LINE
8
BLACK
6
CONTINUOUS
10
13.9547455118110229
20
-6.0795365748031491
11
13.949401259842519
21
-6.088257598425197
0
LINE
8
BLACK
6
CONTINUOUS
10
13.949401259842519
20
-6.088257598425197
11
13.9454869291338586
21
-6.0977077165354325
0
LINE
8
BLACK
6
CONTINUOUS
10
13.9454869291338586
20
-6.0977077165354325
11
13.9430992125984243
21
-6.1076532677165352
0
LINE
8
BLACK
6
CONTINUOUS
10
13.9430992125984243
20
-6.1076532677165352
11
13.942296692913386
21
-6.1178503937007873
0
LINE
8
BLACK
6
CONTINUOUS
10
13.942296692913386
20
-6.1178503937007873
11
13.9430992125984243
21
-6.1280474803149607
0
LINE
8
BLACK
6
CONTINUOUS
10
7.6157370078740154
20
-5.7818506299212595
11
7.6181247244094488
21
-5.7917961811023622
0
LINE
8
BLACK
6
CONTINUOUS
10
7.6181247244094488
20
-5.7917961811023622
11
7.6220390551181101
21
-5.8012462992125986
0
LINE
8
BLACK
6
CONTINUOUS
10
7.6220390551181101
20
-5.8012462992125986
11
7.6273833070866139
21
-5.8099673228346456
0
LINE
8
BLACK
6
CONTINUOUS
10
7.6273833070866139
20
-5.8099673228346456
11
7.6273833464566927
21
-5.8099674015748031
0
LINE
8
BLACK
6
CONTINUOUS
10
7.6273833464566927
20
-5.8099674015748031
11
7.627383464566929
21
-5.8099675196850393
0
LINE
8
BLACK
6
CONTINUOUS
10
7.627383464566929
20
-5.8099675196850393
11
7.634026338582677
21
-5.8177453149606295
0
LINE
8
BLACK
6
CONTINUOUS
10
7.634026338582677
20
-5.8177453149606295
11
7.6400471259842515
21
-5.8228875590551183
0
LINE
8
BLACK
6
CONTINUOUS
10
7.6400471259842515
20
-5.8228875590551183
11
7.6418042125984247
21
-5.8243882677165351
0
LINE
8
BLACK
6
CONTINUOUS
10
7.6418042125984247
20
-5.8243882677165351
11
7.6418042913385822
21
-5.8243883070866138
0
LINE
8
BLACK
6
CONTINUOUS
10
7.6418042913385822
20
-5.8243883070866138
11
7.65052531496063
21
-5.8297325590551177
0
LINE
8
BLACK
6
CONTINUOUS
10
7.65052531496063
20
-5.8297325590551177
11
7.6541799212598427
21
-5.8312463385826767
0
LINE
8
BLACK
6
CONTINUOUS
10
7.6541799212598427
20
-5.8312463385826767
11
7.6599752755905506
21
-5.8336468503937002
0
LINE
8
BLACK
6
CONTINUOUS
10
7.6599752755905506
20
-5.8336468503937002
11
7.6699211417322832
21
-5.8360346456692911
0
LINE
8
BLACK
6
CONTINUOUS
10
7.6699211417322832
20
-5.8360346456692911
11
7.6801181102362204
21
-5.8368371653543303
0
LINE
8
BLACK
6
CONTINUOUS
10
7.6801181102362204
20
-5.8368371653543303
11
7.6903150787401575
21
-5.8360346456692911
0
LINE
8
BLACK
6
CONTINUOUS
10
7.6903150787401575
20
-5.8360346456692911
11
7.7002609448818893
21
-5.8336468503937002
0
LINE
8
BLACK
6
CONTINUOUS
10
7.7002609448818893
20
-5.8336468503937002
11
7.709710866141732
21
-5.8297325590551177
0
LINE
8
BLACK
6
CONTINUOUS
10
7.709710866141732
20
-5.8297325590551177
11
7.7184320866141727
21
-5.8243881889763776
0
LINE
8
BLACK
6
CONTINUOUS
10
7.7184320866141727
20
-5.8243881889763776
11
7.7262098818897638
21
-5.8177453149606295
0
LINE
8
BLACK
6
CONTINUOUS
10
7.7262098818897638
20
-5.8177453149606295
11
7.7328527559055118
21
-5.8099675196850393
0
LINE
8
BLACK
6
CONTINUOUS
10
7.7328527559055118
20
-5.8099675196850393
11
7.7381971259842519
21
-5.8012462992125986
0
LINE
8
BLACK
6
CONTINUOUS
10
7.7381971259842519
20
-5.8012462992125986
11
7.7421114173228345
21
-5.7917963779527559
0
LINE
8
BLACK
6
CONTINUOUS
10
7.7421114173228345
20
-5.7917963779527559
11
7.7444992125984253
21
-5.7818505118110233
0
LINE
8
BLACK
6
CONTINUOUS
10
7.7444992125984253
20
-5.7818505118110233
11
7.7453017322834645
21
-5.7716535433070861
0
LINE
8
BLACK
6
CONTINUOUS
10
7.7453017322834645
20
-5.7716535433070861
11
7.7444992125984253
21
-5.7614565748031499
0
LINE
8
BLACK
6
CONTINUOUS
10
7.7444992125984253
20
-5.7614565748031499
11
7.7421114173228345
21
-5.7515107086614172
0
LINE
8
BLACK
6
CONTINUOUS
10
7.7421114173228345
20
-5.7515107086614172
11
7.7381971259842519
21
-5.7420607874015746
0
LINE
8
BLACK
6
CONTINUOUS
10
7.7381971259842519
20
-5.7420607874015746
11
7.7381971259842519
21
-5.7420607480314958
0
LINE
8
BLACK
6
CONTINUOUS
10
7.7381971259842519
20
-5.7420607480314958
11
7.7328528740157481
21
-5.7333397244094488
0
LINE
8
BLACK
6
CONTINUOUS
10
7.7328528740157481
20
-5.7333397244094488
11
7.7328528346456693
21
-5.7333396456692913
0
LINE
8
BLACK
6
CONTINUOUS
10
7.7328528346456693
20
-5.7333396456692913
11
7.7313521259842517
21
-5.7315825590551182
0
LINE
8
BLACK
6
CONTINUOUS
10
7.7313521259842517
20
-5.7315825590551182
11
7.7262098818897638
21
-5.7255617716535427
0
LINE
8
BLACK
6
CONTINUOUS
10
7.7262098818897638
20
-5.7255617716535427
11
7.7210675590551183
21
-5.7211698031496061
0
LINE
8
BLACK
6
CONTINUOUS
10
7.7210675590551183
20
-5.7211698031496061
11
7.7184319685039364
21
-5.7189187795275593
0
LINE
8
BLACK
6
CONTINUOUS
10
7.7184319685039364
20
-5.7189187795275593
11
7.7184318897637789
21
-5.7189187401574806
0
LINE
8
BLACK
6
CONTINUOUS
10
7.7184318897637789
20
-5.7189187401574806
11
7.709710866141732
21
-5.7135744881889758
0
LINE
8
BLACK
6
CONTINUOUS
10
7.709710866141732
20
-5.7135744881889758
11
7.7002607480314955
21
-5.7096601574803145
0
LINE
8
BLACK
6
CONTINUOUS
10
7.7002607480314955
20
-5.7096601574803145
11
7.6903151968503938
21
-5.7072724409448821
0
LINE
8
BLACK
6
CONTINUOUS
10
7.6903151968503938
20
-5.7072724409448821
11
7.6801181102362204
21
-5.706469921259842
0
LINE
8
BLACK
6
CONTINUOUS
10
7.6801181102362204
20
-5.706469921259842
11
7.6699209842519682
21
-5.7072724409448821
0
LINE
8
BLACK
6
CONTINUOUS
10
7.6699209842519682
20
-5.7072724409448821
11
7.6599754330708656
21
-5.7096601574803145
0
LINE
8
BLACK
6
CONTINUOUS
10
7.6599754330708656
20
-5.7096601574803145
11
7.65052531496063
21
-5.7135744881889758
0
LINE
8
BLACK
6
CONTINUOUS
10
7.65052531496063
20
-5.7135744881889758
11
7.6418042913385822
21
-5.7189187401574806
0
LINE
8
BLACK
6
CONTINUOUS
10
7.6418042913385822
20
-5.7189187401574806
11
7.6418042125984247
21
-5.7189187795275593
0
LINE
8
BLACK
6
CONTINUOUS
10
7.6418042125984247
20
-5.7189187795275593
11
7.634026338582677
21
-5.7255617716535427
0
LINE
8
BLACK
6
CONTINUOUS
10
7.634026338582677
20
-5.7255617716535427
11
7.6273833464566927
21
-5.7333396456692913
0
LINE
8
BLACK
6
CONTINUOUS
10
7.6273833464566927
20
-5.7333396456692913
11
7.6273833070866139
21
-5.7333397244094488
0
LINE
8
BLACK
6
CONTINUOUS
10
7.6273833070866139
20
-5.7333397244094488
11
7.6220390551181101
21
-5.7420607480314958
0
LINE
8
BLACK
6
CONTINUOUS
10
7.6220390551181101
20
-5.7420607480314958
11
7.6181247244094488
21
-5.7515108661417322
0
LINE
8
BLACK
6
CONTINUOUS
10
7.6181247244094488
20
-5.7515108661417322
11
7.6157370078740154
21
-5.7614564173228349
0
LINE
8
BLACK
6
CONTINUOUS
10
7.6157370078740154
20
-5.7614564173228349
11
7.6149344881889762
21
-5.7716535433070861
0
LINE
8
BLACK
6
CONTINUOUS
10
7.6149344881889762
20
-5.7716535433070861
11
7.6157370078740154
21
-5.7818506299212595
0
LINE
8
BLACK
6
CONTINUOUS
10
13.8405331496062995
20
-2.9030538582677163
11
13.8405331889763783
21
-2.9030540944881889
0
LINE
8
BLACK
6
CONTINUOUS
10
13.8405331889763783
20
-2.9030540944881889
11
13.8417301968503939
21
-2.9098411417322834
0
LINE
8
BLACK
6
CONTINUOUS
10
13.8417301968503939
20
-2.9098411417322834
11
13.8440876377952744
21
-2.9163172834645668
0
LINE
8
BLACK
6
CONTINUOUS
10
13.8440876377952744
20
-2.9163172834645668
11
13.8440878740157469
21
-2.9163177952755905
0
LINE
8
BLACK
6
CONTINUOUS
10
13.8440878740157469
20
-2.9163177952755905
11
13.8463851968503935
21
-2.920296496062992
0
LINE
8
BLACK
6
CONTINUOUS
10
13.8463851968503935
20
-2.920296496062992
11
13.847533976377953
21
-2.9222860236220471
0
LINE
8
BLACK
6
CONTINUOUS
10
13.847533976377953
20
-2.9222860236220471
11
13.8519642913385823
21
-2.9275654330708663
0
LINE
8
BLACK
6
CONTINUOUS
10
13.8519642913385823
20
-2.9275654330708663
11
13.8572440551181106
21
-2.9319953543307085
0
LINE
8
BLACK
6
CONTINUOUS
10
13.8572440551181106
20
-2.9319953543307085
11
13.8632128740157476
21
-2.9354411417322832
0
LINE
8
BLACK
6
CONTINUOUS
10
13.8632128740157476
20
-2.9354411417322832
11
13.8696893700787403
21
-2.9377981102362205
0
LINE
8
BLACK
6
CONTINUOUS
10
13.8696893700787403
20
-2.9377981102362205
11
13.8764767322834643
21
-2.9389946456692915
0
LINE
8
BLACK
6
CONTINUOUS
10
13.8764767322834643
20
-2.9389946456692915
11
13.8797932283464558
21
-2.9389944881889765
0
LINE
8
BLACK
6
CONTINUOUS
10
13.8797932283464558
20
-2.9389944881889765
11
14.0521916535433071
21
-2.9389948425196848
0
LINE
8
BLACK
6
CONTINUOUS
10
14.0521916535433071
20
-2.9389948425196848
11
14.0521968503937007
21
-2.9389952362204723
0
LINE
8
BLACK
6
CONTINUOUS
10
14.0521968503937007
20
-2.9389952362204723
11
14.052528543307087
21
-2.9389951968503936
0
LINE
8
BLACK
6
CONTINUOUS
10
14.052528543307087
20
-2.9389951968503936
11
14.0525286614173233
21
-2.9389952362204723
0
LINE
8
BLACK
6
CONTINUOUS
10
14.0525286614173233
20
-2.9389952362204723
11
14.0530993307086618
21
-2.9389951574803148
0
LINE
8
BLACK
6
CONTINUOUS
10
14.0530993307086618
20
-2.9389951574803148
11
14.0531031889763778
21
-2.9389962598425194
0
LINE
8
BLACK
6
CONTINUOUS
10
14.0531031889763778
20
-2.9389962598425194
11
14.0551228346456689
21
-2.9389960236220474
0
LINE
8
BLACK
6
CONTINUOUS
10
14.0551228346456689
20
-2.9389960236220474
11
14.0551228346456689
21
-2.9389960629921261
0
LINE
8
BLACK
6
CONTINUOUS
10
14.0551228346456689
20
-2.9389960629921261
11
14.0585687401574795
21
-2.9389956692913386
0
LINE
8
BLACK
6
CONTINUOUS
10
14.0585687401574795
20
-2.9389956692913386
11
14.0585712204724409
21
-2.9389952362204723
0
LINE
8
BLACK
6
CONTINUOUS
10
14.0585712204724409
20
-2.9389952362204723
11
14.059019724409449
21
-2.938916062992126
0
LINE
8
BLACK
6
CONTINUOUS
10
14.059019724409449
20
-2.938916062992126
11
14.0653557086614178
21
-2.9377982283464568
0
LINE
8
BLACK
6
CONTINUOUS
10
14.0653557086614178
20
-2.9377982283464568
11
14.0718316535433061
21
-2.9354404724409449
0
LINE
8
BLACK
6
CONTINUOUS
10
14.0718316535433061
20
-2.9354404724409449
11
14.0777998425196849
21
-2.9319940944881888
0
LINE
8
BLACK
6
CONTINUOUS
10
14.0777998425196849
20
-2.9319940944881888
11
14.0830789763779531
21
-2.9275637795275591
0
LINE
8
BLACK
6
CONTINUOUS
10
14.0830789763779531
20
-2.9275637795275591
11
14.0875086220472436
21
-2.9222841338582675
0
LINE
8
BLACK
6
CONTINUOUS
10
14.0875086220472436
20
-2.9222841338582675
11
14.0909542913385817
21
-2.9163155118110238
0
LINE
8
BLACK
6
CONTINUOUS
10
14.0909542913385817
20
-2.9163155118110238
11
14.093311259842519
21
-2.9098392913385824
0
LINE
8
BLACK
6
CONTINUOUS
10
14.093311259842519
20
-2.9098392913385824
11
14.0945079133858258
21
-2.9030522047244092
0
LINE
8
BLACK
6
CONTINUOUS
10
14.0945079133858258
20
-2.9030522047244092
11
14.094507874015747
21
-2.8996062992125982
0
LINE
8
BLACK
6
CONTINUOUS
10
14.094507874015747
20
-2.8996062992125982
11
14.094507874015747
21
-2.8970121259842521
0
LINE
8
BLACK
6
CONTINUOUS
10
14.094507874015747
20
-2.8970121259842521
11
14.0945082677165345
21
-2.7096368897637793
0
LINE
8
BLACK
6
CONTINUOUS
10
14.0945082677165345
20
-2.7096368897637793
11
14.0945086220472433
21
-2.7096325196850395
0
LINE
8
BLACK
6
CONTINUOUS
10
14.0945086220472433
20
-2.7096325196850395
11
14.0945085826771646
21
-2.709283307086614
0
LINE
8
BLACK
6
CONTINUOUS
10
14.0945085826771646
20
-2.709283307086614
11
14.0945086220472433
21
-2.7092832283464565
0
LINE
8
BLACK
6
CONTINUOUS
10
14.0945086220472433
20
-2.7092832283464565
11
14.094508346456692
21
-2.70668905511811
0
LINE
8
BLACK
6
CONTINUOUS
10
14.094508346456692
20
-2.70668905511811
11
14.094508346456692
21
-2.7040968503937006
0
LINE
8
BLACK
6
CONTINUOUS
10
14.094508346456692
20
-2.7040968503937006
11
14.094508346456692
21
-2.7037791338582675
0
LINE
8
BLACK
6
CONTINUOUS
10
14.094508346456692
20
-2.7037791338582675
11
14.0945071653543312
21
-2.7037621259842517
0
LINE
8
BLACK
6
CONTINUOUS
10
14.0945071653543312
20
-2.7037621259842517
11
14.0945071653543312
21
-2.703243307086614
0
LINE
8
BLACK
6
CONTINUOUS
10
14.0945071653543312
20
-2.703243307086614
11
14.0933101574803139
21
-2.6964579133858266
0
LINE
8
BLACK
6
CONTINUOUS
10
14.0933101574803139
20
-2.6964579133858266
11
14.0933099999999989
21
-2.6964570078740158
0
LINE
8
BLACK
6
CONTINUOUS
10
14.0933099999999989
20
-2.6964570078740158
11
14.0933099606299201
21
-2.6964568897637795
0
LINE
8
BLACK
6
CONTINUOUS
10
14.0933099606299201
20
-2.6964568897637795
11
14.0933099212598414
21
-2.696456653543307
0
LINE
8
BLACK
6
CONTINUOUS
10
14.0933099212598414
20
-2.696456653543307
11
14.0909525590551183
21
-2.6899809448818899
0
LINE
8
BLACK
6
CONTINUOUS
10
14.0909525590551183
20
-2.6899809448818899
11
14.0902255905511815
21
-2.6887219685039367
0
LINE
8
BLACK
6
CONTINUOUS
10
14.0902255905511815
20
-2.6887219685039367
11
14.0875066141732272
21
-2.6840129527559053
0
LINE
8
BLACK
6
CONTINUOUS
10
14.0875066141732272
20
-2.6840129527559053
11
14.0875065748031485
21
-2.6840129133858266
0
LINE
8
BLACK
6
CONTINUOUS
10
14.0875065748031485
20
-2.6840129133858266
11
14.0830767322834642
21
-2.678733818897638
0
LINE
8
BLACK
6
CONTINUOUS
10
14.0830767322834642
20
-2.678733818897638
11
14.077797598425196
21
-2.6743040944881891
0
LINE
8
BLACK
6
CONTINUOUS
10
14.077797598425196
20
-2.6743040944881891
11
14.0718295275590553
21
-2.6708582283464568
0
LINE
8
BLACK
6
CONTINUOUS
10
14.0718295275590553
20
-2.6708582283464568
11
14.065353937007874
21
-2.6685009842519682
0
LINE
8
BLACK
6
CONTINUOUS
10
14.065353937007874
20
-2.6685009842519682
11
14.0653537401574802
21
-2.6685009448818895
0
LINE
8
BLACK
6
CONTINUOUS
10
14.0653537401574802
20
-2.6685009448818895
11
14.0585670866141736
21
-2.6673038188976377
0
LINE
8
BLACK
6
CONTINUOUS
10
14.0585670866141736
20
-2.6673038188976377
11
14.0585668503937011
21
-2.6673037795275589
0
LINE
8
BLACK
6
CONTINUOUS
10
14.0585668503937011
20
-2.6673037795275589
11
14.0580141338582667
21
-2.6673037401574802
0
LINE
8
BLACK
6
CONTINUOUS
10
14.0580141338582667
20
-2.6673037401574802
11
14.058011023622047
21
-2.6673035433070864
0
LINE
8
BLACK
6
CONTINUOUS
10
14.058011023622047
20
-2.6673035433070864
11
14.0550511023622047
21
-2.6673035433070864
0
LINE
8
BLACK
6
CONTINUOUS
10
14.0550511023622047
20
-2.6673035433070864
11
14.0522565354330702
21
-2.6673033070866139
0
LINE
8
BLACK
6
CONTINUOUS
10
14.0522565354330702
20
-2.6673033070866139
11
14.0522522834645667
21
-2.6673035039370077
0
LINE
8
BLACK
6
CONTINUOUS
10
14.0522522834645667
20
-2.6673035039370077
11
13.8825154724409447
21
-2.6673031496062993
0
LINE
8
BLACK
6
CONTINUOUS
10
13.8825154724409447
20
-2.6673031496062993
11
13.882515433070866
21
-2.6673031496062993
0
LINE
8
BLACK
6
CONTINUOUS
10
13.882515433070866
20
-2.6673031496062993
11
13.8799212598425186
21
-2.6673031496062993
0
LINE
8
BLACK
6
CONTINUOUS
10
13.8799212598425186
20
-2.6673031496062993
11
13.8773271259842517
21
-2.6673031496062993
0
LINE
8
BLACK
6
CONTINUOUS
10
13.8773271259842517
20
-2.6673031496062993
11
13.8770275984251974
21
-2.6673031496062993
0
LINE
8
BLACK
6
CONTINUOUS
10
13.8770275984251974
20
-2.6673031496062993
11
13.8769918503937006
21
-2.6673054724409448
0
LINE
8
BLACK
6
CONTINUOUS
10
13.8769918503937006
20
-2.6673054724409448
11
13.8764753149606292
21
-2.6673054724409448
0
LINE
8
BLACK
6
CONTINUOUS
10
13.8764753149606292
20
-2.6673054724409448
11
13.8696883464566927
21
-2.6685021653543308
0
LINE
8
BLACK
6
CONTINUOUS
10
13.8696883464566927
20
-2.6685021653543308
11
13.8696883070866139
21
-2.6685021653543308
0
LINE
8
BLACK
6
CONTINUOUS
10
13.8696883070866139
20
-2.6685021653543308
11
13.8632125984251964
21
-2.6708590551181102
0
LINE
8
BLACK
6
CONTINUOUS
10
13.8632125984251964
20
-2.6708590551181102
11
13.8632121653543301
21
-2.6708592519685039
0
LINE
8
BLACK
6
CONTINUOUS
10
13.8632121653543301
20
-2.6708592519685039
11
13.8572442519685044
21
-2.6743046850393699
0
LINE
8
BLACK
6
CONTINUOUS
10
13.8572442519685044
20
-2.6743046850393699
11
13.8572440551181106
21
-2.6743048425196849
0
LINE
8
BLACK
6
CONTINUOUS
10
13.8572440551181106
20
-2.6743048425196849
11
13.8519645669291336
21
-2.6787346062992126
0
LINE
8
BLACK
6
CONTINUOUS
10
13.8519645669291336
20
-2.6787346062992126
11
13.8519644488188973
21
-2.6787346850393701
0
LINE
8
BLACK
6
CONTINUOUS
10
13.8519644488188973
20
-2.6787346850393701
11
13.8475344488188981
21
-2.6840138188976379
0
LINE
8
BLACK
6
CONTINUOUS
10
13.8475344488188981
20
-2.6840138188976379
11
13.8440885433070857
21
-2.6899817716535432
0
LINE
8
BLACK
6
CONTINUOUS
10
13.8440885433070857
20
-2.6899817716535432
11
13.8440884251968495
21
-2.6899820078740158
0
LINE
8
BLACK
6
CONTINUOUS
10
13.8440884251968495
20
-2.6899820078740158
11
13.8417311023622052
21
-2.6964578346456691
0
LINE
8
BLACK
6
CONTINUOUS
10
13.8417311023622052
20
-2.6964578346456691
11
13.8417310236220477
21
-2.6964582283464567
0
LINE
8
BLACK
6
CONTINUOUS
10
13.8417310236220477
20
-2.6964582283464567
11
13.8405340157480303
21
-2.7032448031496061
0
LINE
8
BLACK
6
CONTINUOUS
10
13.8405340157480303
20
-2.7032448031496061
11
13.8405339763779516
21
-2.7032449999999999
0
LINE
8
BLACK
6
CONTINUOUS
10
13.8405339763779516
20
-2.7032449999999999
11
13.8405339763779516
21
-2.7037973622047242
0
LINE
8
BLACK
6
CONTINUOUS
10
13.8405339763779516
20
-2.7037973622047242
11
13.8405338582677171
21
-2.7037994881889764
0
LINE
8
BLACK
6
CONTINUOUS
10
13.8405338582677171
20
-2.7037994881889764
11
13.8405338582677171
21
-2.7066905905511809
0
LINE
8
BLACK
6
CONTINUOUS
10
13.8405338582677171
20
-2.7066905905511809
11
13.8405337007874021
21
-2.7095606299212598
0
LINE
8
BLACK
6
CONTINUOUS
10
13.8405337007874021
20
-2.7095606299212598
11
13.8405337795275596
21
-2.7095627165354328
0
LINE
8
BLACK
6
CONTINUOUS
10
13.8405337795275596
20
-2.7095627165354328
11
13.8405333858267721
21
-2.8967357086614172
0
LINE
8
BLACK
6
CONTINUOUS
10
13.8405333858267721
20
-2.8967357086614172
11
13.8405332677165358
21
-2.8967378346456694
0
LINE
8
BLACK
6
CONTINUOUS
10
13.8405332677165358
20
-2.8967378346456694
11
13.8405332677165358
21
-2.8975855511811024
0
LINE
8
BLACK
6
CONTINUOUS
10
13.8405332677165358
20
-2.8975855511811024
11
13.8405329921259845
21
-2.8975864566929133
0
LINE
8
BLACK
6
CONTINUOUS
10
13.8405329921259845
20
-2.8975864566929133
11
13.8405331496062995
21
-2.9030538582677163
0
LINE
8
BLACK
6
CONTINUOUS
10
1.6596346456692912
20
-2.4532455118110237
11
1.6620223622047243
21
-2.4631910629921259
0
LINE
8
BLACK
6
CONTINUOUS
10
1.6620223622047243
20
-2.4631910629921259
11
1.6659366929133859
21
-2.4726411811023623
0
LINE
8
BLACK
6
CONTINUOUS
10
1.6659366929133859
20
-2.4726411811023623
11
1.6712809448818897
21
-2.4813622047244093
0
LINE
8
BLACK
6
CONTINUOUS
10
1.6712809448818897
20
-2.4813622047244093
11
1.6712809842519685
21
-2.4813622834645668
0
LINE
8
BLACK
6
CONTINUOUS
10
1.6712809842519685
20
-2.4813622834645668
11
1.6712811023622047
21
-2.481362401574803
0
LINE
8
BLACK
6
CONTINUOUS
10
1.6712811023622047
20
-2.481362401574803
11
1.6779239763779528
21
-2.4891401968503937
0
LINE
8
BLACK
6
CONTINUOUS
10
1.6779239763779528
20
-2.4891401968503937
11
1.6839447637795275
21
-2.4942824409448821
0
LINE
8
BLACK
6
CONTINUOUS
10
1.6839447637795275
20
-2.4942824409448821
11
1.6857018503937007
21
-2.4957831496062992
0
LINE
8
BLACK
6
CONTINUOUS
10
1.6857018503937007
20
-2.4957831496062992
11
1.6857019291338582
21
-2.495783188976378
0
LINE
8
BLACK
6
CONTINUOUS
10
1.6857019291338582
20
-2.495783188976378
11
1.6944229527559054
21
-2.5011274409448818
0
LINE
8
BLACK
6
CONTINUOUS
10
1.6944229527559054
20
-2.5011274409448818
11
1.698077559055118
21
-2.5026412204724409
0
LINE
8
BLACK
6
CONTINUOUS
10
1.698077559055118
20
-2.5026412204724409
11
1.7038729133858268
21
-2.5050417322834644
0
LINE
8
BLACK
6
CONTINUOUS
10
1.7038729133858268
20
-2.5050417322834644
11
1.713818779527559
21
-2.5074295275590552
0
LINE
8
BLACK
6
CONTINUOUS
10
1.713818779527559
20
-2.5074295275590552
11
1.7240157480314959
21
-2.5082320472440944
0
LINE
8
BLACK
6
CONTINUOUS
10
1.7240157480314959
20
-2.5082320472440944
11
1.7342127165354331
21
-2.5074295275590552
0
LINE
8
BLACK
6
CONTINUOUS
10
1.7342127165354331
20
-2.5074295275590552
11
1.7441585826771653
21
-2.5050417322834644
0
LINE
8
BLACK
6
CONTINUOUS
10
1.7441585826771653
20
-2.5050417322834644
11
1.7536085039370077
21
-2.5011274409448818
0
LINE
8
BLACK
6
CONTINUOUS
10
1.7536085039370077
20
-2.5011274409448818
11
1.7623297244094487
21
-2.4957830708661417
0
LINE
8
BLACK
6
CONTINUOUS
10
1.7623297244094487
20
-2.4957830708661417
11
1.7701075196850393
21
-2.4891401968503937
0
LINE
8
BLACK
6
CONTINUOUS
10
1.7701075196850393
20
-2.4891401968503937
11
1.7767503937007874
21
-2.481362401574803
0
LINE
8
BLACK
6
CONTINUOUS
10
1.7767503937007874
20
-2.481362401574803
11
1.7820947637795275
21
-2.4726411811023623
0
LINE
8
BLACK
6
CONTINUOUS
10
1.7820947637795275
20
-2.4726411811023623
11
1.7860090551181103
21
-2.4631912598425196
0
LINE
8
BLACK
6
CONTINUOUS
10
1.7860090551181103
20
-2.4631912598425196
11
1.7883968503937007
21
-2.4532453937007874
0
LINE
8
BLACK
6
CONTINUOUS
10
1.7883968503937007
20
-2.4532453937007874
11
1.7891993700787401
21
-2.4430484251968503
0
LINE
8
BLACK
6
CONTINUOUS
10
1.7891993700787401
20
-2.4430484251968503
11
1.7891992913385826
21
-2.4430472440944881
0
LINE
8
BLACK
6
CONTINUOUS
10
1.7891992913385826
20
-2.4430472440944881
11
1.7883968503937007
21
-2.4328514566929131
0
LINE
8
BLACK
6
CONTINUOUS
10
1.7883968503937007
20
-2.4328514566929131
11
1.7860090551181103
21
-2.4229055905511809
0
LINE
8
BLACK
6
CONTINUOUS
10
1.7860090551181103
20
-2.4229055905511809
11
1.7820947637795275
21
-2.4134556692913387
0
LINE
8
BLACK
6
CONTINUOUS
10
1.7820947637795275
20
-2.4134556692913387
11
1.7820947637795275
21
-2.4134556299212599
0
LINE
8
BLACK
6
CONTINUOUS
10
1.7820947637795275
20
-2.4134556299212599
11
1.7767505118110236
21
-2.4047346062992125
0
LINE
8
BLACK
6
CONTINUOUS
10
1.7767505118110236
20
-2.4047346062992125
11
1.7767504724409449
21
-2.404734527559055
0
LINE
8
BLACK
6
CONTINUOUS
10
1.7767504724409449
20
-2.404734527559055
11
1.7751225196850393
21
-2.4028284645669289
0
LINE
8
BLACK
6
CONTINUOUS
10
1.7751225196850393
20
-2.4028284645669289
11
1.7701075196850393
21
-2.3969566535433069
0
LINE
8
BLACK
6
CONTINUOUS
10
1.7701075196850393
20
-2.3969566535433069
11
1.7649651968503937
21
-2.3925646850393698
0
LINE
8
BLACK
6
CONTINUOUS
10
1.7649651968503937
20
-2.3925646850393698
11
1.7623296062992126
21
-2.3903136614173226
0
LINE
8
BLACK
6
CONTINUOUS
10
1.7623296062992126
20
-2.3903136614173226
11
1.7623295275590551
21
-2.3903136220472438
0
LINE
8
BLACK
6
CONTINUOUS
10
1.7623295275590551
20
-2.3903136220472438
11
1.7536085039370077
21
-2.38496937007874
0
LINE
8
BLACK
6
CONTINUOUS
10
1.7536085039370077
20
-2.38496937007874
11
1.7441583858267715
21
-2.3810550393700787
0
LINE
8
BLACK
6
CONTINUOUS
10
1.7441583858267715
20
-2.3810550393700787
11
1.7342128346456693
21
-2.3786673228346458
0
LINE
8
BLACK
6
CONTINUOUS
10
1.7342128346456693
20
-2.3786673228346458
11
1.7240157480314959
21
-2.3778648031496061
0
LINE
8
BLACK
6
CONTINUOUS
10
1.7240157480314959
20
-2.3778648031496061
11
1.713818622047244
21
-2.3786673228346458
0
LINE
8
BLACK
6
CONTINUOUS
10
1.713818622047244
20
-2.3786673228346458
11
1.7038730708661416
21
-2.3810550393700787
0
LINE
8
BLACK
6
CONTINUOUS
10
1.7038730708661416
20
-2.3810550393700787
11
1.6944229527559054
21
-2.38496937007874
0
LINE
8
BLACK
6
CONTINUOUS
10
1.6944229527559054
20
-2.38496937007874
11
1.6857019291338582
21
-2.3903136220472438
0
LINE
8
BLACK
6
CONTINUOUS
10
1.6857019291338582
20
-2.3903136220472438
11
1.6857018503937007
21
-2.3903136614173226
0
LINE
8
BLACK
6
CONTINUOUS
10
1.6857018503937007
20
-2.3903136614173226
11
1.6779239763779528
21
-2.3969566535433069
0
LINE
8
BLACK
6
CONTINUOUS
10
1.6779239763779528
20
-2.3969566535433069
11
1.6712809842519685
21
-2.404734527559055
0
LINE
8
BLACK
6
CONTINUOUS
10
1.6712809842519685
20
-2.404734527559055
11
1.6712809448818897
21
-2.4047346062992125
0
LINE
8
BLACK
6
CONTINUOUS
10
1.6712809448818897
20
-2.4047346062992125
11
1.6659366929133859
21
-2.4134556299212599
0
LINE
8
BLACK
6
CONTINUOUS
10
1.6659366929133859
20
-2.4134556299212599
11
1.6620223622047243
21
-2.4229057480314959
0
LINE
8
BLACK
6
CONTINUOUS
10
1.6620223622047243
20
-2.4229057480314959
11
1.6596346456692912
21
-2.4328512992125986
0
LINE
8
BLACK
6
CONTINUOUS
10
1.6596346456692912
20
-2.4328512992125986
11
1.658832125984252
21
-2.4430484251968503
0
LINE
8
BLACK
6
CONTINUOUS
10
1.658832125984252
20
-2.4430484251968503
11
1.6596346456692912
21
-2.4532455118110237
0
LINE
8
BLACK
6
CONTINUOUS
10
13.9430992125984243
20
-2.4532443307086615
11
13.9454869291338586
21
-2.4631898818897637
0
LINE
8
BLACK
6
CONTINUOUS
10
13.9454869291338586
20
-2.4631898818897637
11
13.949401259842519
21
-2.4726399999999997
0
LINE
8
BLACK
6
CONTINUOUS
10
13.949401259842519
20
-2.4726399999999997
11
13.9547455118110229
21
-2.4813610236220471
0
LINE
8
BLACK
6
CONTINUOUS
10
13.9547455118110229
20
-2.4813610236220471
11
13.9547455511811016
21
-2.4813611023622046
0
LINE
8
BLACK
6
CONTINUOUS
10
13.9547455511811016
20
-2.4813611023622046
11
13.9569965748031493
21
-2.4839966929133857
0
LINE
8
BLACK
6
CONTINUOUS
10
13.9569965748031493
20
-2.4839966929133857
11
13.9613885433070859
21
-2.4891390157480315
0
LINE
8
BLACK
6
CONTINUOUS
10
13.9613885433070859
20
-2.4891390157480315
11
13.9674093307086604
21
-2.4942812598425195
0
LINE
8
BLACK
6
CONTINUOUS
10
13.9674093307086604
20
-2.4942812598425195
11
13.9691664173228336
21
-2.4957819685039371
0
LINE
8
BLACK
6
CONTINUOUS
10
13.9691664173228336
20
-2.4957819685039371
11
13.9691664960629911
21
-2.4957820078740158
0
LINE
8
BLACK
6
CONTINUOUS
10
13.9691664960629911
20
-2.4957820078740158
11
13.977887519685039
21
-2.5011262598425197
0
LINE
8
BLACK
6
CONTINUOUS
10
13.977887519685039
20
-2.5011262598425197
11
13.9815421259842516
21
-2.5026400393700787
0
LINE
8
BLACK
6
CONTINUOUS
10
13.9815421259842516
20
-2.5026400393700787
11
13.9873374803149595
21
-2.5050405511811022
0
LINE
8
BLACK
6
CONTINUOUS
10
13.9873374803149595
20
-2.5050405511811022
11
13.9972833464566921
21
-2.5074283464566927
0
LINE
8
BLACK
6
CONTINUOUS
10
13.9972833464566921
20
-2.5074283464566927
11
14.0074803149606293
21
-2.5082308661417323
0
LINE
8
BLACK
6
CONTINUOUS
10
14.0074803149606293
20
-2.5082308661417323
11
14.0176772834645664
21
-2.5074283464566927
0
LINE
8
BLACK
6
CONTINUOUS
10
14.0176772834645664
20
-2.5074283464566927
11
14.0276231496062991
21
-2.5050405511811022
0
LINE
8
BLACK
6
CONTINUOUS
10
14.0276231496062991
20
-2.5050405511811022
11
14.0370730708661409
21
-2.5011262598425197
0
LINE
8
BLACK
6
CONTINUOUS
10
14.0370730708661409
20
-2.5011262598425197
11
14.0457942913385825
21
-2.4957818897637796
0
LINE
8
BLACK
6
CONTINUOUS
10
14.0457942913385825
20
-2.4957818897637796
11
14.0535720866141727
21
-2.4891390157480315
0
LINE
8
BLACK
6
CONTINUOUS
10
14.0535720866141727
20
-2.4891390157480315
11
14.0602149606299207
21
-2.4813612204724409
0
LINE
8
BLACK
6
CONTINUOUS
10
14.0602149606299207
20
-2.4813612204724409
11
14.0655593307086608
21
-2.4726399999999997
0
LINE
8
BLACK
6
CONTINUOUS
10
14.0655593307086608
20
-2.4726399999999997
11
14.0694736220472443
21
-2.4631900787401575
0
LINE
8
BLACK
6
CONTINUOUS
10
14.0694736220472443
20
-2.4631900787401575
11
14.0718614173228342
21
-2.4532442125984253
0
LINE
8
BLACK
6
CONTINUOUS
10
14.0718614173228342
20
-2.4532442125984253
11
14.0726639370078743
21
-2.4430472440944881
0
LINE
8
BLACK
6
CONTINUOUS
10
14.0726639370078743
20
-2.4430472440944881
11
14.0718614173228342
21
-2.432850275590551
0
LINE
8
BLACK
6
CONTINUOUS
10
14.0718614173228342
20
-2.432850275590551
11
14.0694736220472443
21
-2.4229044094488188
0
LINE
8
BLACK
6
CONTINUOUS
10
14.0694736220472443
20
-2.4229044094488188
11
14.0666839763779521
21
-2.4161696456692914
0
LINE
8
BLACK
6
CONTINUOUS
10
14.0666839763779521
20
-2.4161696456692914
11
14.0655593307086608
21
-2.4134544488188974
0
LINE
8
BLACK
6
CONTINUOUS
10
14.0655593307086608
20
-2.4134544488188974
11
14.060215078740157
21
-2.4047334251968504
0
LINE
8
BLACK
6
CONTINUOUS
10
14.060215078740157
20
-2.4047334251968504
11
14.0602150393700782
21
-2.4047333464566929
0
LINE
8
BLACK
6
CONTINUOUS
10
14.0602150393700782
20
-2.4047333464566929
11
14.0585877952755904
21
-2.4028281102362206
0
LINE
8
BLACK
6
CONTINUOUS
10
14.0585877952755904
20
-2.4028281102362206
11
14.0535720866141727
21
-2.3969554724409448
0
LINE
8
BLACK
6
CONTINUOUS
10
14.0535720866141727
20
-2.3969554724409448
11
14.0460716535433061
21
-2.3905494881889764
0
LINE
8
BLACK
6
CONTINUOUS
10
14.0460716535433061
20
-2.3905494881889764
11
14.0457941732283462
21
-2.3903124803149605
0
LINE
8
BLACK
6
CONTINUOUS
10
14.0457941732283462
20
-2.3903124803149605
11
14.0457940944881887
21
-2.3903124409448817
0
LINE
8
BLACK
6
CONTINUOUS
10
14.0457940944881887
20
-2.3903124409448817
11
14.0370730708661409
21
-2.3849681889763779
0
LINE
8
BLACK
6
CONTINUOUS
10
14.0370730708661409
20
-2.3849681889763779
11
14.0276259842519675
21
-2.3810551181102362
0
LINE
8
BLACK
6
CONTINUOUS
10
14.0276259842519675
20
-2.3810551181102362
11
14.0276231496062991
21
-2.381053937007874
0
LINE
8
BLACK
6
CONTINUOUS
10
14.0276231496062991
20
-2.381053937007874
11
14.0276231102362203
21
-2.3810538976377953
0
LINE
8
BLACK
6
CONTINUOUS
10
14.0276231102362203
20
-2.3810538976377953
11
14.0276229527559053
21
-2.3810538582677165
0
LINE
8
BLACK
6
CONTINUOUS
10
14.0276229527559053
20
-2.3810538582677165
11
14.0176774015748027
21
-2.3786661417322832
0
LINE
8
BLACK
6
CONTINUOUS
10
14.0176774015748027
20
-2.3786661417322832
11
14.0074803149606293
21
-2.377863622047244
0
LINE
8
BLACK
6
CONTINUOUS
10
14.0074803149606293
20
-2.377863622047244
11
13.9972831889763771
21
-2.3786661417322832
0
LINE
8
BLACK
6
CONTINUOUS
10
13.9972831889763771
20
-2.3786661417322832
11
13.9873376377952745
21
-2.3810538582677165
0
LINE
8
BLACK
6
CONTINUOUS
10
13.9873376377952745
20
-2.3810538582677165
11
13.977887519685039
21
-2.3849681889763779
0
LINE
8
BLACK
6
CONTINUOUS
10
13.977887519685039
20
-2.3849681889763779
11
13.9691664960629911
21
-2.3903124409448817
0
LINE
8
BLACK
6
CONTINUOUS
10
13.9691664960629911
20
-2.3903124409448817
11
13.9691664173228336
21
-2.3903124803149605
0
LINE
8
BLACK
6
CONTINUOUS
10
13.9691664173228336
20
-2.3903124803149605
11
13.9613885433070859
21
-2.3969554724409448
0
LINE
8
BLACK
6
CONTINUOUS
10
13.9613885433070859
20
-2.3969554724409448
11
13.9547455511811016
21
-2.4047333464566929
0
LINE
8
BLACK
6
CONTINUOUS
10
13.9547455511811016
20
-2.4047333464566929
11
13.9547455118110229
21
-2.4047334251968504
0
LINE
8
BLACK
6
CONTINUOUS
10
13.9547455118110229
20
-2.4047334251968504
11
13.949401259842519
21
-2.4134544488188974
0
LINE
8
BLACK
6
CONTINUOUS
10
13.949401259842519
20
-2.4134544488188974
11
13.9454869291338586
21
-2.4229045669291338
0
LINE
8
BLACK
6
CONTINUOUS
10
13.9454869291338586
20
-2.4229045669291338
11
13.9430992125984243
21
-2.432850118110236
0
LINE
8
BLACK
6
CONTINUOUS
10
13.9430992125984243
20
-2.432850118110236
11
13.942296692913386
21
-2.4430472440944881
0
LINE
8
BLACK
6
CONTINUOUS
10
13.942296692913386
20
-2.4430472440944881
11
13.9430992125984243
21
-2.4532443307086615
  0
ENDSEC
  0
EOF
