  0
SECTION
  2
HEADER
  9
$ANGBASE
  50
0.0
  9
$ANGDIR
  70
1
  9
$MEASUREMENT
  70
0
  0
ENDSEC
  0
SECTION
  2
TABLES
  0
TABLE
  2
LTYPE
  70
4
  0
LTYPE
  5
40F
  2
CONTINUOUS
  70
0
  3
Solid line
  72
65
  73
0
  40
0.0
  0
LTYPE
  5
410
  2
DASHDOT
 70
0
  3
Dash Dot ____ _ ____ _
 72
65
 73
4
 40
2.0
 49
1.25
 49
-0.25
 49
0.25
 49
-0.25
  0
LTYPE
  5
411
  2
DASHED
 70
0
  3
Dashed __ __ __ __ __
 72
65
 73
2
 40
0.75
 49
0.5
 49
-0.25
  0
LTYPE
  5
43B
  2
DOTTED
 70
0
  3
Dotted .  .  .  .
 72
65
 73
2
 40
0.2
 49
0.0
 49
-0.2
  0
ENDTAB
  0
TABLE
  2
STYLE
  70
4
  0
STYLE
  2
KICAD
  70
0
  40
0
  41
1
  42
1
  50
0
  71
0
  3
isocp.shx
  0
STYLE
  2
KICADB
  70
0
  40
0
  41
1
  42
1
  50
0
  71
0
  3
isocp.shx
  0
STYLE
  2
KICADI
  70
0
  40
0
  41
1
  42
1
  50
15
  71
0
  3
isocp.shx
  0
STYLE
  2
KICADBI
  70
0
  40
0
  41
1
  42
1
  50
15
  71
0
  3
isocp.shx
  0
ENDTAB
  0
TABLE
  2
LAYER
  70
1
  0
LAYER
  2
BLACK
  70
0
  62
7
  6
CONTINUOUS
  0
ENDTAB
  0
ENDSEC
  0
SECTION
  2
ENTITIES
0
LINE
8
BLACK
6
CONTINUOUS
10
8.4638475590551181
20
-4.1838862204724405
11
8.5287125196850386
21
-4.2000281889763782
0
LINE
8
BLACK
6
CONTINUOUS
10
8.5287125196850386
20
-4.2000281889763782
11
8.5866698425196848
21
-4.2259195669291341
0
LINE
8
BLACK
6
CONTINUOUS
10
8.5866698425196848
20
-4.2259195669291341
11
8.636805157480314
21
-4.2606553937007874
0
LINE
8
BLACK
6
CONTINUOUS
10
8.636805157480314
20
-4.2606553937007874
11
8.6782042125984251
21
-4.3033307086614174
0
LINE
8
BLACK
6
CONTINUOUS
10
8.6782042125984251
20
-4.3033307086614174
11
8.7099527165354331
21
-4.3530405118110238
0
LINE
8
BLACK
6
CONTINUOUS
10
8.7099527165354331
20
-4.3530405118110238
11
8.7311362598425202
21
-4.4088798425196849
0
LINE
8
BLACK
6
CONTINUOUS
10
8.7311362598425202
20
-4.4088798425196849
11
8.7408405905511817
21
-4.46994374015748
0
LINE
8
BLACK
6
CONTINUOUS
10
8.7408405905511817
20
-4.46994374015748
11
8.7397565354330702
21
-4.5216222440944884
0
LINE
8
BLACK
6
CONTINUOUS
10
8.7397565354330702
20
-4.5216222440944884
11
8.7261042519685041
21
-4.5956414566929134
0
LINE
8
BLACK
6
CONTINUOUS
10
8.7261042519685041
20
-4.5956414566929134
11
8.7006938976377945
21
-4.6660753149606302
0
LINE
8
BLACK
6
CONTINUOUS
10
8.7006938976377945
20
-4.6660753149606302
11
8.6647957086614174
21
-4.731738937007874
0
LINE
8
BLACK
6
CONTINUOUS
10
8.6647957086614174
20
-4.731738937007874
11
8.6196798031496069
21
-4.7914474803149609
0
LINE
8
BLACK
6
CONTINUOUS
10
8.6196798031496069
20
-4.7914474803149609
11
8.5666164173228339
21
-4.8440161417322836
0
LINE
8
BLACK
6
CONTINUOUS
10
8.5666164173228339
20
-4.8440161417322836
11
8.5068757086614166
21
-4.8882600393700786
0
LINE
8
BLACK
6
CONTINUOUS
10
8.5068757086614166
20
-4.8882600393700786
11
8.4417278740157471
21
-4.9229943307086614
0
LINE
8
BLACK
6
CONTINUOUS
10
8.4417278740157471
20
-4.9229943307086614
11
8.3724430314960632
21
-4.9470342519685042
0
LINE
8
BLACK
6
CONTINUOUS
10
8.3724430314960632
20
-4.9470342519685042
11
8.3002914173228337
21
-4.9591948425196852
0
LINE
8
BLACK
6
CONTINUOUS
10
8.3002914173228337
20
-4.9591948425196852
11
8.2692958267716534
21
-4.9604753543307085
0
LINE
8
BLACK
6
CONTINUOUS
10
8.2692958267716534
20
-4.9604753543307085
11
8.2344966141732279
21
-4.9585555905511809
0
LINE
8
BLACK
6
CONTINUOUS
10
8.2344966141732279
20
-4.9585555905511809
11
8.1953990157480305
21
-4.9532214173228342
0
LINE
8
BLACK
6
CONTINUOUS
10
8.1953990157480305
20
-4.9532214173228342
11
8.1564746062992128
21
-4.9453748425196853
0
LINE
8
BLACK
6
CONTINUOUS
10
8.1564746062992128
20
-4.9453748425196853
11
8.1221949999999996
21
-4.9359177165354327
0
LINE
8
BLACK
6
CONTINUOUS
10
8.1221949999999996
20
-4.9359177165354327
11
8.097031811023621
21
-4.9257520472440941
0
LINE
8
BLACK
6
CONTINUOUS
10
8.097031811023621
20
-4.9257520472440941
11
8.0969634251968507
21
-4.9257154330708657
0
LINE
8
BLACK
6
CONTINUOUS
10
8.0969634251968507
20
-4.9257154330708657
11
8.079878425196851
21
-4.9183337007874011
0
LINE
8
BLACK
6
CONTINUOUS
10
8.079878425196851
20
-4.9183337007874011
11
8.0720287795275585
21
-4.9199789370078735
0
LINE
8
BLACK
6
CONTINUOUS
10
8.0720287795275585
20
-4.9199789370078735
11
8.0730758661417319
21
-4.9312593307086612
0
LINE
8
BLACK
6
CONTINUOUS
10
8.0730758661417319
20
-4.9312593307086612
11
8.0823038976377948
21
-4.9520459448818901
0
LINE
8
BLACK
6
CONTINUOUS
10
8.0823038976377948
20
-4.9520459448818901
11
8.109854133858267
21
-4.9910890944881885
0
LINE
8
BLACK
6
CONTINUOUS
10
8.109854133858267
20
-4.9910890944881885
11
8.1496353937007875
21
-5.0242103149606301
0
LINE
8
BLACK
6
CONTINUOUS
10
8.1496353937007875
20
-5.0242103149606301
11
8.2016207086614177
21
-5.0513911417322834
0
LINE
8
BLACK
6
CONTINUOUS
10
8.2016207086614177
20
-5.0513911417322834
11
8.2542670866141723
21
-5.0694970472440941
0
LINE
8
BLACK
6
CONTINUOUS
10
8.2542670866141723
20
-5.0694970472440941
11
8.2738250000000004
21
-5.0746497637795276
0
LINE
8
BLACK
6
CONTINUOUS
10
8.2738250000000004
20
-5.0746497637795276
11
8.2918048031496063
21
-5.0782150787401577
0
LINE
8
BLACK
6
CONTINUOUS
10
8.2918048031496063
20
-5.0782150787401577
11
8.3110112992125984
21
-5.0803509842519681
0
LINE
8
BLACK
6
CONTINUOUS
10
8.3110112992125984
20
-5.0803509842519681
11
8.3342492519685045
21
-5.0812155511811019
0
LINE
8
BLACK
6
CONTINUOUS
10
8.3342492519685045
20
-5.0812155511811019
11
8.364323543307087
21
-5.0809667716535429
0
LINE
8
BLACK
6
CONTINUOUS
10
8.364323543307087
20
-5.0809667716535429
11
8.4040389763779526
21
-5.0797627559055121
0
LINE
8
BLACK
6
CONTINUOUS
10
8.4040389763779526
20
-5.0797627559055121
11
8.4235748818897633
21
-5.0790367716535432
0
LINE
8
BLACK
6
CONTINUOUS
10
8.4235748818897633
20
-5.0790367716535432
11
8.4669619291338574
21
-5.0774770078740152
0
LINE
8
BLACK
6
CONTINUOUS
10
8.4669619291338574
20
-5.0774770078740152
11
8.4991057874015752
21
-5.0767056299212596
0
LINE
8
BLACK
6
CONTINUOUS
10
8.4991057874015752
20
-5.0767056299212596
11
8.5223537401574809
21
-5.0768756692913382
0
LINE
8
BLACK
6
CONTINUOUS
10
8.5223537401574809
20
-5.0768756692913382
11
8.5390531496062998
21
-5.0781402362204719
0
LINE
8
BLACK
6
CONTINUOUS
10
8.5390531496062998
20
-5.0781402362204719
11
8.5515514566929127
21
-5.0806524015748034
0
LINE
8
BLACK
6
CONTINUOUS
10
8.5515514566929127
20
-5.0806524015748034
11
8.5621959842519679
21
-5.0845652362204721
0
LINE
8
BLACK
6
CONTINUOUS
10
8.5621959842519679
20
-5.0845652362204721
11
8.5705979527559055
21
-5.0886248425196845
0
LINE
8
BLACK
6
CONTINUOUS
10
8.5705979527559055
20
-5.0886248425196845
11
8.5970898031496059
21
-5.1088640944881885
0
LINE
8
BLACK
6
CONTINUOUS
10
8.5970898031496059
20
-5.1088640944881885
11
8.6137834251968499
21
-5.1356619291338585
0
LINE
8
BLACK
6
CONTINUOUS
10
8.6137834251968499
20
-5.1356619291338585
11
8.6207614566929127
21
-5.166224015748031
0
LINE
8
BLACK
6
CONTINUOUS
10
8.6207614566929127
20
-5.166224015748031
11
8.6181064960629925
21
-5.1977560236220475
0
LINE
8
BLACK
6
CONTINUOUS
10
8.6181064960629925
20
-5.1977560236220475
11
8.6059012204724414
21
-5.2274636220472441
0
LINE
8
BLACK
6
CONTINUOUS
10
8.6059012204724414
20
-5.2274636220472441
11
8.5842281889763772
21
-5.2525525590551183
0
LINE
8
BLACK
6
CONTINUOUS
10
8.5842281889763772
20
-5.2525525590551183
11
8.5653846062992116
21
-5.2649167322834645
0
LINE
8
BLACK
6
CONTINUOUS
10
8.5653846062992116
20
-5.2649167322834645
11
8.5346370866141736
21
-5.2761773228346458
0
LINE
8
BLACK
6
CONTINUOUS
10
8.5346370866141736
20
-5.2761773228346458
11
8.4933401574803149
21
-5.2847960629921262
0
LINE
8
BLACK
6
CONTINUOUS
10
8.4933401574803149
20
-5.2847960629921262
11
8.444329842519684
21
-5.290567086614173
0
LINE
8
BLACK
6
CONTINUOUS
10
8.444329842519684
20
-5.290567086614173
11
8.3904423228346463
21
-5.293284527559055
0
LINE
8
BLACK
6
CONTINUOUS
10
8.3904423228346463
20
-5.293284527559055
11
8.3345137007874008
21
-5.2927425590551183
0
LINE
8
BLACK
6
CONTINUOUS
10
8.3345137007874008
20
-5.2927425590551183
11
8.2793800787401572
21
-5.2887352362204725
0
LINE
8
BLACK
6
CONTINUOUS
10
8.2793800787401572
20
-5.2887352362204725
11
8.2634661417322839
21
-5.2868327559055119
0
LINE
8
BLACK
6
CONTINUOUS
10
8.2634661417322839
20
-5.2868327559055119
11
8.2039204724409451
21
-5.2766380314960628
0
LINE
8
BLACK
6
CONTINUOUS
10
8.2039204724409451
20
-5.2766380314960628
11
8.1445790157480307
21
-5.2622441732283463
0
LINE
8
BLACK
6
CONTINUOUS
10
8.1445790157480307
20
-5.2622441732283463
11
8.0943925984251965
21
-5.2460955905511808
0
LINE
8
BLACK
6
CONTINUOUS
10
8.0943925984251965
20
-5.2460955905511808
11
8.0420998425196846
21
-5.2213437007874015
0
LINE
8
BLACK
6
CONTINUOUS
10
8.0420998425196846
20
-5.2213437007874015
11
7.9902951968503935
21
-5.1874226377952759
0
LINE
8
BLACK
6
CONTINUOUS
10
7.9902951968503935
20
-5.1874226377952759
11
7.9424040157480311
21
-5.147145984251968
0
LINE
8
BLACK
6
CONTINUOUS
10
7.9424040157480311
20
-5.147145984251968
11
7.9018516141732285
21
-5.1033274803149604
0
LINE
8
BLACK
6
CONTINUOUS
10
7.9018516141732285
20
-5.1033274803149604
11
7.8768869291338577
21
-5.0674284645669294
0
LINE
8
BLACK
6
CONTINUOUS
10
7.8768869291338577
20
-5.0674284645669294
11
7.8506632677165351
21
-5.0104742125984254
0
LINE
8
BLACK
6
CONTINUOUS
10
7.8506632677165351
20
-5.0104742125984254
11
7.8329461023622047
21
-4.9451294094488185
0
LINE
8
BLACK
6
CONTINUOUS
10
7.8329461023622047
20
-4.9451294094488185
11
7.8236974015748029
21
-4.8735912204724405
0
LINE
8
BLACK
6
CONTINUOUS
10
7.8236974015748029
20
-4.8735912204724405
11
7.8228790944881892
21
-4.7980566929133861
0
LINE
8
BLACK
6
CONTINUOUS
10
7.8228790944881892
20
-4.7980566929133861
11
7.8304529921259842
21
-4.7207229133858268
0
LINE
8
BLACK
6
CONTINUOUS
10
7.8304529921259842
20
-4.7207229133858268
11
7.8387458267716532
21
-4.6806668897637795
0
LINE
8
BLACK
6
CONTINUOUS
10
7.8387458267716532
20
-4.6806668897637795
11
7.846381102362205
21
-4.6437870078740158
0
LINE
8
BLACK
6
CONTINUOUS
10
7.846381102362205
20
-4.6437870078740158
11
7.8706252755905508
21
-4.5694460629921263
0
LINE
8
BLACK
6
CONTINUOUS
10
7.8706252755905508
20
-4.5694460629921263
11
7.8861468897637792
21
-4.5333091338582676
0
LINE
8
BLACK
6
CONTINUOUS
10
7.8861468897637792
20
-4.5333091338582676
11
7.9221109842519679
21
-4.4649344488188971
0
LINE
8
BLACK
6
CONTINUOUS
10
7.9221109842519679
20
-4.4649344488188971
11
7.9626159055118109
21
-4.4053561023622043
0
LINE
8
BLACK
6
CONTINUOUS
10
7.9626159055118109
20
-4.4053561023622043
11
8.0110824409448824
21
-4.3498112992125986
0
LINE
8
BLACK
6
CONTINUOUS
10
8.0110824409448824
20
-4.3498112992125986
11
8.0346977165354332
21
-4.3264802362204726
0
LINE
8
BLACK
6
CONTINUOUS
10
8.0346977165354332
20
-4.3264802362204726
11
8.0677309448818892
21
-4.2964291732283462
0
LINE
8
BLACK
6
CONTINUOUS
10
8.0677309448818892
20
-4.2964291732283462
11
8.0972659055118115
21
-4.2733014566929137
0
LINE
8
BLACK
6
CONTINUOUS
10
8.0972659055118115
20
-4.2733014566929137
11
8.1284059842519678
21
-4.2534791732283468
0
LINE
8
BLACK
6
CONTINUOUS
10
8.1284059842519678
20
-4.2534791732283468
11
8.1656271259842512
21
-4.2336588582677166
0
LINE
8
BLACK
6
CONTINUOUS
10
8.1656271259842512
20
-4.2336588582677166
11
8.2233595275590545
21
-4.2077135039370077
0
LINE
8
BLACK
6
CONTINUOUS
10
8.2233595275590545
20
-4.2077135039370077
11
8.2771233464566922
21
-4.190680078740157
0
LINE
8
BLACK
6
CONTINUOUS
10
8.2771233464566922
20
-4.190680078740157
11
8.3320107086614179
21
-4.1813209448818895
0
LINE
8
BLACK
6
CONTINUOUS
10
8.3320107086614179
20
-4.1813209448818895
11
8.392989251968503
21
-4.1783986614173223
0
LINE
8
BLACK
6
CONTINUOUS
10
8.392989251968503
20
-4.1783986614173223
11
8.4638475590551181
21
-4.1838862204724405
0
LINE
8
BLACK
6
CONTINUOUS
10
8.0568111811023613
20
-4.688499094488189
11
8.0573755511811029
21
-4.6887346850393703
0
LINE
8
BLACK
6
CONTINUOUS
10
8.0573755511811029
20
-4.6887346850393703
11
8.0644150393700791
21
-4.6901635826771653
0
LINE
8
BLACK
6
CONTINUOUS
10
8.0644150393700791
20
-4.6901635826771653
11
8.0820733464566921
21
-4.693865275590551
0
LINE
8
BLACK
6
CONTINUOUS
10
8.0820733464566921
20
-4.693865275590551
11
8.1076633464566932
21
-4.69927374015748
0
LINE
8
BLACK
6
CONTINUOUS
10
8.1076633464566932
20
-4.69927374015748
11
8.1376157874015753
21
-4.7056352755905513
0
LINE
8
BLACK
6
CONTINUOUS
10
8.1376157874015753
20
-4.7056352755905513
11
8.211145984251969
21
-4.7170323228346458
0
LINE
8
BLACK
6
CONTINUOUS
10
8.211145984251969
20
-4.7170323228346458
11
8.2793490157480321
21
-4.7190542519685037
0
LINE
8
BLACK
6
CONTINUOUS
10
8.2793490157480321
20
-4.7190542519685037
11
8.3403501181102353
21
-4.7116989763779529
0
LINE
8
BLACK
6
CONTINUOUS
10
8.3403501181102353
20
-4.7116989763779529
11
8.3631091732283469
21
-4.7058923622047244
0
LINE
8
BLACK
6
CONTINUOUS
10
8.3631091732283469
20
-4.7058923622047244
11
8.4044046456692918
21
-4.6906610629921257
0
LINE
8
BLACK
6
CONTINUOUS
10
8.4044046456692918
20
-4.6906610629921257
11
8.4384658661417316
21
-4.6709909842519686
0
LINE
8
BLACK
6
CONTINUOUS
10
8.4384658661417316
20
-4.6709909842519686
11
8.4650453937007875
21
-4.6494481496062994
0
LINE
8
BLACK
6
CONTINUOUS
10
8.4650453937007875
20
-4.6494481496062994
11
8.495583267716535
21
-4.6147436614173225
0
LINE
8
BLACK
6
CONTINUOUS
10
8.495583267716535
20
-4.6147436614173225
11
8.5146104724409444
21
-4.5752035826771653
0
LINE
8
BLACK
6
CONTINUOUS
10
8.5146104724409444
20
-4.5752035826771653
11
8.5233625590551174
21
-4.5282056299212599
0
LINE
8
BLACK
6
CONTINUOUS
10
8.5233625590551174
20
-4.5282056299212599
11
8.523579330708662
21
-4.5252192913385825
0
LINE
8
BLACK
6
CONTINUOUS
10
8.523579330708662
20
-4.5252192913385825
11
8.5212706692913383
21
-4.4811828346456695
0
LINE
8
BLACK
6
CONTINUOUS
10
8.5212706692913383
20
-4.4811828346456695
11
8.5084475590551172
21
-4.4444950787401574
0
LINE
8
BLACK
6
CONTINUOUS
10
8.5084475590551172
20
-4.4444950787401574
11
8.4858182283464565
21
-4.4161758267716538
0
LINE
8
BLACK
6
CONTINUOUS
10
8.4858182283464565
20
-4.4161758267716538
11
8.4540908661417316
21
-4.3972447637795273
0
LINE
8
BLACK
6
CONTINUOUS
10
8.4540908661417316
20
-4.3972447637795273
11
8.4301327952755898
21
-4.3906644488188977
0
LINE
8
BLACK
6
CONTINUOUS
10
8.4301327952755898
20
-4.3906644488188977
11
8.379190236220472
21
-4.388503307086614
0
LINE
8
BLACK
6
CONTINUOUS
10
8.379190236220472
20
-4.388503307086614
11
8.3261351968503927
21
-4.3992850393700786
0
LINE
8
BLACK
6
CONTINUOUS
10
8.3261351968503927
20
-4.3992850393700786
11
8.2790481102362197
21
-4.4191091732283461
0
LINE
8
BLACK
6
CONTINUOUS
10
8.2790481102362197
20
-4.4191091732283461
11
8.2114725196850387
21
-4.4597031102362203
0
LINE
8
BLACK
6
CONTINUOUS
10
8.2114725196850387
20
-4.4597031102362203
11
8.1560887401574806
21
-4.5047696062992122
0
LINE
8
BLACK
6
CONTINUOUS
10
8.1560887401574806
20
-4.5047696062992122
11
8.1119721259842521
21
-4.5551669685039373
0
LINE
8
BLACK
6
CONTINUOUS
10
8.1119721259842521
20
-4.5551669685039373
11
8.0840911811023624
21
-4.6000492519685041
0
LINE
8
BLACK
6
CONTINUOUS
10
8.0840911811023624
20
-4.6000492519685041
11
8.0745949606299217
21
-4.620580393700787
0
LINE
8
BLACK
6
CONTINUOUS
10
8.0745949606299217
20
-4.620580393700787
11
8.0660620078740148
21
-4.6431992519685039
0
LINE
8
BLACK
6
CONTINUOUS
10
8.0660620078740148
20
-4.6431992519685039
11
8.059549173228346
21
-4.6643974803149604
0
LINE
8
BLACK
6
CONTINUOUS
10
8.059549173228346
20
-4.6643974803149604
11
8.056113267716535
21
-4.6806668897637795
0
LINE
8
BLACK
6
CONTINUOUS
10
8.056113267716535
20
-4.6806668897637795
11
8.0568111811023613
21
-4.688499094488189
0
LINE
8
BLACK
6
CONTINUOUS
10
3.9514291732283464
20
-3.4190068503937008
11
4.0235659448818897
21
-3.4259250393700786
0
LINE
8
BLACK
6
CONTINUOUS
10
4.0235659448818897
20
-3.4259250393700786
11
4.0952709842519681
21
-3.4369721653543306
0
LINE
8
BLACK
6
CONTINUOUS
10
4.0952709842519681
20
-3.4369721653543306
11
4.1633009055118109
21
-3.4518621259842517
0
LINE
8
BLACK
6
CONTINUOUS
10
4.1633009055118109
20
-3.4518621259842517
11
4.2090443700787397
21
-3.4650803543307087
0
LINE
8
BLACK
6
CONTINUOUS
10
4.2090443700787397
20
-3.4650803543307087
11
4.2843540944881893
21
-3.4929164960629921
0
LINE
8
BLACK
6
CONTINUOUS
10
4.2843540944881893
20
-3.4929164960629921
11
4.3466377165354331
21
-3.5233113779527558
0
LINE
8
BLACK
6
CONTINUOUS
10
4.3466377165354331
20
-3.5233113779527558
11
4.3962930708661414
21
-3.5566084251968504
0
LINE
8
BLACK
6
CONTINUOUS
10
4.3962930708661414
20
-3.5566084251968504
11
4.433717952755905
21
-3.5931511023622047
0
LINE
8
BLACK
6
CONTINUOUS
10
4.433717952755905
20
-3.5931511023622047
11
4.4593101181102357
21
-3.6332827559055119
0
LINE
8
BLACK
6
CONTINUOUS
10
4.4593101181102357
20
-3.6332827559055119
11
4.473467401574803
21
-3.677346811023622
0
LINE
8
BLACK
6
CONTINUOUS
10
4.473467401574803
20
-3.677346811023622
11
4.4759600393700785
21
-3.6955037401574802
0
LINE
8
BLACK
6
CONTINUOUS
10
4.4759600393700785
20
-3.6955037401574802
11
4.4752727559055119
21
-3.7385868110236218
0
LINE
8
BLACK
6
CONTINUOUS
10
4.4752727559055119
20
-3.7385868110236218
11
4.4638723228346455
21
-3.7754939763779527
0
LINE
8
BLACK
6
CONTINUOUS
10
4.4638723228346455
20
-3.7754939763779527
11
4.4406266141732287
21
-3.8097091338582678
0
LINE
8
BLACK
6
CONTINUOUS
10
4.4406266141732287
20
-3.8097091338582678
11
4.4378151968503934
21
-3.8128860236220472
0
LINE
8
BLACK
6
CONTINUOUS
10
4.4378151968503934
20
-3.8128860236220472
11
4.4024825590551178
21
-3.8429434645669289
0
LINE
8
BLACK
6
CONTINUOUS
10
4.4024825590551178
20
-3.8429434645669289
11
4.3621722047244091
21
-3.8603945669291337
0
LINE
8
BLACK
6
CONTINUOUS
10
4.3621722047244091
20
-3.8603945669291337
11
4.3242246456692914
21
-3.8652059448818896
0
LINE
8
BLACK
6
CONTINUOUS
10
4.3242246456692914
20
-3.8652059448818896
11
4.2867571259842521
21
-3.8622047637795274
0
LINE
8
BLACK
6
CONTINUOUS
10
4.2867571259842521
20
-3.8622047637795274
11
4.248905590551181
21
-3.8521798425196851
0
LINE
8
BLACK
6
CONTINUOUS
10
4.248905590551181
20
-3.8521798425196851
11
4.2077514566929137
21
-3.8340962598425197
0
LINE
8
BLACK
6
CONTINUOUS
10
4.2077514566929137
20
-3.8340962598425197
11
4.1610805118110239
21
-3.8073577165354329
0
LINE
8
BLACK
6
CONTINUOUS
10
4.1610805118110239
20
-3.8073577165354329
11
4.1272100787401573
21
-3.7870949999999999
0
LINE
8
BLACK
6
CONTINUOUS
10
4.1272100787401573
20
-3.7870949999999999
11
4.089369960629921
21
-3.7657053937007872
0
LINE
8
BLACK
6
CONTINUOUS
10
4.089369960629921
20
-3.7657053937007872
11
4.0540125196850392
21
-3.7468009055118108
0
LINE
8
BLACK
6
CONTINUOUS
10
4.0540125196850392
20
-3.7468009055118108
11
4.042619094488189
21
-3.7410444881889764
0
LINE
8
BLACK
6
CONTINUOUS
10
4.042619094488189
20
-3.7410444881889764
11
4.0187724409448817
21
-3.7294447244094489
0
LINE
8
BLACK
6
CONTINUOUS
10
4.0187724409448817
20
-3.7294447244094489
11
4.0001325590551184
21
-3.7214577952755903
0
LINE
8
BLACK
6
CONTINUOUS
10
4.0001325590551184
20
-3.7214577952755903
11
3.9831011023622045
21
-3.7163252362204724
0
LINE
8
BLACK
6
CONTINUOUS
10
3.9831011023622045
20
-3.7163252362204724
11
3.9640797637795275
21
-3.7132886614173226
0
LINE
8
BLACK
6
CONTINUOUS
10
3.9640797637795275
20
-3.7132886614173226
11
3.9394701968503938
21
-3.7115896850393701
0
LINE
8
BLACK
6
CONTINUOUS
10
3.9394701968503938
20
-3.7115896850393701
11
3.9056740551181099
21
-3.7104698425196849
0
LINE
8
BLACK
6
CONTINUOUS
10
3.9056740551181099
20
-3.7104698425196849
11
3.8963605905511809
21
-3.7102181889763779
0
LINE
8
BLACK
6
CONTINUOUS
10
3.8963605905511809
20
-3.7102181889763779
11
3.8076838188976376
21
-3.707837440944882
0
LINE
8
BLACK
6
CONTINUOUS
10
3.8076838188976376
20
-3.707837440944882
11
3.7668674803149607
21
-3.7326141732283462
0
LINE
8
BLACK
6
CONTINUOUS
10
3.7668674803149607
20
-3.7326141732283462
11
3.7216697244094488
21
-3.7637920866141732
0
LINE
8
BLACK
6
CONTINUOUS
10
3.7216697244094488
20
-3.7637920866141732
11
3.6894575196850394
21
-3.7951415354330709
0
LINE
8
BLACK
6
CONTINUOUS
10
3.6894575196850394
20
-3.7951415354330709
11
3.6696505905511811
21
-3.8278714173228345
0
LINE
8
BLACK
6
CONTINUOUS
10
3.6696505905511811
20
-3.8278714173228345
11
3.6616686614173228
21
-3.8631905511811024
0
LINE
8
BLACK
6
CONTINUOUS
10
3.6616686614173228
20
-3.8631905511811024
11
3.6649314960629922
21
-3.9023079133858265
0
LINE
8
BLACK
6
CONTINUOUS
10
3.6649314960629922
20
-3.9023079133858265
11
3.6724524803149605
21
-3.9293082283464567
0
LINE
8
BLACK
6
CONTINUOUS
10
3.6724524803149605
20
-3.9293082283464567
11
3.6884696850393701
21
-3.9603140944881887
0
LINE
8
BLACK
6
CONTINUOUS
10
3.6884696850393701
20
-3.9603140944881887
11
3.7153959842519684
21
-3.9937691338582675
0
LINE
8
BLACK
6
CONTINUOUS
10
3.7153959842519684
20
-3.9937691338582675
11
3.7512938582677164
21
-4.0276423622047242
0
LINE
8
BLACK
6
CONTINUOUS
10
3.7512938582677164
20
-4.0276423622047242
11
3.7942257480314958
21
-4.0599025984251966
0
LINE
8
BLACK
6
CONTINUOUS
10
3.7942257480314958
20
-4.0599025984251966
11
3.801792401574803
21
-4.0648916141732281
0
LINE
8
BLACK
6
CONTINUOUS
10
3.801792401574803
20
-4.0648916141732281
11
3.8212693700787401
21
-4.0765023228346458
0
LINE
8
BLACK
6
CONTINUOUS
10
3.8212693700787401
20
-4.0765023228346458
11
3.8507002755905511
21
-4.0927621259842519
0
LINE
8
BLACK
6
CONTINUOUS
10
3.8507002755905511
20
-4.0927621259842519
11
3.8877644094488186
21
-4.1124514173228341
0
LINE
8
BLACK
6
CONTINUOUS
10
3.8877644094488186
20
-4.1124514173228341
11
3.9301411417322836
21
-4.1343505118110233
0
LINE
8
BLACK
6
CONTINUOUS
10
3.9301411417322836
20
-4.1343505118110233
11
3.9755097244094486
21
-4.1572398031496061
0
LINE
8
BLACK
6
CONTINUOUS
10
3.9755097244094486
20
-4.1572398031496061
11
4.0088105118110233
21
-4.1736903937007872
0
LINE
8
BLACK
6
CONTINUOUS
10
4.0088105118110233
20
-4.1736903937007872
11
4.0562303937007878
21
-4.1973408661417322
0
LINE
8
BLACK
6
CONTINUOUS
10
4.0562303937007878
20
-4.1973408661417322
11
4.1035075196850395
21
-4.2217293700787399
0
LINE
8
BLACK
6
CONTINUOUS
10
4.1035075196850395
20
-4.2217293700787399
11
4.1480227165354329
21
-4.2454450787401576
0
LINE
8
BLACK
6
CONTINUOUS
10
4.1480227165354329
20
-4.2454450787401576
11
4.1871568503937011
21
-4.2670772834645669
0
LINE
8
BLACK
6
CONTINUOUS
10
4.1871568503937011
20
-4.2670772834645669
11
4.2182907874015747
21
-4.2852152362204725
0
LINE
8
BLACK
6
CONTINUOUS
10
4.2182907874015747
20
-4.2852152362204725
11
4.2328538976377947
21
-4.2943681889763781
0
LINE
8
BLACK
6
CONTINUOUS
10
4.2328538976377947
20
-4.2943681889763781
11
4.3046210629921262
21
-4.3484607874015744
0
LINE
8
BLACK
6
CONTINUOUS
10
4.3046210629921262
20
-4.3484607874015744
11
4.3645005511811021
21
-4.4079948031496059
0
LINE
8
BLACK
6
CONTINUOUS
10
4.3645005511811021
20
-4.4079948031496059
11
4.4121749606299208
21
-4.472579645669291
0
LINE
8
BLACK
6
CONTINUOUS
10
4.4121749606299208
20
-4.472579645669291
11
4.4473267716535432
21
-4.5418248031496065
0
LINE
8
BLACK
6
CONTINUOUS
10
4.4473267716535432
20
-4.5418248031496065
11
4.4580238188976375
21
-4.5714036614173228
0
LINE
8
BLACK
6
CONTINUOUS
10
4.4580238188976375
20
-4.5714036614173228
11
4.4679842125984255
21
-4.6136570472440948
0
LINE
8
BLACK
6
CONTINUOUS
10
4.4679842125984255
20
-4.6136570472440948
11
4.4742987795275591
21
-4.6642700000000001
0
LINE
8
BLACK
6
CONTINUOUS
10
4.4742987795275591
20
-4.6642700000000001
11
4.4767738188976374
21
-4.7184419291338582
0
LINE
8
BLACK
6
CONTINUOUS
10
4.4767738188976374
20
-4.7184419291338582
11
4.4752157874015746
21
-4.7713721653543306
0
LINE
8
BLACK
6
CONTINUOUS
10
4.4752157874015746
20
-4.7713721653543306
11
4.4694309842519688
21
-4.8182601574803146
0
LINE
8
BLACK
6
CONTINUOUS
10
4.4694309842519688
20
-4.8182601574803146
11
4.4682240551181103
21
-4.82429968503937
0
LINE
8
BLACK
6
CONTINUOUS
10
4.4682240551181103
20
-4.82429968503937
11
4.445795393700787
21
-4.8980552755905507
0
LINE
8
BLACK
6
CONTINUOUS
10
4.445795393700787
20
-4.8980552755905507
11
4.4112301968503935
21
-4.9669057874015747
0
LINE
8
BLACK
6
CONTINUOUS
10
4.4112301968503935
20
-4.9669057874015747
11
4.3653124803149606
21
-5.0302087007874015
0
LINE
8
BLACK
6
CONTINUOUS
10
4.3653124803149606
20
-5.0302087007874015
11
4.3088261811023623
21
-5.087321456692913
0
LINE
8
BLACK
6
CONTINUOUS
10
4.3088261811023623
20
-5.087321456692913
11
4.2425553543307082
21
-5.1376014960629917
0
LINE
8
BLACK
6
CONTINUOUS
10
4.2425553543307082
20
-5.1376014960629917
11
4.1672838976377955
21
-5.1804062992125983
0
LINE
8
BLACK
6
CONTINUOUS
10
4.1672838976377955
20
-5.1804062992125983
11
4.0837958267716532
21
-5.2150932283464568
0
LINE
8
BLACK
6
CONTINUOUS
10
4.0837958267716532
20
-5.2150932283464568
11
3.992875118110236
21
-5.241019803149606
0
LINE
8
BLACK
6
CONTINUOUS
10
3.992875118110236
20
-5.241019803149606
11
3.9491120078740156
21
-5.2497680708661418
0
LINE
8
BLACK
6
CONTINUOUS
10
3.9491120078740156
20
-5.2497680708661418
11
3.9022925984251966
21
-5.2555148818897637
0
LINE
8
BLACK
6
CONTINUOUS
10
3.9022925984251966
20
-5.2555148818897637
11
3.8473496062992125
21
-5.2584464173228342
0
LINE
8
BLACK
6
CONTINUOUS
10
3.8473496062992125
20
-5.2584464173228342
11
3.7894702755905509
21
-5.2585635433070861
0
LINE
8
BLACK
6
CONTINUOUS
10
3.7894702755905509
20
-5.2585635433070861
11
3.7338417716535433
21
-5.2558672047244093
0
LINE
8
BLACK
6
CONTINUOUS
10
3.7338417716535433
20
-5.2558672047244093
11
3.6856512992125983
21
-5.250358346456693
0
LINE
8
BLACK
6
CONTINUOUS
10
3.6856512992125983
20
-5.250358346456693
11
3.6818334645669291
21
-5.2497206692913387
0
LINE
8
BLACK
6
CONTINUOUS
10
3.6818334645669291
20
-5.2497206692913387
11
3.6140777559055119
21
-5.2342156692913386
0
LINE
8
BLACK
6
CONTINUOUS
10
3.6140777559055119
20
-5.2342156692913386
11
3.5505597637795274
21
-5.2112749999999997
0
LINE
8
BLACK
6
CONTINUOUS
10
3.5505597637795274
20
-5.2112749999999997
11
3.4892675590551181
21
-5.1797673228346452
0
LINE
8
BLACK
6
CONTINUOUS
10
3.4892675590551181
20
-5.1797673228346452
11
3.428189409448819
21
-5.138561141732283
0
LINE
8
BLACK
6
CONTINUOUS
10
3.428189409448819
20
-5.138561141732283
11
3.3653133858267714
21
-5.0865250393700787
0
LINE
8
BLACK
6
CONTINUOUS
10
3.3653133858267714
20
-5.0865250393700787
11
3.3256609842519684
21
-5.0494138188976381
0
LINE
8
BLACK
6
CONTINUOUS
10
3.3256609842519684
20
-5.0494138188976381
11
3.294855905511811
21
-5.0188992913385828
0
LINE
8
BLACK
6
CONTINUOUS
10
3.294855905511811
20
-5.0188992913385828
11
3.2719077165354329
21
-4.9944419685039367
0
LINE
8
BLACK
6
CONTINUOUS
10
3.2719077165354329
20
-4.9944419685039367
11
3.2544811417322834
21
-4.9730863779527557
0
LINE
8
BLACK
6
CONTINUOUS
10
3.2544811417322834
20
-4.9730863779527557
11
3.2402409842519684
21
-4.9518771653543308
0
LINE
8
BLACK
6
CONTINUOUS
10
3.2402409842519684
20
-4.9518771653543308
11
3.2268518897637795
21
-4.9278588976377948
0
LINE
8
BLACK
6
CONTINUOUS
10
3.2268518897637795
20
-4.9278588976377948
11
3.2217961811023623
21
-4.9179668503937011
0
LINE
8
BLACK
6
CONTINUOUS
10
3.2217961811023623
20
-4.9179668503937011
11
3.1969014173228345
21
-4.8623202755905508
0
LINE
8
BLACK
6
CONTINUOUS
10
3.1969014173228345
20
-4.8623202755905508
11
3.1811840157480313
21
-4.8108175984251966
0
LINE
8
BLACK
6
CONTINUOUS
10
3.1811840157480313
20
-4.8108175984251966
11
3.1735591732283464
21
-4.7586695275590554
0
LINE
8
BLACK
6
CONTINUOUS
10
3.1735591732283464
20
-4.7586695275590554
11
3.1729020472440945
21
-4.7020900393700789
0
LINE
8
BLACK
6
CONTINUOUS
10
3.1729020472440945
20
-4.7020900393700789
11
3.1779064960629921
21
-4.6522587007874012
0
LINE
8
BLACK
6
CONTINUOUS
10
3.1779064960629921
20
-4.6522587007874012
11
3.1889735826771655
21
-4.6132153543307082
0
LINE
8
BLACK
6
CONTINUOUS
10
3.1889735826771655
20
-4.6132153543307082
11
3.206770433070866
21
-4.5832580708661412
0
LINE
8
BLACK
6
CONTINUOUS
10
3.206770433070866
20
-4.5832580708661412
11
3.2269480314960628
21
-4.5642094488188976
0
LINE
8
BLACK
6
CONTINUOUS
10
3.2269480314960628
20
-4.5642094488188976
11
3.2536103149606297
21
-4.5510307086614175
0
LINE
8
BLACK
6
CONTINUOUS
10
3.2536103149606297
20
-4.5510307086614175
11
3.2868737007874014
21
-4.5436954724409446
0
LINE
8
BLACK
6
CONTINUOUS
10
3.2868737007874014
20
-4.5436954724409446
11
3.3206201968503937
21
-4.5432167322834642
0
LINE
8
BLACK
6
CONTINUOUS
10
3.3206201968503937
20
-4.5432167322834642
11
3.3365238976377953
21
-4.5460661811023622
0
LINE
8
BLACK
6
CONTINUOUS
10
3.3365238976377953
20
-4.5460661811023622
11
3.365491496062992
21
-4.5599188582677161
0
LINE
8
BLACK
6
CONTINUOUS
10
3.365491496062992
20
-4.5599188582677161
11
3.3933412204724407
21
-4.5839420866141731
0
LINE
8
BLACK
6
CONTINUOUS
10
3.3933412204724407
20
-4.5839420866141731
11
3.4169618897637792
21
-4.6148477952755904
0
LINE
8
BLACK
6
CONTINUOUS
10
3.4169618897637792
20
-4.6148477952755904
11
3.4326869291338582
21
-4.6476943307086609
0
LINE
8
BLACK
6
CONTINUOUS
10
3.4326869291338582
20
-4.6476943307086609
11
3.4537167716535433
21
-4.6982940157480311
0
LINE
8
BLACK
6
CONTINUOUS
10
3.4537167716535433
20
-4.6982940157480311
11
3.4813138976377953
21
-4.7442987401574799
0
LINE
8
BLACK
6
CONTINUOUS
10
3.4813138976377953
20
-4.7442987401574799
11
3.5179110236220472
21
-4.7894209055118111
0
LINE
8
BLACK
6
CONTINUOUS
10
3.5179110236220472
20
-4.7894209055118111
11
3.5419065748031495
21
-4.8143644094488192
0
LINE
8
BLACK
6
CONTINUOUS
10
3.5419065748031495
20
-4.8143644094488192
11
3.5811831496062991
21
-4.8503565354330709
0
LINE
8
BLACK
6
CONTINUOUS
10
3.5811831496062991
20
-4.8503565354330709
11
3.6199401968503935
21
-4.8788188582677163
0
LINE
8
BLACK
6
CONTINUOUS
10
3.6199401968503935
20
-4.8788188582677163
11
3.6624700393700786
21
-4.9023925196850389
0
LINE
8
BLACK
6
CONTINUOUS
10
3.6624700393700786
20
-4.9023925196850389
11
3.7130650787401573
21
-4.9237188582677165
0
LINE
8
BLACK
6
CONTINUOUS
10
3.7130650787401573
20
-4.9237188582677165
11
3.7292455511811022
21
-4.9296414960629917
0
LINE
8
BLACK
6
CONTINUOUS
10
3.7292455511811022
20
-4.9296414960629917
11
3.7893010629921258
21
-4.9443596456692909
0
LINE
8
BLACK
6
CONTINUOUS
10
3.7893010629921258
20
-4.9443596456692909
11
3.8527503937007874
21
-4.9479008661417323
0
LINE
8
BLACK
6
CONTINUOUS
10
3.8527503937007874
20
-4.9479008661417323
11
3.9169537007874013
21
-4.9408751968503939
0
LINE
8
BLACK
6
CONTINUOUS
10
3.9169537007874013
20
-4.9408751968503939
11
3.979271062992126
21
-4.9238925984251969
0
LINE
8
BLACK
6
CONTINUOUS
10
3.979271062992126
20
-4.9238925984251969
11
4.0370625590551183
21
-4.8975631496062988
0
LINE
8
BLACK
6
CONTINUOUS
10
4.0370625590551183
20
-4.8975631496062988
11
4.0876883070866139
21
-4.8624968110236217
0
LINE
8
BLACK
6
CONTINUOUS
10
4.0876883070866139
20
-4.8624968110236217
11
4.1096122047244092
21
-4.8417478346456688
0
LINE
8
BLACK
6
CONTINUOUS
10
4.1096122047244092
20
-4.8417478346456688
11
4.1348558267716538
21
-4.8105540157480311
0
LINE
8
BLACK
6
CONTINUOUS
10
4.1348558267716538
20
-4.8105540157480311
11
4.1500318897637793
21
-4.7791300787401569
0
LINE
8
BLACK
6
CONTINUOUS
10
4.1500318897637793
20
-4.7791300787401569
11
4.1569885826771653
21
-4.7427167322834647
0
LINE
8
BLACK
6
CONTINUOUS
10
4.1569885826771653
20
-4.7427167322834647
11
4.1579860236220467
21
-4.7171776771653544
0
LINE
8
BLACK
6
CONTINUOUS
10
4.1579860236220467
20
-4.7171776771653544
11
4.1562277952755906
21
-4.6898144881889765
0
LINE
8
BLACK
6
CONTINUOUS
10
4.1562277952755906
20
-4.6898144881889765
11
4.1503127165354332
21
-4.6642981102362207
0
LINE
8
BLACK
6
CONTINUOUS
10
4.1503127165354332
20
-4.6642981102362207
11
4.1393703543307083
21
-4.6398913779527557
0
LINE
8
BLACK
6
CONTINUOUS
10
4.1393703543307083
20
-4.6398913779527557
11
4.1225304724409444
21
-4.6158570866141728
0
LINE
8
BLACK
6
CONTINUOUS
10
4.1225304724409444
20
-4.6158570866141728
11
4.0989227165354327
21
-4.5914581496062992
0
LINE
8
BLACK
6
CONTINUOUS
10
4.0989227165354327
20
-4.5914581496062992
11
4.0676767322834646
21
-4.5659574015748028
0
LINE
8
BLACK
6
CONTINUOUS
10
4.0676767322834646
20
-4.5659574015748028
11
4.0279222047244092
21
-4.5386176377952756
0
LINE
8
BLACK
6
CONTINUOUS
10
4.0279222047244092
20
-4.5386176377952756
11
3.9787888188976379
21
-4.5087017322834644
0
LINE
8
BLACK
6
CONTINUOUS
10
3.9787888188976379
20
-4.5087017322834644
11
3.9194062598425194
21
-4.4754725590551176
0
LINE
8
BLACK
6
CONTINUOUS
10
3.9194062598425194
20
-4.4754725590551176
11
3.8489041338582677
21
-4.4381929133858264
0
LINE
8
BLACK
6
CONTINUOUS
10
3.8489041338582677
20
-4.4381929133858264
11
3.7974797244094489
21
-4.4118345275590549
0
LINE
8
BLACK
6
CONTINUOUS
10
3.7974797244094489
20
-4.4118345275590549
11
3.7187624015748031
21
-4.3706975196850388
0
LINE
8
BLACK
6
CONTINUOUS
10
3.7187624015748031
20
-4.3706975196850388
11
3.6516100393700786
21
-4.3328909055118112
0
LINE
8
BLACK
6
CONTINUOUS
10
3.6516100393700786
20
-4.3328909055118112
11
3.5946942519685039
21
-4.2974012598425197
0
LINE
8
BLACK
6
CONTINUOUS
10
3.5946942519685039
20
-4.2974012598425197
11
3.5466866535433068
21
-4.2632151968503935
0
LINE
8
BLACK
6
CONTINUOUS
10
3.5466866535433068
20
-4.2632151968503935
11
3.5062588188976376
21
-4.2293192519685041
0
LINE
8
BLACK
6
CONTINUOUS
10
3.5062588188976376
20
-4.2293192519685041
11
3.4720823622047243
21
-4.1947000393700788
0
LINE
8
BLACK
6
CONTINUOUS
10
3.4720823622047243
20
-4.1947000393700788
11
3.4428288582677165
21
-4.1583441338582681
0
LINE
8
BLACK
6
CONTINUOUS
10
3.4428288582677165
20
-4.1583441338582681
11
3.4199107874015748
21
-4.123793464566929
0
LINE
8
BLACK
6
CONTINUOUS
10
3.4199107874015748
20
-4.123793464566929
11
3.3901420866141732
21
-4.0629774803149603
0
LINE
8
BLACK
6
CONTINUOUS
10
3.3901420866141732
20
-4.0629774803149603
11
3.3693061417322836
21
-3.9947201574803151
0
LINE
8
BLACK
6
CONTINUOUS
10
3.3693061417322836
20
-3.9947201574803151
11
3.3579460629921258
21
-3.9222911023622045
0
LINE
8
BLACK
6
CONTINUOUS
10
3.3579460629921258
20
-3.9222911023622045
11
3.3566050393700788
21
-3.8489598031496062
0
LINE
8
BLACK
6
CONTINUOUS
10
3.3566050393700788
20
-3.8489598031496062
11
3.3639820078740157
21
-3.78712405511811
0
LINE
8
BLACK
6
CONTINUOUS
10
3.3639820078740157
20
-3.78712405511811
11
3.3843193307086614
21
-3.7152306692913384
0
LINE
8
BLACK
6
CONTINUOUS
10
3.3843193307086614
20
-3.7152306692913384
11
3.4164214566929134
21
-3.6495240551181101
0
LINE
8
BLACK
6
CONTINUOUS
10
3.4164214566929134
20
-3.6495240551181101
11
3.4596650393700785
21
-3.5905659055118111
0
LINE
8
BLACK
6
CONTINUOUS
10
3.4596650393700785
20
-3.5905659055118111
11
3.5134267322834645
21
-3.5389179921259841
0
LINE
8
BLACK
6
CONTINUOUS
10
3.5134267322834645
20
-3.5389179921259841
11
3.5770831889763777
21
-3.4951419685039369
0
LINE
8
BLACK
6
CONTINUOUS
10
3.5770831889763777
20
-3.4951419685039369
11
3.6500109842519683
21
-3.4597995669291337
0
LINE
8
BLACK
6
CONTINUOUS
10
3.6500109842519683
20
-3.4597995669291337
11
3.7315868897637796
21
-3.4334524803149606
0
LINE
8
BLACK
6
CONTINUOUS
10
3.7315868897637796
20
-3.4334524803149606
11
3.7648622047244094
21
-3.4258879133858269
0
LINE
8
BLACK
6
CONTINUOUS
10
3.7648622047244094
20
-3.4258879133858269
11
3.8188339370078741
21
-3.4187020866141733
0
LINE
8
BLACK
6
CONTINUOUS
10
3.8188339370078741
20
-3.4187020866141733
11
3.8821040551181101
21
-3.4165038188976378
0
LINE
8
BLACK
6
CONTINUOUS
10
3.8821040551181101
20
-3.4165038188976378
11
3.9514291732283464
21
-3.4190068503937008
0
LINE
8
BLACK
6
CONTINUOUS
10
5.2872756692913381
20
-4.1599219291338585
11
5.3927198818897635
21
-4.1688561811023623
0
LINE
8
BLACK
6
CONTINUOUS
10
5.3927198818897635
20
-4.1688561811023623
11
5.4885040944881887
21
-4.1870498425196851
0
LINE
8
BLACK
6
CONTINUOUS
10
5.4885040944881887
20
-4.1870498425196851
11
5.5750978740157482
21
-4.2146794488188979
0
LINE
8
BLACK
6
CONTINUOUS
10
5.5750978740157482
20
-4.2146794488188979
11
5.6529707480314961
21
-4.2519214960629919
0
LINE
8
BLACK
6
CONTINUOUS
10
5.6529707480314961
20
-4.2519214960629919
11
5.7225923228346458
21
-4.2989524803149601
0
LINE
8
BLACK
6
CONTINUOUS
10
5.7225923228346458
20
-4.2989524803149601
11
5.7704703543307083
21
-4.3415458267716538
0
LINE
8
BLACK
6
CONTINUOUS
10
5.7704703543307083
20
-4.3415458267716538
11
5.817731456692913
21
-4.3944953149606301
0
LINE
8
BLACK
6
CONTINUOUS
10
5.817731456692913
20
-4.3944953149606301
11
5.8536528346456693
21
-4.4489474015748032
0
LINE
8
BLACK
6
CONTINUOUS
10
5.8536528346456693
20
-4.4489474015748032
11
5.880147834645669
21
-4.508455748031496
0
LINE
8
BLACK
6
CONTINUOUS
10
5.880147834645669
20
-4.508455748031496
11
5.8991296456692908
21
-4.5765740157480312
0
LINE
8
BLACK
6
CONTINUOUS
10
5.8991296456692908
20
-4.5765740157480312
11
5.9004924803149601
21
-4.5830424409448822
0
LINE
8
BLACK
6
CONTINUOUS
10
5.9004924803149601
20
-4.5830424409448822
11
5.9115781496062993
21
-4.6677192519685038
0
LINE
8
BLACK
6
CONTINUOUS
10
5.9115781496062993
20
-4.6677192519685038
11
5.9100079133858268
21
-4.7510845275590547
0
LINE
8
BLACK
6
CONTINUOUS
10
5.9100079133858268
20
-4.7510845275590547
11
5.8959535826771656
21
-4.831617440944882
0
LINE
8
BLACK
6
CONTINUOUS
10
5.8959535826771656
20
-4.831617440944882
11
5.8695871259842516
21
-4.9077973228346456
0
LINE
8
BLACK
6
CONTINUOUS
10
5.8695871259842516
20
-4.9077973228346456
11
5.8619276377952758
21
-4.9242803937007871
0
LINE
8
BLACK
6
CONTINUOUS
10
5.8619276377952758
20
-4.9242803937007871
11
5.8223201181102358
21
-4.990792007874016
0
LINE
8
BLACK
6
CONTINUOUS
10
5.8223201181102358
20
-4.990792007874016
11
5.7712411811023623
21
-5.053112440944882
0
LINE
8
BLACK
6
CONTINUOUS
10
5.7712411811023623
20
-5.053112440944882
11
5.7105478346456691
21
-5.1097820078740153
0
LINE
8
BLACK
6
CONTINUOUS
10
5.7105478346456691
20
-5.1097820078740153
11
5.6420970866141733
21
-5.1593409842519682
0
LINE
8
BLACK
6
CONTINUOUS
10
5.6420970866141733
20
-5.1593409842519682
11
5.5677459842519683
21
-5.2003296456692913
0
LINE
8
BLACK
6
CONTINUOUS
10
5.5677459842519683
20
-5.2003296456692913
11
5.4893514960629917
21
-5.2312883070866141
0
LINE
8
BLACK
6
CONTINUOUS
10
5.4893514960629917
20
-5.2312883070866141
11
5.4607450393700789
21
-5.2396315354330705
0
LINE
8
BLACK
6
CONTINUOUS
10
5.4607450393700789
20
-5.2396315354330705
11
5.4193108267716532
21
-5.247976338582677
0
LINE
8
BLACK
6
CONTINUOUS
10
5.4193108267716532
20
-5.247976338582677
11
5.3698214960629924
21
-5.2538762204724412
0
LINE
8
BLACK
6
CONTINUOUS
10
5.3698214960629924
20
-5.2538762204724412
11
5.3164003543307086
21
-5.2571966141732283
0
LINE
8
BLACK
6
CONTINUOUS
10
5.3164003543307086
20
-5.2571966141732283
11
5.2631707874015747
21
-5.2578028346456689
0
LINE
8
BLACK
6
CONTINUOUS
10
5.2631707874015747
20
-5.2578028346456689
11
5.214256062992126
21
-5.25556031496063
0
LINE
8
BLACK
6
CONTINUOUS
10
5.214256062992126
20
-5.25556031496063
11
5.1737796062992123
21
-5.2503343700787397
0
LINE
8
BLACK
6
CONTINUOUS
10
5.1737796062992123
20
-5.2503343700787397
11
5.1682280314960627
21
-5.2491826771653542
0
LINE
8
BLACK
6
CONTINUOUS
10
5.1682280314960627
20
-5.2491826771653542
11
5.1175318503937008
21
-5.2350520472440945
0
LINE
8
BLACK
6
CONTINUOUS
10
5.1175318503937008
20
-5.2350520472440945
11
5.0639081102362207
21
-5.2152204330708658
0
LINE
8
BLACK
6
CONTINUOUS
10
5.0639081102362207
20
-5.2152204330708658
11
5.0128655118110235
21
-5.1919545669291338
0
LINE
8
BLACK
6
CONTINUOUS
10
5.0128655118110235
20
-5.1919545669291338
11
4.9701576377952756
21
-5.1676812598425199
0
LINE
8
BLACK
6
CONTINUOUS
10
4.9701576377952756
20
-5.1676812598425199
11
4.9134066535433067
21
-5.1239425196850394
0
LINE
8
BLACK
6
CONTINUOUS
10
4.9134066535433067
20
-5.1239425196850394
11
4.8614093700787402
21
-5.0709267322834641
0
LINE
8
BLACK
6
CONTINUOUS
10
4.8614093700787402
20
-5.0709267322834641
11
4.8165535039370075
21
-5.0116505905511808
0
LINE
8
BLACK
6
CONTINUOUS
10
4.8165535039370075
20
-5.0116505905511808
11
4.781226771653543
21
-4.9491308661417319
0
LINE
8
BLACK
6
CONTINUOUS
10
4.781226771653543
20
-4.9491308661417319
11
4.7643075196850395
21
-4.9076048425196852
0
LINE
8
BLACK
6
CONTINUOUS
10
4.7643075196850395
20
-4.9076048425196852
11
4.7489398031496064
21
-4.8459977165354333
0
LINE
8
BLACK
6
CONTINUOUS
10
4.7489398031496064
20
-4.8459977165354333
11
4.7417188582677161
21
-4.7780188582677168
0
LINE
8
BLACK
6
CONTINUOUS
10
4.7417188582677161
20
-4.7780188582677168
11
4.7420801968503934
21
-4.751035787401575
0
LINE
8
BLACK
6
CONTINUOUS
10
4.7420801968503934
20
-4.751035787401575
11
4.7426537795275587
21
-4.7081999999999997
0
LINE
8
BLACK
6
CONTINUOUS
10
4.7426537795275587
20
-4.7081999999999997
11
4.7517536614173226
21
-4.6410729527559056
0
LINE
8
BLACK
6
CONTINUOUS
10
4.7517536614173226
20
-4.6410729527559056
11
4.763682874015748
21
-4.5959965354330707
0
LINE
8
BLACK
6
CONTINUOUS
10
4.763682874015748
20
-4.5959965354330707
11
4.7775007086614174
21
-4.5621623622047247
0
LINE
8
BLACK
6
CONTINUOUS
10
4.7775007086614174
20
-4.5621623622047247
11
4.7980259055118113
21
-4.5217430314960625
0
LINE
8
BLACK
6
CONTINUOUS
10
4.7980259055118113
20
-4.5217430314960625
11
4.8231109842519686
21
-4.4784828346456695
0
LINE
8
BLACK
6
CONTINUOUS
10
4.8231109842519686
20
-4.4784828346456695
11
4.8506083464566929
21
-4.4361260236220472
0
LINE
8
BLACK
6
CONTINUOUS
10
4.8506083464566929
20
-4.4361260236220472
11
4.8732805511811019
21
-4.4049132283464569
0
LINE
8
BLACK
6
CONTINUOUS
10
4.8732805511811019
20
-4.4049132283464569
11
4.8939146062992123
21
-4.3796930708661419
0
LINE
8
BLACK
6
CONTINUOUS
10
4.8939146062992123
20
-4.3796930708661419
11
4.9199367322834648
21
-4.3501683464566927
0
LINE
8
BLACK
6
CONTINUOUS
10
4.9199367322834648
20
-4.3501683464566927
11
4.9493459448818893
21
-4.3183756692913384
0
LINE
8
BLACK
6
CONTINUOUS
10
4.9493459448818893
20
-4.3183756692913384
11
4.9801412598425197
21
-4.2863516141732285
0
LINE
8
BLACK
6
CONTINUOUS
10
4.9801412598425197
20
-4.2863516141732285
11
5.0103218110236218
21
-4.2561326377952753
0
LINE
8
BLACK
6
CONTINUOUS
10
5.0103218110236218
20
-4.2561326377952753
11
5.0378865748031494
21
-4.2297553543307087
0
LINE
8
BLACK
6
CONTINUOUS
10
5.0378865748031494
20
-4.2297553543307087
11
5.0608346456692912
21
-4.2092563385826773
0
LINE
8
BLACK
6
CONTINUOUS
10
5.0608346456692912
20
-4.2092563385826773
11
5.0771650393700787
21
-4.1966720866141731
0
LINE
8
BLACK
6
CONTINUOUS
10
5.0771650393700787
20
-4.1966720866141731
11
5.0789714566929129
21
-4.1955631496062988
0
LINE
8
BLACK
6
CONTINUOUS
10
5.0789714566929129
20
-4.1955631496062988
11
5.1133048425196845
21
-4.1788657480314964
0
LINE
8
BLACK
6
CONTINUOUS
10
5.1133048425196845
20
-4.1788657480314964
11
5.1508325590551181
21
-4.1675198818897634
0
LINE
8
BLACK
6
CONTINUOUS
10
5.1508325590551181
20
-4.1675198818897634
11
5.1942551181102363
21
-4.1610635039370081
0
LINE
8
BLACK
6
CONTINUOUS
10
5.1942551181102363
20
-4.1610635039370081
11
5.2462730708661418
21
-4.159034566929134
0
LINE
8
BLACK
6
CONTINUOUS
10
5.2462730708661418
20
-4.159034566929134
11
5.2872756692913381
21
-4.1599219291338585
0
LINE
8
BLACK
6
CONTINUOUS
10
4.9637130708661417
20
-4.8152690551181099
11
4.974984881889764
21
-4.8701508267716536
0
LINE
8
BLACK
6
CONTINUOUS
10
4.974984881889764
20
-4.8701508267716536
11
4.9960815354330705
21
-4.9163495669291342
0
LINE
8
BLACK
6
CONTINUOUS
10
4.9960815354330705
20
-4.9163495669291342
11
5.027313503937008
21
-4.9545338188976373
0
LINE
8
BLACK
6
CONTINUOUS
10
5.027313503937008
20
-4.9545338188976373
11
5.0689914566929133
21
-4.9853721259842523
0
LINE
8
BLACK
6
CONTINUOUS
10
5.0689914566929133
20
-4.9853721259842523
11
5.0714906299212599
21
-4.9868102362204727
0
LINE
8
BLACK
6
CONTINUOUS
10
5.0714906299212599
20
-4.9868102362204727
11
5.1261404330708658
21
-5.0105699999999995
0
LINE
8
BLACK
6
CONTINUOUS
10
5.1261404330708658
20
-5.0105699999999995
11
5.1888146456692912
21
-5.0249512204724409
0
LINE
8
BLACK
6
CONTINUOUS
10
5.1888146456692912
20
-5.0249512204724409
11
5.2575691338582677
21
-5.0298349606299215
0
LINE
8
BLACK
6
CONTINUOUS
10
5.2575691338582677
20
-5.0298349606299215
11
5.3304599999999995
21
-5.0251022047244094
0
LINE
8
BLACK
6
CONTINUOUS
10
5.3304599999999995
20
-5.0251022047244094
11
5.4055430708661421
21
-5.0106340157480318
0
LINE
8
BLACK
6
CONTINUOUS
10
5.4055430708661421
20
-5.0106340157480318
11
5.4158865354330707
21
-5.0078886220472443
0
LINE
8
BLACK
6
CONTINUOUS
10
5.4158865354330707
20
-5.0078886220472443
11
5.4821433858267712
21
-4.9840184645669288
0
LINE
8
BLACK
6
CONTINUOUS
10
5.4821433858267712
20
-4.9840184645669288
11
5.5415223622047245
21
-4.9511967322834645
0
LINE
8
BLACK
6
CONTINUOUS
10
5.5415223622047245
20
-4.9511967322834645
11
5.5926174409448821
21
-4.910629881889764
0
LINE
8
BLACK
6
CONTINUOUS
10
5.5926174409448821
20
-4.910629881889764
11
5.6340226377952751
21
-4.8635244094488188
0
LINE
8
BLACK
6
CONTINUOUS
10
5.6340226377952751
20
-4.8635244094488188
11
5.6643319685039373
21
-4.8110867716535433
0
LINE
8
BLACK
6
CONTINUOUS
10
5.6643319685039373
20
-4.8110867716535433
11
5.6738157086614169
21
-4.786559960629921
0
LINE
8
BLACK
6
CONTINUOUS
10
5.6738157086614169
20
-4.786559960629921
11
5.6891535433070866
21
-4.721732874015748
0
LINE
8
BLACK
6
CONTINUOUS
10
5.6891535433070866
20
-4.721732874015748
11
5.6920035826771649
21
-4.6590584251968501
0
LINE
8
BLACK
6
CONTINUOUS
10
5.6920035826771649
20
-4.6590584251968501
11
5.6825601968503934
21
-4.5997199999999996
0
LINE
8
BLACK
6
CONTINUOUS
10
5.6825601968503934
20
-4.5997199999999996
11
5.6610176771653542
21
-4.5449010236220468
0
LINE
8
BLACK
6
CONTINUOUS
10
5.6610176771653542
20
-4.5449010236220468
11
5.6275702755905508
21
-4.4957848425196847
0
LINE
8
BLACK
6
CONTINUOUS
10
5.6275702755905508
20
-4.4957848425196847
11
5.6257237007874012
21
-4.4936538188976378
0
LINE
8
BLACK
6
CONTINUOUS
10
5.6257237007874012
20
-4.4936538188976378
11
5.5930090157480317
21
-4.4635277952755903
0
LINE
8
BLACK
6
CONTINUOUS
10
5.5930090157480317
20
-4.4635277952755903
11
5.5499984251968506
21
-4.434756456692913
0
LINE
8
BLACK
6
CONTINUOUS
10
5.5499984251968506
20
-4.434756456692913
11
5.4999960629921256
21
-4.4090718503937003
0
LINE
8
BLACK
6
CONTINUOUS
10
5.4999960629921256
20
-4.4090718503937003
11
5.4463062598425198
21
-4.3882059842519681
0
LINE
8
BLACK
6
CONTINUOUS
10
5.4463062598425198
20
-4.3882059842519681
11
5.4005476771653544
21
-4.3756199606299209
0
LINE
8
BLACK
6
CONTINUOUS
10
5.4005476771653544
20
-4.3756199606299209
11
5.3615728346456688
21
-4.3697397637795277
0
LINE
8
BLACK
6
CONTINUOUS
10
5.3615728346456688
20
-4.3697397637795277
11
5.3190868897637795
21
-4.3676766929133857
0
LINE
8
BLACK
6
CONTINUOUS
10
5.3190868897637795
20
-4.3676766929133857
11
5.2773462598425196
21
-4.3692803937007874
0
LINE
8
BLACK
6
CONTINUOUS
10
5.2773462598425196
20
-4.3692803937007874
11
5.2406075984251963
21
-4.3744005118110234
0
LINE
8
BLACK
6
CONTINUOUS
10
5.2406075984251963
20
-4.3744005118110234
11
5.214658622047244
21
-4.382187047244094
0
LINE
8
BLACK
6
CONTINUOUS
10
5.214658622047244
20
-4.382187047244094
11
5.1932297244094485
21
-4.3951688582677164
0
LINE
8
BLACK
6
CONTINUOUS
10
5.1932297244094485
20
-4.3951688582677164
11
5.1659903937007874
21
-4.4169136614173228
0
LINE
8
BLACK
6
CONTINUOUS
10
5.1659903937007874
20
-4.4169136614173228
11
5.1351762204724407
21
-4.4452131496062988
0
LINE
8
BLACK
6
CONTINUOUS
10
5.1351762204724407
20
-4.4452131496062988
11
5.1030228740157479
21
-4.4778590157480318
0
LINE
8
BLACK
6
CONTINUOUS
10
5.1030228740157479
20
-4.4778590157480318
11
5.0717659448818893
21
-4.5126430314960633
0
LINE
8
BLACK
6
CONTINUOUS
10
5.0717659448818893
20
-4.5126430314960633
11
5.043641102362205
21
-4.547356850393701
0
LINE
8
BLACK
6
CONTINUOUS
10
5.043641102362205
20
-4.547356850393701
11
5.0334395275590547
21
-4.5611894094488186
0
LINE
8
BLACK
6
CONTINUOUS
10
5.0334395275590547
20
-4.5611894094488186
11
5.0052216929133859
21
-4.6032524015748031
0
LINE
8
BLACK
6
CONTINUOUS
10
5.0052216929133859
20
-4.6032524015748031
11
4.9853956299212596
21
-4.6397490157480314
0
LINE
8
BLACK
6
CONTINUOUS
10
4.9853956299212596
20
-4.6397490157480314
11
4.9725175984251964
21
-4.6745135826771653
0
LINE
8
BLACK
6
CONTINUOUS
10
4.9725175984251964
20
-4.6745135826771653
11
4.965143818897638
21
-4.7113802755905514
0
LINE
8
BLACK
6
CONTINUOUS
10
4.965143818897638
20
-4.7113802755905514
11
4.9619554724409447
21
-4.751035787401575
0
LINE
8
BLACK
6
CONTINUOUS
10
4.9619554724409447
20
-4.751035787401575
11
4.9637130708661417
21
-4.8152690551181099
0
LINE
8
BLACK
6
CONTINUOUS
10
6.2698741732283461
20
-4.1842059842519683
11
6.2979231889763776
21
-4.2022849606299211
0
LINE
8
BLACK
6
CONTINUOUS
10
6.2979231889763776
20
-4.2022849606299211
11
6.3155584645669292
21
-4.223753818897638
0
LINE
8
BLACK
6
CONTINUOUS
10
6.3155584645669292
20
-4.223753818897638
11
6.3262433464566925
21
-4.2413923622047243
0
LINE
8
BLACK
6
CONTINUOUS
10
6.3262433464566925
20
-4.2413923622047243
11
6.3355360236220468
21
-4.2604338582677164
0
LINE
8
BLACK
6
CONTINUOUS
10
6.3355360236220468
20
-4.2604338582677164
11
6.3440113779527554
21
-4.282842598425197
0
LINE
8
BLACK
6
CONTINUOUS
10
6.3440113779527554
20
-4.282842598425197
11
6.3522442125984249
21
-4.3105828346456692
0
LINE
8
BLACK
6
CONTINUOUS
10
6.3522442125984249
20
-4.3105828346456692
11
6.3608094488188973
21
-4.3456188582677164
0
LINE
8
BLACK
6
CONTINUOUS
10
6.3608094488188973
20
-4.3456188582677164
11
6.3702819685039369
21
-4.3899149212598427
0
LINE
8
BLACK
6
CONTINUOUS
10
6.3702819685039369
20
-4.3899149212598427
11
6.3812366141732282
21
-4.4454353149606298
0
LINE
8
BLACK
6
CONTINUOUS
10
6.3812366141732282
20
-4.4454353149606298
11
6.3827608661417319
21
-4.4533778740157484
0
LINE
8
BLACK
6
CONTINUOUS
10
6.3827608661417319
20
-4.4533778740157484
11
6.3909177559055115
21
-4.4955600787401577
0
LINE
8
BLACK
6
CONTINUOUS
10
6.3909177559055115
20
-4.4955600787401577
11
6.3983103149606295
21
-4.5329914960629925
0
LINE
8
BLACK
6
CONTINUOUS
10
6.3983103149606295
20
-4.5329914960629925
11
6.4045348818897638
21
-4.5636926771653545
0
LINE
8
BLACK
6
CONTINUOUS
10
6.4045348818897638
20
-4.5636926771653545
11
6.4091877952755905
21
-4.5856841338582672
0
LINE
8
BLACK
6
CONTINUOUS
10
6.4091877952755905
20
-4.5856841338582672
11
6.4118653543307085
21
-4.5969863779527556
0
LINE
8
BLACK
6
CONTINUOUS
10
6.4118653543307085
20
-4.5969863779527556
11
6.412263976377953
21
-4.5980534251968503
0
LINE
8
BLACK
6
CONTINUOUS
10
6.412263976377953
20
-4.5980534251968503
11
6.4163159055118113
21
-4.5933706299212593
0
LINE
8
BLACK
6
CONTINUOUS
10
6.4163159055118113
20
-4.5933706299212593
11
6.4258802362204719
21
-4.5789799212598421
0
LINE
8
BLACK
6
CONTINUOUS
10
6.4258802362204719
20
-4.5789799212598421
11
6.439646377952756
21
-4.5569442913385823
0
LINE
8
BLACK
6
CONTINUOUS
10
6.439646377952756
20
-4.5569442913385823
11
6.4563036614173228
21
-4.5293266929133855
0
LINE
8
BLACK
6
CONTINUOUS
10
6.4563036614173228
20
-4.5293266929133855
11
6.4614296456692912
21
-4.5206668503937006
0
LINE
8
BLACK
6
CONTINUOUS
10
6.4614296456692912
20
-4.5206668503937006
11
6.4927393700787404
21
-4.4709208661417321
0
LINE
8
BLACK
6
CONTINUOUS
10
6.4927393700787404
20
-4.4709208661417321
11
6.5244779527559054
21
-4.4283049606299212
0
LINE
8
BLACK
6
CONTINUOUS
10
6.5244779527559054
20
-4.4283049606299212
11
6.5610978346456692
21
-4.3869524409448815
0
LINE
8
BLACK
6
CONTINUOUS
10
6.5610978346456692
20
-4.3869524409448815
11
6.5696926771653539
21
-4.3780157086614171
0
LINE
8
BLACK
6
CONTINUOUS
10
6.5696926771653539
20
-4.3780157086614171
11
6.605547755905512
21
-4.3429937007874013
0
LINE
8
BLACK
6
CONTINUOUS
10
6.605547755905512
20
-4.3429937007874013
11
6.6365281102362204
21
-4.3175795669291341
0
LINE
8
BLACK
6
CONTINUOUS
10
6.6365281102362204
20
-4.3175795669291341
11
6.6655245669291334
21
-4.3002095669291336
0
LINE
8
BLACK
6
CONTINUOUS
10
6.6655245669291334
20
-4.3002095669291336
11
6.6954278740157482
21
-4.2893199212598425
0
LINE
8
BLACK
6
CONTINUOUS
10
6.6954278740157482
20
-4.2893199212598425
11
6.7291288582677167
21
-4.2833468503937011
0
LINE
8
BLACK
6
CONTINUOUS
10
6.7291288582677167
20
-4.2833468503937011
11
6.7476351574803148
21
-4.2817584251968501
0
LINE
8
BLACK
6
CONTINUOUS
10
6.7476351574803148
20
-4.2817584251968501
11
6.7913868897637792
21
-4.282820984251968
0
LINE
8
BLACK
6
CONTINUOUS
10
6.7913868897637792
20
-4.282820984251968
11
6.8270265354330704
21
-4.2931611023622045
0
LINE
8
BLACK
6
CONTINUOUS
10
6.8270265354330704
20
-4.2931611023622045
11
6.8574319291338579
21
-4.3140359055118109
0
LINE
8
BLACK
6
CONTINUOUS
10
6.8574319291338579
20
-4.3140359055118109
11
6.8803546850393698
21
-4.3397344488188976
0
LINE
8
BLACK
6
CONTINUOUS
10
6.8803546850393698
20
-4.3397344488188976
11
6.8964303149606296
21
-4.3642967322834645
0
LINE
8
BLACK
6
CONTINUOUS
10
6.8964303149606296
20
-4.3642967322834645
11
6.9141417322834648
21
-4.3967326771653541
0
LINE
8
BLACK
6
CONTINUOUS
10
6.9141417322834648
20
-4.3967326771653541
11
6.9316465748031497
21
-4.4330326377952751
0
LINE
8
BLACK
6
CONTINUOUS
10
6.9316465748031497
20
-4.4330326377952751
11
6.9471024015748029
21
-4.4691871653543309
0
LINE
8
BLACK
6
CONTINUOUS
10
6.9471024015748029
20
-4.4691871653543309
11
6.9586668110236216
21
-4.5011866141732284
0
LINE
8
BLACK
6
CONTINUOUS
10
6.9586668110236216
20
-4.5011866141732284
11
6.9639985039370078
21
-4.5217661417322832
0
LINE
8
BLACK
6
CONTINUOUS
10
6.9639985039370078
20
-4.5217661417322832
11
6.9677511023622047
21
-4.5401655905511813
0
LINE
8
BLACK
6
CONTINUOUS
10
6.9677511023622047
20
-4.5401655905511813
11
6.9711793700787403
21
-4.5524034645669289
0
LINE
8
BLACK
6
CONTINUOUS
10
6.9711793700787403
20
-4.5524034645669289
11
6.9719077559055114
21
-4.5539812598425193
0
LINE
8
BLACK
6
CONTINUOUS
10
6.9719077559055114
20
-4.5539812598425193
11
6.9767680708661413
21
-4.5504983858267716
0
LINE
8
BLACK
6
CONTINUOUS
10
6.9767680708661413
20
-4.5504983858267716
11
6.9882989763779522
21
-4.5376931889763776
0
LINE
8
BLACK
6
CONTINUOUS
10
6.9882989763779522
20
-4.5376931889763776
11
7.0051326771653546
21
-4.5172202362204725
0
LINE
8
BLACK
6
CONTINUOUS
10
7.0051326771653546
20
-4.5172202362204725
11
7.025901299212598
21
-4.4907340944881886
0
LINE
8
BLACK
6
CONTINUOUS
10
7.025901299212598
20
-4.4907340944881886
11
7.0449766535433067
21
-4.4655976771653538
0
LINE
8
BLACK
6
CONTINUOUS
10
7.0449766535433067
20
-4.4655976771653538
11
7.0934300393700784
21
-4.4035005118110231
0
LINE
8
BLACK
6
CONTINUOUS
10
7.0934300393700784
20
-4.4035005118110231
11
7.1375343700787397
21
-4.3529287795275593
0
LINE
8
BLACK
6
CONTINUOUS
10
7.1375343700787397
20
-4.3529287795275593
11
7.1784723622047242
21
-4.3129777559055116
0
LINE
8
BLACK
6
CONTINUOUS
10
7.1784723622047242
20
-4.3129777559055116
11
7.2174267716535434
21
-4.2827427952755901
0
LINE
8
BLACK
6
CONTINUOUS
10
7.2174267716535434
20
-4.2827427952755901
11
7.2555802755905514
21
-4.2613192519685041
0
LINE
8
BLACK
6
CONTINUOUS
10
7.2555802755905514
20
-4.2613192519685041
11
7.2941157086614172
21
-4.2478023622047241
0
LINE
8
BLACK
6
CONTINUOUS
10
7.2941157086614172
20
-4.2478023622047241
11
7.3342157480314958
21
-4.2412875196850397
0
LINE
8
BLACK
6
CONTINUOUS
10
7.3342157480314958
20
-4.2412875196850397
11
7.3386475590551177
21
-4.2409675590551181
0
LINE
8
BLACK
6
CONTINUOUS
10
7.3386475590551177
20
-4.2409675590551181
11
7.3670200787401576
21
-4.2398410629921255
0
LINE
8
BLACK
6
CONTINUOUS
10
7.3670200787401576
20
-4.2398410629921255
11
7.3876199606299213
21
-4.2414931102362203
0
LINE
8
BLACK
6
CONTINUOUS
10
7.3876199606299213
20
-4.2414931102362203
11
7.4061592519685036
21
-4.2468933858267714
0
LINE
8
BLACK
6
CONTINUOUS
10
7.4061592519685036
20
-4.2468933858267714
11
7.4258193700787398
21
-4.2557676377952758
0
LINE
8
BLACK
6
CONTINUOUS
10
7.4258193700787398
20
-4.2557676377952758
11
7.4682823228346455
21
-4.2839327559055116
0
LINE
8
BLACK
6
CONTINUOUS
10
7.4682823228346455
20
-4.2839327559055116
11
7.506239212598425
21
-4.3243210629921256
0
LINE
8
BLACK
6
CONTINUOUS
10
7.506239212598425
20
-4.3243210629921256
11
7.5391557086614167
21
-4.37614279527559
0
LINE
8
BLACK
6
CONTINUOUS
10
7.5391557086614167
20
-4.37614279527559
11
7.566497519685039
21
-4.438608346456693
0
LINE
8
BLACK
6
CONTINUOUS
10
7.566497519685039
20
-4.438608346456693
11
7.5813063385826771
21
-4.4855625196850388
0
LINE
8
BLACK
6
CONTINUOUS
10
7.5813063385826771
20
-4.4855625196850388
11
7.585146889763779
21
-4.5000739370078735
0
LINE
8
BLACK
6
CONTINUOUS
10
7.585146889763779
20
-4.5000739370078735
11
7.5882945669291333
21
-4.5138077559055114
0
LINE
8
BLACK
6
CONTINUOUS
10
7.5882945669291333
20
-4.5138077559055114
11
7.5908182677165357
21
-4.528253976377953
0
LINE
8
BLACK
6
CONTINUOUS
10
7.5908182677165357
20
-4.528253976377953
11
7.5927867322834643
21
-4.5449026771653545
0
LINE
8
BLACK
6
CONTINUOUS
10
7.5927867322834643
20
-4.5449026771653545
11
7.5942687795275585
21
-4.5652438188976374
0
LINE
8
BLACK
6
CONTINUOUS
10
7.5942687795275585
20
-4.5652438188976374
11
7.595333149606299
21
-4.590767440944882
0
LINE
8
BLACK
6
CONTINUOUS
10
7.595333149606299
20
-4.590767440944882
11
7.5960487007874011
21
-4.6229635826771656
0
LINE
8
BLACK
6
CONTINUOUS
10
7.5960487007874011
20
-4.6229635826771656
11
7.5964841732283466
21
-4.6633222440944877
0
LINE
8
BLACK
6
CONTINUOUS
10
7.5964841732283466
20
-4.6633222440944877
11
7.5967083858267719
21
-4.7133334251968506
0
LINE
8
BLACK
6
CONTINUOUS
10
7.5967083858267719
20
-4.7133334251968506
11
7.5967901574803145
21
-4.7744872047244096
0
LINE
8
BLACK
6
CONTINUOUS
10
7.5967901574803145
20
-4.7744872047244096
11
7.5967994488188975
21
-4.8211376771653542
0
LINE
8
BLACK
6
CONTINUOUS
10
7.5967994488188975
20
-4.8211376771653542
11
7.5967994488188975
21
-5.1000492519685041
0
LINE
8
BLACK
6
CONTINUOUS
10
7.5967994488188975
20
-5.1000492519685041
11
7.5775366141732281
21
-5.1392774015748026
0
LINE
8
BLACK
6
CONTINUOUS
10
7.5775366141732281
20
-5.1392774015748026
11
7.558786653543307
21
-5.1701433070866143
0
LINE
8
BLACK
6
CONTINUOUS
10
7.558786653543307
20
-5.1701433070866143
11
7.5376311811023617
21
-5.1889381496062992
0
LINE
8
BLACK
6
CONTINUOUS
10
7.5376311811023617
20
-5.1889381496062992
11
7.5115973228346453
21
-5.1971961811023624
0
LINE
8
BLACK
6
CONTINUOUS
10
7.5115973228346453
20
-5.1971961811023624
11
7.4842971653543309
21
-5.1971266929133861
0
LINE
8
BLACK
6
CONTINUOUS
10
7.4842971653543309
20
-5.1971266929133861
11
7.4478553543307084
21
-5.1877204330708659
0
LINE
8
BLACK
6
CONTINUOUS
10
7.4478553543307084
20
-5.1877204330708659
11
7.4188445669291339
21
-5.1679087007874012
0
LINE
8
BLACK
6
CONTINUOUS
10
7.4188445669291339
20
-5.1679087007874012
11
7.4003592519685037
21
-5.1416721259842522
0
LINE
8
BLACK
6
CONTINUOUS
10
7.4003592519685037
20
-5.1416721259842522
11
7.3970446456692915
21
-5.1329424409448814
0
LINE
8
BLACK
6
CONTINUOUS
10
7.3970446456692915
20
-5.1329424409448814
11
7.3944484645669286
21
-5.1212765354330712
0
LINE
8
BLACK
6
CONTINUOUS
10
7.3944484645669286
20
-5.1212765354330712
11
7.3924881102362203
21
-5.1050586220472436
0
LINE
8
BLACK
6
CONTINUOUS
10
7.3924881102362203
20
-5.1050586220472436
11
7.3910808267716535
21
-5.0826730708661412
0
LINE
8
BLACK
6
CONTINUOUS
10
7.3910808267716535
20
-5.0826730708661412
11
7.3901439763779528
21
-5.0525041732283462
0
LINE
8
BLACK
6
CONTINUOUS
10
7.3901439763779528
20
-5.0525041732283462
11
7.3895948818897637
21
-5.012936220472441
0
LINE
8
BLACK
6
CONTINUOUS
10
7.3895948818897637
20
-5.012936220472441
11
7.3893508267716532
21
-4.9623535433070867
0
LINE
8
BLACK
6
CONTINUOUS
10
7.3893508267716532
20
-4.9623535433070867
11
7.3893164566929128
21
-4.9258651574803149
0
LINE
8
BLACK
6
CONTINUOUS
10
7.3893164566929128
20
-4.9258651574803149
11
7.3884945669291335
21
-4.8249081889763774
0
LINE
8
BLACK
6
CONTINUOUS
10
7.3884945669291335
20
-4.8249081889763774
11
7.3860211811023619
21
-4.7373390551181105
0
LINE
8
BLACK
6
CONTINUOUS
10
7.3860211811023619
20
-4.7373390551181105
11
7.3818849212598421
21
-4.6630394488188971
0
LINE
8
BLACK
6
CONTINUOUS
10
7.3818849212598421
20
-4.6630394488188971
11
7.3760742519685039
21
-4.601890984251968
0
LINE
8
BLACK
6
CONTINUOUS
10
7.3760742519685039
20
-4.601890984251968
11
7.3685777559055117
21
-4.5537752755905512
0
LINE
8
BLACK
6
CONTINUOUS
10
7.3685777559055117
20
-4.5537752755905512
11
7.3593839763779529
21
-4.5185739763779527
0
LINE
8
BLACK
6
CONTINUOUS
10
7.3593839763779529
20
-4.5185739763779527
11
7.3484814566929133
21
-4.4961687401574801
0
LINE
8
BLACK
6
CONTINUOUS
10
7.3484814566929133
20
-4.4961687401574801
11
7.347609921259842
21
-4.4950204330708656
0
LINE
8
BLACK
6
CONTINUOUS
10
7.347609921259842
20
-4.4950204330708656
11
7.3339279527559054
21
-4.481939173228346
0
LINE
8
BLACK
6
CONTINUOUS
10
7.3339279527559054
20
-4.481939173228346
11
7.319449960629921
21
-4.4783320866141727
0
LINE
8
BLACK
6
CONTINUOUS
10
7.319449960629921
20
-4.4783320866141727
11
7.3023927559055117
21
-4.4847240157480313
0
LINE
8
BLACK
6
CONTINUOUS
10
7.3023927559055117
20
-4.4847240157480313
11
7.2809732677165355
21
-4.5016396850393701
0
LINE
8
BLACK
6
CONTINUOUS
10
7.2809732677165355
20
-4.5016396850393701
11
7.2623392913385825
21
-4.5201172834645664
0
LINE
8
BLACK
6
CONTINUOUS
10
7.2623392913385825
20
-4.5201172834645664
11
7.231378818897638
21
-4.5559449212598429
0
LINE
8
BLACK
6
CONTINUOUS
10
7.231378818897638
20
-4.5559449212598429
11
7.2051838976377951
21
-4.5946021259842516
0
LINE
8
BLACK
6
CONTINUOUS
10
7.2051838976377951
20
-4.5946021259842516
11
7.1822272834645666
21
-4.6389453543307084
0
LINE
8
BLACK
6
CONTINUOUS
10
7.1822272834645666
20
-4.6389453543307084
11
7.1609815748031496
21
-4.6918310629921258
0
LINE
8
BLACK
6
CONTINUOUS
10
7.1609815748031496
20
-4.6918310629921258
11
7.1450362204724405
21
-4.7395050393700791
0
LINE
8
BLACK
6
CONTINUOUS
10
7.1450362204724405
20
-4.7395050393700791
11
7.1219983070866144
21
-4.81076562992126
0
LINE
8
BLACK
6
CONTINUOUS
10
7.1219983070866144
20
-4.81076562992126
11
7.1011801181102356
21
-4.8697870866141733
0
LINE
8
BLACK
6
CONTINUOUS
10
7.1011801181102356
20
-4.8697870866141733
11
7.0818898031496058
21
-4.9176204724409445
0
LINE
8
BLACK
6
CONTINUOUS
10
7.0818898031496058
20
-4.9176204724409445
11
7.0634354724409452
21
-4.9553168897637798
0
LINE
8
BLACK
6
CONTINUOUS
10
7.0634354724409452
20
-4.9553168897637798
11
7.0451253149606297
21
-4.9839274015748032
0
LINE
8
BLACK
6
CONTINUOUS
10
7.0451253149606297
20
-4.9839274015748032
11
7.0262674015748026
21
-5.0045031496062995
0
LINE
8
BLACK
6
CONTINUOUS
10
7.0262674015748026
20
-5.0045031496062995
11
7.0061698818897638
21
-5.0180951968503935
0
LINE
8
BLACK
6
CONTINUOUS
10
7.0061698818897638
20
-5.0180951968503935
11
6.9841409055118104
21
-5.0257546062992127
0
LINE
8
BLACK
6
CONTINUOUS
10
6.9841409055118104
20
-5.0257546062992127
11
6.9594885433070868
21
-5.0285325196850392
0
LINE
8
BLACK
6
CONTINUOUS
10
6.9594885433070868
20
-5.0285325196850392
11
6.9547452755905512
21
-5.0285952362204727
0
LINE
8
BLACK
6
CONTINUOUS
10
6.9547452755905512
20
-5.0285952362204727
11
6.9182797244094489
21
-5.0241472834645666
0
LINE
8
BLACK
6
CONTINUOUS
10
6.9182797244094489
20
-5.0241472834645666
11
6.8894764960629917
21
-5.0097780314960625
0
LINE
8
BLACK
6
CONTINUOUS
10
6.8894764960629917
20
-5.0097780314960625
11
6.8659653149606301
21
-4.9840350787401571
0
LINE
8
BLACK
6
CONTINUOUS
10
6.8659653149606301
20
-4.9840350787401571
11
6.8565042913385827
21
-4.9683972047244094
0
LINE
8
BLACK
6
CONTINUOUS
10
6.8565042913385827
20
-4.9683972047244094
11
6.8484073228346452
21
-4.9493219685039369
0
LINE
8
BLACK
6
CONTINUOUS
10
6.8484073228346452
20
-4.9493219685039369
11
6.8382144094488186
21
-4.918592086614173
0
LINE
8
BLACK
6
CONTINUOUS
10
6.8382144094488186
20
-4.918592086614173
11
6.8263725590551179
21
-4.8779185826771654
0
LINE
8
BLACK
6
CONTINUOUS
10
6.8263725590551179
20
-4.8779185826771654
11
6.813328818897638
21
-4.829012440944882
0
LINE
8
BLACK
6
CONTINUOUS
10
6.813328818897638
20
-4.829012440944882
11
6.7995301181102361
21
-4.7735846850393697
0
LINE
8
BLACK
6
CONTINUOUS
10
6.7995301181102361
20
-4.7735846850393697
11
6.7854235433070862
21
-4.713346338582677
0
LINE
8
BLACK
6
CONTINUOUS
10
6.7854235433070862
20
-4.713346338582677
11
6.7714560236220471
21
-4.6500084645669286
0
LINE
8
BLACK
6
CONTINUOUS
10
6.7714560236220471
20
-4.6500084645669286
11
6.7638269291338577
21
-4.6136546850393696
0
LINE
8
BLACK
6
CONTINUOUS
10
6.7638269291338577
20
-4.6136546850393696
11
6.7555214173228348
21
-4.5745195669291334
0
LINE
8
BLACK
6
CONTINUOUS
10
6.7555214173228348
20
-4.5745195669291334
11
6.7487807480314963
21
-4.5468296456692912
0
LINE
8
BLACK
6
CONTINUOUS
10
6.7487807480314963
20
-4.5468296456692912
11
6.7427588976377955
21
-4.5286400000000002
0
LINE
8
BLACK
6
CONTINUOUS
10
6.7427588976377955
20
-4.5286400000000002
11
6.7366097244094485
21
-4.5180056299212596
0
LINE
8
BLACK
6
CONTINUOUS
10
6.7366097244094485
20
-4.5180056299212596
11
6.7294871259842521
21
-4.5129816141732286
0
LINE
8
BLACK
6
CONTINUOUS
10
6.7294871259842521
20
-4.5129816141732286
11
6.7205450787401571
21
-4.5116230314960628
0
LINE
8
BLACK
6
CONTINUOUS
10
6.7205450787401571
20
-4.5116230314960628
11
6.7194369685039366
21
-4.5116138582677161
0
LINE
8
BLACK
6
CONTINUOUS
10
6.7194369685039366
20
-4.5116138582677161
11
6.7045716535433071
21
-4.5161004724409448
0
LINE
8
BLACK
6
CONTINUOUS
10
6.7045716535433071
20
-4.5161004724409448
11
6.6887388976377951
21
-4.5307981889763775
0
LINE
8
BLACK
6
CONTINUOUS
10
6.6887388976377951
20
-4.5307981889763775
11
6.6811635433070862
21
-4.540525433070866
0
LINE
8
BLACK
6
CONTINUOUS
10
6.6811635433070862
20
-4.540525433070866
11
6.668007086614173
21
-4.5611179133858268
0
LINE
8
BLACK
6
CONTINUOUS
10
6.668007086614173
20
-4.5611179133858268
11
6.6507173622047242
21
-4.5920977952755901
0
LINE
8
BLACK
6
CONTINUOUS
10
6.6507173622047242
20
-4.5920977952755901
11
6.630350472440945
21
-4.6312755118110234
0
LINE
8
BLACK
6
CONTINUOUS
10
6.630350472440945
20
-4.6312755118110234
11
6.6079624409448821
21
-4.6764614566929135
0
LINE
8
BLACK
6
CONTINUOUS
10
6.6079624409448821
20
-4.6764614566929135
11
6.5846093700787396
21
-4.7254661811023624
0
LINE
8
BLACK
6
CONTINUOUS
10
6.5846093700787396
20
-4.7254661811023624
11
6.5613474015748032
21
-4.7761000787401571
0
LINE
8
BLACK
6
CONTINUOUS
10
6.5613474015748032
20
-4.7761000787401571
11
6.5392325196850392
21
-4.8261736614173225
0
LINE
8
BLACK
6
CONTINUOUS
10
6.5392325196850392
20
-4.8261736614173225
11
6.5193208661417321
21
-4.8734973228346457
0
LINE
8
BLACK
6
CONTINUOUS
10
6.5193208661417321
20
-4.8734973228346457
11
6.5130044094488184
21
-4.8891648818897639
0
LINE
8
BLACK
6
CONTINUOUS
10
6.5130044094488184
20
-4.8891648818897639
11
6.4833076377952752
21
-4.9633340944881885
0
LINE
8
BLACK
6
CONTINUOUS
10
6.4833076377952752
20
-4.9633340944881885
11
6.4578107874015744
21
-5.0258011023622045
0
LINE
8
BLACK
6
CONTINUOUS
10
6.4578107874015744
20
-5.0258011023622045
11
6.4359848031496059
21
-5.0776208661417321
0
LINE
8
BLACK
6
CONTINUOUS
10
6.4359848031496059
20
-5.0776208661417321
11
6.4173006692913388
21
-5.1198483858267716
0
LINE
8
BLACK
6
CONTINUOUS
10
6.4173006692913388
20
-5.1198483858267716
11
6.4012293700787399
21
-5.1535385433070866
0
LINE
8
BLACK
6
CONTINUOUS
10
6.4012293700787399
20
-5.1535385433070866
11
6.3872418503937007
21
-5.1797463779527559
0
LINE
8
BLACK
6
CONTINUOUS
10
6.3872418503937007
20
-5.1797463779527559
11
6.3748091338582675
21
-5.1995268110236221
0
LINE
8
BLACK
6
CONTINUOUS
10
6.3748091338582675
20
-5.1995268110236221
11
6.3634021653543309
21
-5.2139348425196852
0
LINE
8
BLACK
6
CONTINUOUS
10
6.3634021653543309
20
-5.2139348425196852
11
6.3524919291338584
21
-5.2240253937007877
0
LINE
8
BLACK
6
CONTINUOUS
10
6.3524919291338584
20
-5.2240253937007877
11
6.3416974409448814
21
-5.2307794881889764
0
LINE
8
BLACK
6
CONTINUOUS
10
6.3416974409448814
20
-5.2307794881889764
11
6.3137995669291334
21
-5.2384156692913386
0
LINE
8
BLACK
6
CONTINUOUS
10
6.3137995669291334
20
-5.2384156692913386
11
6.2809442913385825
21
-5.2379994094488191
0
LINE
8
BLACK
6
CONTINUOUS
10
6.2809442913385825
20
-5.2379994094488191
11
6.2488629133858264
21
-5.2298959842519688
0
LINE
8
BLACK
6
CONTINUOUS
10
6.2488629133858264
20
-5.2298959842519688
11
6.2366343307086609
21
-5.2240831889763779
0
LINE
8
BLACK
6
CONTINUOUS
10
6.2366343307086609
20
-5.2240831889763779
11
6.2076359448818899
21
-5.2006300393700791
0
LINE
8
BLACK
6
CONTINUOUS
10
6.2076359448818899
20
-5.2006300393700791
11
6.1897585826771655
21
-5.1701092519685039
0
LINE
8
BLACK
6
CONTINUOUS
10
6.1897585826771655
20
-5.1701092519685039
11
6.1840655118110233
21
-5.1400876377952756
0
LINE
8
BLACK
6
CONTINUOUS
10
6.1840655118110233
20
-5.1400876377952756
11
6.1839880708661417
21
-5.1268234251968501
0
LINE
8
BLACK
6
CONTINUOUS
10
6.1839880708661417
20
-5.1268234251968501
11
6.184242874015748
21
-5.1018582283464564
0
LINE
8
BLACK
6
CONTINUOUS
10
6.184242874015748
20
-5.1018582283464564
11
6.1847951181102365
21
-5.0670914173228345
0
LINE
8
BLACK
6
CONTINUOUS
10
6.1847951181102365
20
-5.0670914173228345
11
6.1856100787401571
21
-5.0244225590551181
0
LINE
8
BLACK
6
CONTINUOUS
10
6.1856100787401571
20
-5.0244225590551181
11
6.1866529527559058
21
-4.9757511023622047
0
LINE
8
BLACK
6
CONTINUOUS
10
6.1866529527559058
20
-4.9757511023622047
11
6.1878888976377953
21
-4.9229764566929131
0
LINE
8
BLACK
6
CONTINUOUS
10
6.1878888976377953
20
-4.9229764566929131
11
6.1884742519685041
21
-4.8993689763779527
0
LINE
8
BLACK
6
CONTINUOUS
10
6.1884742519685041
20
-4.8993689763779527
11
6.1902379921259838
21
-4.8063641338582679
0
LINE
8
BLACK
6
CONTINUOUS
10
6.1902379921259838
20
-4.8063641338582679
11
6.1904473622047247
21
-4.7252223622047245
0
LINE
8
BLACK
6
CONTINUOUS
10
6.1904473622047247
20
-4.7252223622047245
11
6.1890057086614174
21
-4.6542797244094487
0
LINE
8
BLACK
6
CONTINUOUS
10
6.1890057086614174
20
-4.6542797244094487
11
6.1858166141732278
21
-4.5918721653543306
0
LINE
8
BLACK
6
CONTINUOUS
10
6.1858166141732278
20
-4.5918721653543306
11
6.1807834645669288
21
-4.5363357480314956
0
LINE
8
BLACK
6
CONTINUOUS
10
6.1807834645669288
20
-4.5363357480314956
11
6.1738098031496058
21
-4.4860063779527559
0
LINE
8
BLACK
6
CONTINUOUS
10
6.1738098031496058
20
-4.4860063779527559
11
6.1647990944881892
21
-4.439220118110236
0
LINE
8
BLACK
6
CONTINUOUS
10
6.1647990944881892
20
-4.439220118110236
11
6.1607720866141733
21
-4.4218229133858271
0
LINE
8
BLACK
6
CONTINUOUS
10
6.1607720866141733
20
-4.4218229133858271
11
6.1485503149606302
21
-4.3584735826771652
0
LINE
8
BLACK
6
CONTINUOUS
10
6.1485503149606302
20
-4.3584735826771652
11
6.1445151574803152
21
-4.3038836220472438
0
LINE
8
BLACK
6
CONTINUOUS
10
6.1445151574803152
20
-4.3038836220472438
11
6.1485241732283464
21
-4.2585129527559058
0
LINE
8
BLACK
6
CONTINUOUS
10
6.1485241732283464
20
-4.2585129527559058
11
6.1604348031496059
21
-4.2228213385826772
0
LINE
8
BLACK
6
CONTINUOUS
10
6.1604348031496059
20
-4.2228213385826772
11
6.1801045275590551
21
-4.1972686614173229
0
LINE
8
BLACK
6
CONTINUOUS
10
6.1801045275590551
20
-4.1972686614173229
11
6.2073907874015744
21
-4.1823147637795275
0
LINE
8
BLACK
6
CONTINUOUS
10
6.2073907874015744
20
-4.1823147637795275
11
6.2362552362204724
21
-4.1782805118110238
0
LINE
8
BLACK
6
CONTINUOUS
10
6.2362552362204724
20
-4.1782805118110238
11
6.2698741732283461
21
-4.1842059842519683
0
LINE
8
BLACK
6
CONTINUOUS
10
9.2068599606299202
20
-4.2708747637795277
11
9.2218311023622039
21
-4.276139488188976
0
LINE
8
BLACK
6
CONTINUOUS
10
9.2218311023622039
20
-4.276139488188976
11
9.2422828740157481
21
-4.2880714566929132
0
LINE
8
BLACK
6
CONTINUOUS
10
9.2422828740157481
20
-4.2880714566929132
11
9.2572966929133855
21
-4.3056027952755906
0
LINE
8
BLACK
6
CONTINUOUS
10
9.2572966929133855
20
-4.3056027952755906
11
9.2677341732283463
21
-4.3307404724409446
0
LINE
8
BLACK
6
CONTINUOUS
10
9.2677341732283463
20
-4.3307404724409446
11
9.274456692913386
21
-4.365491653543307
0
LINE
8
BLACK
6
CONTINUOUS
10
9.274456692913386
20
-4.365491653543307
11
9.2780722834645672
21
-4.4071670472440942
0
LINE
8
BLACK
6
CONTINUOUS
10
9.2780722834645672
20
-4.4071670472440942
11
9.2794462204724404
21
-4.4370701181102365
0
LINE
8
BLACK
6
CONTINUOUS
10
9.2794462204724404
20
-4.4370701181102365
11
9.2795370472440943
21
-4.4621289763779526
0
LINE
8
BLACK
6
CONTINUOUS
10
9.2795370472440943
20
-4.4621289763779526
11
9.2779714960629924
21
-4.485955118110236
0
LINE
8
BLACK
6
CONTINUOUS
10
9.2779714960629924
20
-4.485955118110236
11
9.2743762598425192
21
-4.5121600393700785
0
LINE
8
BLACK
6
CONTINUOUS
10
9.2743762598425192
20
-4.5121600393700785
11
9.2683779921259841
21
-4.5443552755905507
0
LINE
8
BLACK
6
CONTINUOUS
10
9.2683779921259841
20
-4.5443552755905507
11
9.2596033464566929
21
-4.5861523228346455
0
LINE
8
BLACK
6
CONTINUOUS
10
9.2596033464566929
20
-4.5861523228346455
11
9.2595406299212595
21
-4.586443779527559
0
LINE
8
BLACK
6
CONTINUOUS
10
9.2595406299212595
20
-4.586443779527559
11
9.2368447637795281
21
-4.691885984251968
0
LINE
8
BLACK
6
CONTINUOUS
10
9.2368447637795281
20
-4.691885984251968
11
9.2386574409448823
21
-4.8817942125984253
0
LINE
8
BLACK
6
CONTINUOUS
10
9.2386574409448823
20
-4.8817942125984253
11
9.2390722440944888
21
-4.9455267322834642
0
LINE
8
BLACK
6
CONTINUOUS
10
9.2390722440944888
20
-4.9455267322834642
11
9.2388640944881892
21
-4.99742031496063
0
LINE
8
BLACK
6
CONTINUOUS
10
9.2388640944881892
20
-4.99742031496063
11
9.2378654330708656
21
-5.0392337401574805
0
LINE
8
BLACK
6
CONTINUOUS
10
9.2378654330708656
20
-5.0392337401574805
11
9.2359087007874017
21
-5.0727259055118106
0
LINE
8
BLACK
6
CONTINUOUS
10
9.2359087007874017
20
-5.0727259055118106
11
9.2328263779527564
21
-5.0996555905511807
0
LINE
8
BLACK
6
CONTINUOUS
10
9.2328263779527564
20
-5.0996555905511807
11
9.2284508661417313
21
-5.1217816929133857
0
LINE
8
BLACK
6
CONTINUOUS
10
9.2284508661417313
20
-5.1217816929133857
11
9.2226146456692906
21
-5.1408630314960631
0
LINE
8
BLACK
6
CONTINUOUS
10
9.2226146456692906
20
-5.1408630314960631
11
9.2151501181102358
21
-5.1586584645669289
0
LINE
8
BLACK
6
CONTINUOUS
10
9.2151501181102358
20
-5.1586584645669289
11
9.2115849606299207
21
-5.165981653543307
0
LINE
8
BLACK
6
CONTINUOUS
10
9.2115849606299207
20
-5.165981653543307
11
9.1918991732283466
21
-5.1936734645669294
0
LINE
8
BLACK
6
CONTINUOUS
10
9.1918991732283466
20
-5.1936734645669294
11
9.1657393700787395
21
-5.2145236220472437
0
LINE
8
BLACK
6
CONTINUOUS
10
9.1657393700787395
20
-5.2145236220472437
11
9.1361749212598422
21
-5.2273009448818897
0
LINE
8
BLACK
6
CONTINUOUS
10
9.1361749212598422
20
-5.2273009448818897
11
9.1062751574803151
21
-5.2307741338582678
0
LINE
8
BLACK
6
CONTINUOUS
10
9.1062751574803151
20
-5.2307741338582678
11
9.079109527559055
21
-5.2237119291338585
0
LINE
8
BLACK
6
CONTINUOUS
10
9.079109527559055
20
-5.2237119291338585
11
9.0744059842519675
21
-5.2210109448818898
0
LINE
8
BLACK
6
CONTINUOUS
10
9.0744059842519675
20
-5.2210109448818898
11
9.0609901574803153
21
-5.2082398818897637
0
LINE
8
BLACK
6
CONTINUOUS
10
9.0609901574803153
20
-5.2082398818897637
11
9.0462916141732279
21
-5.1879968897637792
0
LINE
8
BLACK
6
CONTINUOUS
10
9.0462916141732279
20
-5.1879968897637792
11
9.0369909842519682
21
-5.1714777952755906
0
LINE
8
BLACK
6
CONTINUOUS
10
9.0369909842519682
20
-5.1714777952755906
11
9.0311031496062988
21
-5.1591672834645665
0
LINE
8
BLACK
6
CONTINUOUS
10
9.0311031496062988
20
-5.1591672834645665
11
9.0265997637795277
21
-5.1478969685039369
0
LINE
8
BLACK
6
CONTINUOUS
10
9.0265997637795277
20
-5.1478969685039369
11
9.0232668897637787
21
-5.1356339370078743
0
LINE
8
BLACK
6
CONTINUOUS
10
9.0232668897637787
20
-5.1356339370078743
11
9.0208905905511809
21
-5.1203453543307083
0
LINE
8
BLACK
6
CONTINUOUS
10
9.0208905905511809
20
-5.1203453543307083
11
9.019256968503937
21
-5.0999983070866142
0
LINE
8
BLACK
6
CONTINUOUS
10
9.019256968503937
20
-5.0999983070866142
11
9.0181521259842512
21
-5.0725598818897639
0
LINE
8
BLACK
6
CONTINUOUS
10
9.0181521259842512
20
-5.0725598818897639
11
9.0173620866141722
21
-5.0359972440944878
0
LINE
8
BLACK
6
CONTINUOUS
10
9.0173620866141722
20
-5.0359972440944878
11
9.016672952755906
21
-4.9882774015748028
0
LINE
8
BLACK
6
CONTINUOUS
10
9.016672952755906
20
-4.9882774015748028
11
9.0165255118110235
21
-4.9769949606299209
0
LINE
8
BLACK
6
CONTINUOUS
10
9.0165255118110235
20
-4.9769949606299209
11
9.0160107086614172
21
-4.9246665354330705
0
LINE
8
BLACK
6
CONTINUOUS
10
9.0160107086614172
20
-4.9246665354330705
11
9.0161064173228347
21
-4.8810749212598425
0
LINE
8
BLACK
6
CONTINUOUS
10
9.0161064173228347
20
-4.8810749212598425
11
9.0170153937007864
21
-4.8427261023622048
0
LINE
8
BLACK
6
CONTINUOUS
10
9.0170153937007864
20
-4.8427261023622048
11
9.0189405118110226
21
-4.8061259842519686
0
LINE
8
BLACK
6
CONTINUOUS
10
9.0189405118110226
20
-4.8061259842519686
11
9.0220844881889768
21
-4.7677806299212602
0
LINE
8
BLACK
6
CONTINUOUS
10
9.0220844881889768
20
-4.7677806299212602
11
9.0266500787401576
21
-4.7241959842519687
0
LINE
8
BLACK
6
CONTINUOUS
10
9.0266500787401576
20
-4.7241959842519687
11
9.0328401574803152
21
-4.6718780708661418
0
LINE
8
BLACK
6
CONTINUOUS
10
9.0328401574803152
20
-4.6718780708661418
11
9.0354766141732288
21
-4.6504643307086617
0
LINE
8
BLACK
6
CONTINUOUS
10
9.0354766141732288
20
-4.6504643307086617
11
9.0443358661417328
21
-4.5800042519685036
0
LINE
8
BLACK
6
CONTINUOUS
10
9.0443358661417328
20
-4.5800042519685036
11
9.0520173228346454
21
-4.5215946062992121
0
LINE
8
BLACK
6
CONTINUOUS
10
9.0520173228346454
20
-4.5215946062992121
11
9.0587857874015754
21
-4.4737570078740161
0
LINE
8
BLACK
6
CONTINUOUS
10
9.0587857874015754
20
-4.4737570078740161
11
9.0649060236220471
21
-4.4350131102362207
0
LINE
8
BLACK
6
CONTINUOUS
10
9.0649060236220471
20
-4.4350131102362207
11
9.0706427559055118
21
-4.4038846062992123
0
LINE
8
BLACK
6
CONTINUOUS
10
9.0706427559055118
20
-4.4038846062992123
11
9.0762607874015746
21
-4.378893070866142
0
LINE
8
BLACK
6
CONTINUOUS
10
9.0762607874015746
20
-4.378893070866142
11
9.0820248425196848
21
-4.3585602362204723
0
LINE
8
BLACK
6
CONTINUOUS
10
9.0820248425196848
20
-4.3585602362204723
11
9.0881996850393705
21
-4.341407716535433
0
LINE
8
BLACK
6
CONTINUOUS
10
9.0881996850393705
20
-4.341407716535433
11
9.0926961811023617
21
-4.3309636220472436
0
LINE
8
BLACK
6
CONTINUOUS
10
9.0926961811023617
20
-4.3309636220472436
11
9.1138208267716525
21
-4.2974372047244094
0
LINE
8
BLACK
6
CONTINUOUS
10
9.1138208267716525
20
-4.2974372047244094
11
9.1404852362204725
21
-4.2759940551181099
0
LINE
8
BLACK
6
CONTINUOUS
10
9.1404852362204725
20
-4.2759940551181099
11
9.1717960629921258
21
-4.2670135039370081
0
LINE
8
BLACK
6
CONTINUOUS
10
9.1717960629921258
20
-4.2670135039370081
11
9.2068599606299202
21
-4.2708747637795277
0
LINE
8
BLACK
6
CONTINUOUS
10
12.0014333464566931
20
-3.3129883858267717
11
12.0390846062992125
21
-3.3287871653543308
0
LINE
8
BLACK
6
CONTINUOUS
10
12.0390846062992125
20
-3.3287871653543308
11
12.0679991732283458
21
-3.3540739763779528
0
LINE
8
BLACK
6
CONTINUOUS
10
12.0679991732283458
20
-3.3540739763779528
11
12.087171377952755
21
-3.3879942519685038
0
LINE
8
BLACK
6
CONTINUOUS
10
12.087171377952755
20
-3.3879942519685038
11
12.0953231889763781
21
-3.4258765748031497
0
LINE
8
BLACK
6
CONTINUOUS
10
12.0953231889763781
20
-3.4258765748031497
11
12.0948287795275586
21
-3.4588400787401574
0
LINE
8
BLACK
6
CONTINUOUS
10
12.0948287795275586
20
-3.4588400787401574
11
12.0866194488188974
21
-3.4849909448818899
0
LINE
8
BLACK
6
CONTINUOUS
10
12.0866194488188974
20
-3.4849909448818899
11
12.0789205511811026
21
-3.4955460629921258
0
LINE
8
BLACK
6
CONTINUOUS
10
12.0789205511811026
20
-3.4955460629921258
11
12.0627822047244084
21
-3.5141879133858267
0
LINE
8
BLACK
6
CONTINUOUS
10
12.0627822047244084
20
-3.5141879133858267
11
12.0395193307086608
21
-3.5395183070866141
0
LINE
8
BLACK
6
CONTINUOUS
10
12.0395193307086608
20
-3.5395183070866141
11
12.0104467716535428
21
-3.5701390551181102
0
LINE
8
BLACK
6
CONTINUOUS
10
12.0104467716535428
20
-3.5701390551181102
11
11.9768793307086607
21
-3.6046520472440946
0
LINE
8
BLACK
6
CONTINUOUS
10
11.9768793307086607
20
-3.6046520472440946
11
11.9401319291338588
21
-3.641659094488189
0
LINE
8
BLACK
6
CONTINUOUS
10
11.9401319291338588
20
-3.641659094488189
11
11.927238110236221
21
-3.654471023622047
0
LINE
8
BLACK
6
CONTINUOUS
10
11.927238110236221
20
-3.654471023622047
11
11.8583829921259838
21
-3.7237469291338581
0
LINE
8
BLACK
6
CONTINUOUS
10
11.8583829921259838
20
-3.7237469291338581
11
11.7991747637795275
21
-3.7858961811023621
0
LINE
8
BLACK
6
CONTINUOUS
10
11.7991747637795275
20
-3.7858961811023621
11
11.7486157874015742
21
-3.8422655511811024
0
LINE
8
BLACK
6
CONTINUOUS
10
11.7486157874015742
20
-3.8422655511811024
11
11.7057084251968497
21
-3.8942019685039369
0
LINE
8
BLACK
6
CONTINUOUS
10
11.7057084251968497
20
-3.8942019685039369
11
11.669455039370078
21
-3.9430522834645667
0
LINE
8
BLACK
6
CONTINUOUS
10
11.669455039370078
20
-3.9430522834645667
11
11.6388579921259847
21
-3.9901633858267718
0
LINE
8
BLACK
6
CONTINUOUS
10
11.6388579921259847
20
-3.9901633858267718
11
11.6129196456692902
21
-4.0368821259842518
0
LINE
8
BLACK
6
CONTINUOUS
10
11.6129196456692902
20
-4.0368821259842518
11
11.5906423228346451
21
-4.0845553543307087
0
LINE
8
BLACK
6
CONTINUOUS
10
11.5906423228346451
20
-4.0845553543307087
11
11.5710283858267715
21
-4.1345299606299211
0
LINE
8
BLACK
6
CONTINUOUS
10
11.5710283858267715
20
-4.1345299606299211
11
11.570438346456692
21
-4.1361689370078736
0
LINE
8
BLACK
6
CONTINUOUS
10
11.570438346456692
20
-4.1361689370078736
11
11.5586583070866133
21
-4.1717568503937006
0
LINE
8
BLACK
6
CONTINUOUS
10
11.5586583070866133
20
-4.1717568503937006
11
11.5529595275590555
21
-4.1971771259842523
0
LINE
8
BLACK
6
CONTINUOUS
10
11.5529595275590555
20
-4.1971771259842523
11
11.5539360236220467
21
-4.2125733070866138
0
LINE
8
BLACK
6
CONTINUOUS
10
11.5539360236220467
20
-4.2125733070866138
11
11.5621819685039373
21
-4.2180890157480313
0
LINE
8
BLACK
6
CONTINUOUS
10
11.5621819685039373
20
-4.2180890157480313
11
11.5782914173228342
21
-4.2138677165354332
0
LINE
8
BLACK
6
CONTINUOUS
10
11.5782914173228342
20
-4.2138677165354332
11
11.6028584645669284
21
-4.2000529527559056
0
LINE
8
BLACK
6
CONTINUOUS
10
11.6028584645669284
20
-4.2000529527559056
11
11.6364772047244092
21
-4.1767883858267716
0
LINE
8
BLACK
6
CONTINUOUS
10
11.6364772047244092
20
-4.1767883858267716
11
11.6614847244094477
21
-4.1581683464566925
0
LINE
8
BLACK
6
CONTINUOUS
10
11.6614847244094477
20
-4.1581683464566925
11
11.7252718110236209
21
-4.1141506299212596
0
LINE
8
BLACK
6
CONTINUOUS
10
11.7252718110236209
20
-4.1141506299212596
11
11.7899554330708654
21
-4.0787543700787401
0
LINE
8
BLACK
6
CONTINUOUS
10
11.7899554330708654
20
-4.0787543700787401
11
11.8584399606299211
21
-4.0508311811023621
0
LINE
8
BLACK
6
CONTINUOUS
10
11.8584399606299211
20
-4.0508311811023621
11
11.9336297637795266
21
-4.0292326377952756
0
LINE
8
BLACK
6
CONTINUOUS
10
11.9336297637795266
20
-4.0292326377952756
11
12.0184291732283466
21
-4.0128104330708663
0
LINE
8
BLACK
6
CONTINUOUS
10
12.0184291732283466
20
-4.0128104330708663
11
12.0356979921259839
21
-4.010205157480315
0
LINE
8
BLACK
6
CONTINUOUS
10
12.0356979921259839
20
-4.010205157480315
11
12.1271824803149606
21
-4.0032075196850396
0
LINE
8
BLACK
6
CONTINUOUS
10
12.1271824803149606
20
-4.0032075196850396
11
12.2153319291338587
21
-4.0090991732283463
0
LINE
8
BLACK
6
CONTINUOUS
10
12.2153319291338587
20
-4.0090991732283463
11
12.299585236220473
21
-4.0277752755905514
0
LINE
8
BLACK
6
CONTINUOUS
10
12.299585236220473
20
-4.0277752755905514
11
12.3793812204724407
21
-4.0591310236220473
0
LINE
8
BLACK
6
CONTINUOUS
10
12.3793812204724407
20
-4.0591310236220473
11
12.4222844488188979
21
-4.0824140157480313
0
LINE
8
BLACK
6
CONTINUOUS
10
12.4222844488188979
20
-4.0824140157480313
11
12.4711366141732274
21
-4.1137068897637796
0
LINE
8
BLACK
6
CONTINUOUS
10
12.4711366141732274
20
-4.1137068897637796
11
12.5109470866141734
21
-4.1440828346456691
0
LINE
8
BLACK
6
CONTINUOUS
10
12.5109470866141734
20
-4.1440828346456691
11
12.5456041338582676
21
-4.1768587401574804
0
LINE
8
BLACK
6
CONTINUOUS
10
12.5456041338582676
20
-4.1768587401574804
11
12.5789959842519679
21
-4.2153516929133854
0
LINE
8
BLACK
6
CONTINUOUS
10
12.5789959842519679
20
-4.2153516929133854
11
12.5808807874015738
21
-4.2177101968503932
0
LINE
8
BLACK
6
CONTINUOUS
10
12.5808807874015738
20
-4.2177101968503932
11
12.6266303543307092
21
-4.2854519685039367
0
LINE
8
BLACK
6
CONTINUOUS
10
12.6266303543307092
20
-4.2854519685039367
11
12.6598718110236224
21
-4.3573286614173226
0
LINE
8
BLACK
6
CONTINUOUS
10
12.6598718110236224
20
-4.3573286614173226
11
12.6807232677165356
21
-4.4324068110236219
0
LINE
8
BLACK
6
CONTINUOUS
10
12.6807232677165356
20
-4.4324068110236219
11
12.6893027165354333
21
-4.5097531102362201
0
LINE
8
BLACK
6
CONTINUOUS
10
12.6893027165354333
20
-4.5097531102362201
11
12.6857283464566919
21
-4.5884341732283467
0
LINE
8
BLACK
6
CONTINUOUS
10
12.6857283464566919
20
-4.5884341732283467
11
12.6701181496062993
21
-4.6675165354330703
0
LINE
8
BLACK
6
CONTINUOUS
10
12.6701181496062993
20
-4.6675165354330703
11
12.6425902362204727
21
-4.746066889763779
0
LINE
8
BLACK
6
CONTINUOUS
10
12.6425902362204727
20
-4.746066889763779
11
12.6032627165354327
21
-4.823151771653543
0
LINE
8
BLACK
6
CONTINUOUS
10
12.6032627165354327
20
-4.823151771653543
11
12.5522535826771655
21
-4.8978378740157478
0
LINE
8
BLACK
6
CONTINUOUS
10
12.5522535826771655
20
-4.8978378740157478
11
12.4896809842519687
21
-4.9691917716535432
0
LINE
8
BLACK
6
CONTINUOUS
10
12.4896809842519687
20
-4.9691917716535432
11
12.4852497244094494
21
-4.9736588188976381
0
LINE
8
BLACK
6
CONTINUOUS
10
12.4852497244094494
20
-4.9736588188976381
11
12.4081502755905504
21
-5.041693858267716
0
LINE
8
BLACK
6
CONTINUOUS
10
12.4081502755905504
20
-5.041693858267716
11
12.3228995669291344
21
-5.1002831102362203
0
LINE
8
BLACK
6
CONTINUOUS
10
12.3228995669291344
20
-5.1002831102362203
11
12.231441299212598
21
-5.1484266141732284
0
LINE
8
BLACK
6
CONTINUOUS
10
12.231441299212598
20
-5.1484266141732284
11
12.1357190944881879
21
-5.1851242519685039
0
LINE
8
BLACK
6
CONTINUOUS
10
12.1357190944881879
20
-5.1851242519685039
11
12.0376766141732272
21
-5.2093760236220472
0
LINE
8
BLACK
6
CONTINUOUS
10
12.0376766141732272
20
-5.2093760236220472
11
12.0219695275590546
21
-5.2120242519685034
0
LINE
8
BLACK
6
CONTINUOUS
10
12.0219695275590546
20
-5.2120242519685034
11
11.9953695669291331
21
-5.2148382283464567
0
LINE
8
BLACK
6
CONTINUOUS
10
11.9953695669291331
20
-5.2148382283464567
11
11.9595688188976368
21
-5.2167741338582676
0
LINE
8
BLACK
6
CONTINUOUS
10
11.9595688188976368
20
-5.2167741338582676
11
11.9189463779527554
21
-5.217785669291338
0
LINE
8
BLACK
6
CONTINUOUS
10
11.9189463779527554
20
-5.217785669291338
11
11.8778815354330707
21
-5.2178265748031496
0
LINE
8
BLACK
6
CONTINUOUS
10
11.8778815354330707
20
-5.2178265748031496
11
11.8407533858267708
21
-5.2168505905511813
0
LINE
8
BLACK
6
CONTINUOUS
10
11.8407533858267708
20
-5.2168505905511813
11
11.811941102362205
21
-5.2148114173228342
0
LINE
8
BLACK
6
CONTINUOUS
10
11.811941102362205
20
-5.2148114173228342
11
11.8076838188976367
21
-5.2142885039370075
0
LINE
8
BLACK
6
CONTINUOUS
10
11.8076838188976367
20
-5.2142885039370075
11
11.7427219685039361
21
-5.2016598031496057
0
LINE
8
BLACK
6
CONTINUOUS
10
11.7427219685039361
20
-5.2016598031496057
11
11.6766574803149599
21
-5.1819291338582678
0
LINE
8
BLACK
6
CONTINUOUS
10
11.6766574803149599
20
-5.1819291338582678
11
11.6138421653543311
21
-5.1566949212598425
0
LINE
8
BLACK
6
CONTINUOUS
10
11.6138421653543311
20
-5.1566949212598425
11
11.5586277165354332
21
-5.1275554724409451
0
LINE
8
BLACK
6
CONTINUOUS
10
11.5586277165354332
20
-5.1275554724409451
11
11.5417167322834651
21
-5.116601299212598
0
LINE
8
BLACK
6
CONTINUOUS
10
11.5417167322834651
20
-5.116601299212598
11
11.4879992125984245
21
-5.0739731496062994
0
LINE
8
BLACK
6
CONTINUOUS
10
11.4879992125984245
20
-5.0739731496062994
11
11.4352027952755897
21
-5.0216360236220474
0
LINE
8
BLACK
6
CONTINUOUS
10
11.4352027952755897
20
-5.0216360236220474
11
11.3865368503936999
21
-4.9632924409448815
0
LINE
8
BLACK
6
CONTINUOUS
10
11.3865368503936999
20
-4.9632924409448815
11
11.3452109055118111
21
-4.9026450393700785
0
LINE
8
BLACK
6
CONTINUOUS
10
11.3452109055118111
20
-4.9026450393700785
11
11.3255259055118103
21
-4.8671922440944879
0
LINE
8
BLACK
6
CONTINUOUS
10
11.3255259055118103
20
-4.8671922440944879
11
11.2896737401574807
21
-4.787356732283464
0
LINE
8
BLACK
6
CONTINUOUS
10
11.2896737401574807
20
-4.787356732283464
11
11.2631995275590544
21
-4.7075969685039372
0
LINE
8
BLACK
6
CONTINUOUS
10
11.2631995275590544
20
-4.7075969685039372
11
11.2455379921259837
21
-4.6251209842519687
0
LINE
8
BLACK
6
CONTINUOUS
10
11.2455379921259837
20
-4.6251209842519687
11
11.2428553543307093
21
-4.6000492519685041
0
LINE
8
BLACK
6
CONTINUOUS
10
11.2428553543307093
20
-4.6000492519685041
11
11.2361237401574794
21
-4.5371367322834644
0
LINE
8
BLACK
6
CONTINUOUS
10
11.2361237401574794
20
-4.5371367322834644
11
11.2343915354330708
21
-4.4408521653543307
0
LINE
8
BLACK
6
CONTINUOUS
10
11.2343915354330708
20
-4.4408521653543307
11
11.2349358267716539
21
-4.4197771259842522
0
LINE
8
BLACK
6
CONTINUOUS
10
11.2349358267716539
20
-4.4197771259842522
11
11.2416385039370077
21
-4.3141222047244092
0
LINE
8
BLACK
6
CONTINUOUS
10
11.2416385039370077
20
-4.3141222047244092
11
11.255055393700788
21
-4.2173786614173228
0
LINE
8
BLACK
6
CONTINUOUS
10
11.255055393700788
20
-4.2173786614173228
11
11.2759974409448809
21
-4.1261998818897636
0
LINE
8
BLACK
6
CONTINUOUS
10
11.2759974409448809
20
-4.1261998818897636
11
11.3052755118110237
21
-4.0372392913385822
0
LINE
8
BLACK
6
CONTINUOUS
10
11.3052755118110237
20
-4.0372392913385822
11
11.3437005511811027
21
-3.9471502362204722
0
LINE
8
BLACK
6
CONTINUOUS
10
11.3437005511811027
20
-3.9471502362204722
11
11.3552651181102355
21
-3.9231785039370077
0
LINE
8
BLACK
6
CONTINUOUS
10
11.3552651181102355
20
-3.9231785039370077
11
11.4088723622047237
21
-3.8229681102362205
0
LINE
8
BLACK
6
CONTINUOUS
10
11.4088723622047237
20
-3.8229681102362205
11
11.468076102362204
21
-3.7292875984251967
0
LINE
8
BLACK
6
CONTINUOUS
10
11.468076102362204
20
-3.7292875984251967
11
11.5348781496062998
21
-3.6393869291338583
0
LINE
8
BLACK
6
CONTINUOUS
10
11.5348781496062998
20
-3.6393869291338583
11
11.6112804330708652
21
-3.550516181102362
0
LINE
8
BLACK
6
CONTINUOUS
10
11.6112804330708652
20
-3.550516181102362
11
11.67496122047244
21
-3.4840133070866139
0
LINE
8
BLACK
6
CONTINUOUS
10
11.67496122047244
20
-3.4840133070866139
11
11.7261212992125987
21
-3.4339319291338581
0
LINE
8
BLACK
6
CONTINUOUS
10
11.7261212992125987
20
-3.4339319291338581
11
11.7703538582677165
21
-3.3936763779527559
0
LINE
8
BLACK
6
CONTINUOUS
10
11.7703538582677165
20
-3.3936763779527559
11
11.8090976771653544
21
-3.3623432283464565
0
LINE
8
BLACK
6
CONTINUOUS
10
11.8090976771653544
20
-3.3623432283464565
11
11.8437915748031486
21
-3.3390292519685039
0
LINE
8
BLACK
6
CONTINUOUS
10
11.8437915748031486
20
-3.3390292519685039
11
11.8758742519685043
21
-3.3228310236220473
0
LINE
8
BLACK
6
CONTINUOUS
10
11.8758742519685043
20
-3.3228310236220473
11
11.9067844881889755
21
-3.3128453149606298
0
LINE
8
BLACK
6
CONTINUOUS
10
11.9067844881889755
20
-3.3128453149606298
11
11.9379611023622036
21
-3.3081687795275592
0
LINE
8
BLACK
6
CONTINUOUS
10
11.9379611023622036
20
-3.3081687795275592
11
11.956051181102362
21
-3.3075322440944883
0
LINE
8
BLACK
6
CONTINUOUS
10
11.956051181102362
20
-3.3075322440944883
11
12.0014333464566931
21
-3.3129883858267717
0
LINE
8
BLACK
6
CONTINUOUS
10
11.5408529921259841
20
-4.6415845669291338
11
11.5521834645669284
21
-4.6934048425196853
0
LINE
8
BLACK
6
CONTINUOUS
10
11.5521834645669284
20
-4.6934048425196853
11
11.5758014960629918
21
-4.7431244094488187
0
LINE
8
BLACK
6
CONTINUOUS
10
11.5758014960629918
20
-4.7431244094488187
11
11.6104153937007872
21
-4.7894861023622042
0
LINE
8
BLACK
6
CONTINUOUS
10
11.6104153937007872
20
-4.7894861023622042
11
11.6547333464566929
21
-4.8312327952755902
0
LINE
8
BLACK
6
CONTINUOUS
10
11.6547333464566929
20
-4.8312327952755902
11
11.7074637401574808
21
-4.8671074409448813
0
LINE
8
BLACK
6
CONTINUOUS
10
11.7074637401574808
20
-4.8671074409448813
11
11.7673147637795275
21
-4.8958528346456696
0
LINE
8
BLACK
6
CONTINUOUS
10
11.7673147637795275
20
-4.8958528346456696
11
11.819660629921259
21
-4.9129253937007871
0
LINE
8
BLACK
6
CONTINUOUS
10
11.819660629921259
20
-4.9129253937007871
11
11.8883731102362198
21
-4.9245034251968507
0
LINE
8
BLACK
6
CONTINUOUS
10
11.8883731102362198
20
-4.9245034251968507
11
11.959831496062991
21
-4.923663346456693
0
LINE
8
BLACK
6
CONTINUOUS
10
11.959831496062991
20
-4.923663346456693
11
12.0127385039370083
21
-4.9156296850393701
0
LINE
8
BLACK
6
CONTINUOUS
10
12.0127385039370083
20
-4.9156296850393701
11
12.0892467322834651
21
-4.8940633858267715
0
LINE
8
BLACK
6
CONTINUOUS
10
12.0892467322834651
20
-4.8940633858267715
11
12.1586767716535427
21
-4.8626038582677165
0
LINE
8
BLACK
6
CONTINUOUS
10
12.1586767716535427
20
-4.8626038582677165
11
12.2200412204724405
21
-4.8221137795275588
0
LINE
8
BLACK
6
CONTINUOUS
10
12.2200412204724405
20
-4.8221137795275588
11
12.2723527165354334
21
-4.7734558661417319
0
LINE
8
BLACK
6
CONTINUOUS
10
12.2723527165354334
20
-4.7734558661417319
11
12.3146238188976369
21
-4.717492834645669
0
LINE
8
BLACK
6
CONTINUOUS
10
12.3146238188976369
20
-4.717492834645669
11
12.3458671653543313
21
-4.655087362204724
0
LINE
8
BLACK
6
CONTINUOUS
10
12.3458671653543313
20
-4.655087362204724
11
12.3594931496062994
21
-4.6126599212598425
0
LINE
8
BLACK
6
CONTINUOUS
10
12.3594931496062994
20
-4.6126599212598425
11
12.3667886220472436
21
-4.5700165748031498
0
LINE
8
BLACK
6
CONTINUOUS
10
12.3667886220472436
20
-4.5700165748031498
11
12.3689927559055111
21
-4.5225245275590549
0
LINE
8
BLACK
6
CONTINUOUS
10
12.3689927559055111
20
-4.5225245275590549
11
12.3663506692913376
21
-4.4746425984251967
0
LINE
8
BLACK
6
CONTINUOUS
10
12.3663506692913376
20
-4.4746425984251967
11
12.3591075590551185
21
-4.4308295275590552
0
LINE
8
BLACK
6
CONTINUOUS
10
12.3591075590551185
20
-4.4308295275590552
11
12.3475609842519685
21
-4.3956572047244089
0
LINE
8
BLACK
6
CONTINUOUS
10
12.3475609842519685
20
-4.3956572047244089
11
12.323407755905512
21
-4.3526235433070868
0
LINE
8
BLACK
6
CONTINUOUS
10
12.323407755905512
20
-4.3526235433070868
11
12.2946490157480319
21
-4.3200777165354332
0
LINE
8
BLACK
6
CONTINUOUS
10
12.2946490157480319
20
-4.3200777165354332
11
12.2592150393700781
21
-4.2966054724409446
0
LINE
8
BLACK
6
CONTINUOUS
10
12.2592150393700781
20
-4.2966054724409446
11
12.2150361023622036
21
-4.2807924803149602
0
LINE
8
BLACK
6
CONTINUOUS
10
12.2150361023622036
20
-4.2807924803149602
11
12.1666018110236216
21
-4.272004527559055
0
LINE
8
BLACK
6
CONTINUOUS
10
12.1666018110236216
20
-4.272004527559055
11
12.0984478740157471
21
-4.2696820078740156
0
LINE
8
BLACK
6
CONTINUOUS
10
12.0984478740157471
20
-4.2696820078740156
11
12.0314512598425196
21
-4.2801789370078742
0
LINE
8
BLACK
6
CONTINUOUS
10
12.0314512598425196
20
-4.2801789370078742
11
11.964053582677165
21
-4.303768267716535
0
LINE
8
BLACK
6
CONTINUOUS
10
11.964053582677165
20
-4.303768267716535
11
11.9510729133858273
21
-4.3097534251968499
0
LINE
8
BLACK
6
CONTINUOUS
10
11.9510729133858273
20
-4.3097534251968499
11
11.9181293307086609
21
-4.3269872440944877
0
LINE
8
BLACK
6
CONTINUOUS
10
11.9181293307086609
20
-4.3269872440944877
11
11.8862780314960634
21
-4.3470770078740157
0
LINE
8
BLACK
6
CONTINUOUS
10
11.8862780314960634
20
-4.3470770078740157
11
11.853541417322834
21
-4.3716035826771655
0
LINE
8
BLACK
6
CONTINUOUS
10
11.853541417322834
20
-4.3716035826771655
11
11.8179418503936997
21
-4.4021479921259843
0
LINE
8
BLACK
6
CONTINUOUS
10
11.8179418503936997
20
-4.4021479921259843
11
11.777501732283465
21
-4.4402912204724405
0
LINE
8
BLACK
6
CONTINUOUS
10
11.777501732283465
20
-4.4402912204724405
11
11.7362552362204724
21
-4.4814845275590551
0
LINE
8
BLACK
6
CONTINUOUS
10
11.7362552362204724
20
-4.4814845275590551
11
11.6948774409448824
21
-4.522278779527559
0
LINE
8
BLACK
6
CONTINUOUS
10
11.6948774409448824
20
-4.522278779527559
11
11.6602118897637794
21
-4.5532801968503938
0
LINE
8
BLACK
6
CONTINUOUS
10
11.6602118897637794
20
-4.5532801968503938
11
11.6307268503937014
21
-4.5755194488188975
0
LINE
8
BLACK
6
CONTINUOUS
10
11.6307268503937014
20
-4.5755194488188975
11
11.6048906299212593
21
-4.590027047244094
0
LINE
8
BLACK
6
CONTINUOUS
10
11.6048906299212593
20
-4.590027047244094
11
11.5811715748031485
21
-4.5978335826771657
0
LINE
8
BLACK
6
CONTINUOUS
10
11.5811715748031485
20
-4.5978335826771657
11
11.5601403543307075
21
-4.5999827952755901
0
LINE
8
BLACK
6
CONTINUOUS
10
11.5601403543307075
20
-4.5999827952755901
11
11.5370866929133857
21
-4.6000492519685041
0
LINE
8
BLACK
6
CONTINUOUS
10
11.5370866929133857
20
-4.6000492519685041
11
11.5408529921259841
21
-4.6415845669291338
0
LINE
8
BLACK
6
CONTINUOUS
10
10.2785537007874019
20
-3.3097722834645666
11
10.3123572047244085
21
-3.3200705905511811
0
LINE
8
BLACK
6
CONTINUOUS
10
10.3123572047244085
20
-3.3200705905511811
11
10.3139018110236211
21
-3.32083937007874
0
LINE
8
BLACK
6
CONTINUOUS
10
10.3139018110236211
20
-3.32083937007874
11
10.3464782677165346
21
-3.3443598031496062
0
LINE
8
BLACK
6
CONTINUOUS
10
10.3464782677165346
20
-3.3443598031496062
11
10.3712215748031493
21
-3.3761708267716535
0
LINE
8
BLACK
6
CONTINUOUS
10
10.3712215748031493
20
-3.3761708267716535
11
10.3860015354330706
21
-3.4129123228346456
0
LINE
8
BLACK
6
CONTINUOUS
10
10.3860015354330706
20
-3.4129123228346456
11
10.3892785433070856
21
-3.4397381889763778
0
LINE
8
BLACK
6
CONTINUOUS
10
10.3892785433070856
20
-3.4397381889763778
11
10.386948976377953
21
-3.4548298818897636
0
LINE
8
BLACK
6
CONTINUOUS
10
10.386948976377953
20
-3.4548298818897636
11
10.379425551181102
21
-3.4727390944881891
0
LINE
8
BLACK
6
CONTINUOUS
10
10.379425551181102
20
-3.4727390944881891
11
10.3660268503937001
21
-3.4942652755905512
0
LINE
8
BLACK
6
CONTINUOUS
10
10.3660268503937001
20
-3.4942652755905512
11
10.3460714960629918
21
-3.5202079921259841
0
LINE
8
BLACK
6
CONTINUOUS
10
10.3460714960629918
20
-3.5202079921259841
11
10.3188779921259837
21
-3.5513666929133856
0
LINE
8
BLACK
6
CONTINUOUS
10
10.3188779921259837
20
-3.5513666929133856
11
10.2837649606299202
21
-3.5885408661417322
0
LINE
8
BLACK
6
CONTINUOUS
10
10.2837649606299202
20
-3.5885408661417322
11
10.2400509842519689
21
-3.6325300393700788
0
LINE
8
BLACK
6
CONTINUOUS
10
10.2400509842519689
20
-3.6325300393700788
11
10.1870546062992116
21
-3.6841337007874015
0
LINE
8
BLACK
6
CONTINUOUS
10
10.1870546062992116
20
-3.6841337007874015
11
10.1540764566929127
21
-3.7156955118110235
0
LINE
8
BLACK
6
CONTINUOUS
10
10.1540764566929127
20
-3.7156955118110235
11
10.0781935433070871
21
-3.7933308661417322
0
LINE
8
BLACK
6
CONTINUOUS
10
10.0781935433070871
20
-3.7933308661417322
11
10.0099111417322835
21
-3.8740580708661416
0
LINE
8
BLACK
6
CONTINUOUS
10
10.0099111417322835
20
-3.8740580708661416
11
9.9509190157480312
21
-3.9556857874015745
0
LINE
8
BLACK
6
CONTINUOUS
10
9.9509190157480312
20
-3.9556857874015745
11
9.9029068897637789
21
-4.0360225984251965
0
LINE
8
BLACK
6
CONTINUOUS
10
9.9029068897637789
20
-4.0360225984251965
11
9.8944247244094488
21
-4.052430196850394
0
LINE
8
BLACK
6
CONTINUOUS
10
9.8944247244094488
20
-4.052430196850394
11
9.8791784251968497
21
-4.0852044881889764
0
LINE
8
BLACK
6
CONTINUOUS
10
9.8791784251968497
20
-4.0852044881889764
11
9.8648060236220463
21
-4.1204105511811022
0
LINE
8
BLACK
6
CONTINUOUS
10
9.8648060236220463
20
-4.1204105511811022
11
9.8524827559055108
21
-4.1546934251968501
0
LINE
8
BLACK
6
CONTINUOUS
10
9.8524827559055108
20
-4.1546934251968501
11
9.8433838582677158
21
-4.1846981889763777
0
LINE
8
BLACK
6
CONTINUOUS
10
9.8433838582677158
20
-4.1846981889763777
11
9.8386845275590549
21
-4.2070698818897636
0
LINE
8
BLACK
6
CONTINUOUS
10
9.8386845275590549
20
-4.2070698818897636
11
9.838296062992125
21
-4.2126635826771652
0
LINE
8
BLACK
6
CONTINUOUS
10
9.838296062992125
20
-4.2126635826771652
11
9.8392831496062989
21
-4.2202326771653542
0
LINE
8
BLACK
6
CONTINUOUS
10
9.8392831496062989
20
-4.2202326771653542
11
9.8445933858267711
21
-4.2216380708661418
0
LINE
8
BLACK
6
CONTINUOUS
10
9.8445933858267711
20
-4.2216380708661418
11
9.8577502755905506
21
-4.2171595275590548
0
LINE
8
BLACK
6
CONTINUOUS
10
9.8577502755905506
20
-4.2171595275590548
11
9.8638062598425194
21
-4.214688897637795
0
LINE
8
BLACK
6
CONTINUOUS
10
9.8638062598425194
20
-4.214688897637795
11
9.8807642519685039
21
-4.2057426771653539
0
LINE
8
BLACK
6
CONTINUOUS
10
9.8807642519685039
20
-4.2057426771653539
11
9.9042100393700778
21
-4.1908553937007875
0
LINE
8
BLACK
6
CONTINUOUS
10
9.9042100393700778
20
-4.1908553937007875
11
9.9300761417322825
21
-4.1726706299212601
0
LINE
8
BLACK
6
CONTINUOUS
10
9.9300761417322825
20
-4.1726706299212601
11
9.9403368897637794
21
-4.1649520078740156
0
LINE
8
BLACK
6
CONTINUOUS
10
9.9403368897637794
20
-4.1649520078740156
11
10.0001615748031494
21
-4.12194279527559
0
LINE
8
BLACK
6
CONTINUOUS
10
10.0001615748031494
20
-4.12194279527559
11
10.0567771653543296
21
-4.0882277165354326
0
LINE
8
BLACK
6
CONTINUOUS
10
10.0567771653543296
20
-4.0882277165354326
11
10.1144161023622043
21
-4.0618561811023621
0
LINE
8
BLACK
6
CONTINUOUS
10
10.1144161023622043
20
-4.0618561811023621
11
10.1773109842519691
21
-4.0408775984251966
0
LINE
8
BLACK
6
CONTINUOUS
10
10.1773109842519691
20
-4.0408775984251966
11
10.2458427952755908
21
-4.0241540157480316
0
LINE
8
BLACK
6
CONTINUOUS
10
10.2458427952755908
20
-4.0241540157480316
11
10.3361602362204721
21
-4.0087924409448821
0
LINE
8
BLACK
6
CONTINUOUS
10
10.3361602362204721
20
-4.0087924409448821
11
10.4186936220472433
21
-4.0031464173228342
0
LINE
8
BLACK
6
CONTINUOUS
10
10.4186936220472433
20
-4.0031464173228342
11
10.4953894881889767
21
-4.0074224409448815
0
LINE
8
BLACK
6
CONTINUOUS
10
10.4953894881889767
20
-4.0074224409448815
11
10.5681943700787393
21
-4.0218269291338578
0
LINE
8
BLACK
6
CONTINUOUS
10
10.5681943700787393
20
-4.0218269291338578
11
10.6390547637795265
21
-4.0465664173228344
0
LINE
8
BLACK
6
CONTINUOUS
10
10.6390547637795265
20
-4.0465664173228344
11
10.6908276771653536
21
-4.0713527165354328
0
LINE
8
BLACK
6
CONTINUOUS
10
10.6908276771653536
20
-4.0713527165354328
11
10.7586877952755895
21
-4.1138825984251968
0
LINE
8
BLACK
6
CONTINUOUS
10
10.7586877952755895
20
-4.1138825984251968
11
10.8197893700787393
21
-4.1651217322834642
0
LINE
8
BLACK
6
CONTINUOUS
10
10.8197893700787393
20
-4.1651217322834642
11
10.8726978346456686
21
-4.2233149606299207
0
LINE
8
BLACK
6
CONTINUOUS
10
10.8726978346456686
20
-4.2233149606299207
11
10.9159785433070855
21
-4.2867072047244097
0
LINE
8
BLACK
6
CONTINUOUS
10
10.9159785433070855
20
-4.2867072047244097
11
10.948196811023621
21
-4.3535433858267716
0
LINE
8
BLACK
6
CONTINUOUS
10
10.948196811023621
20
-4.3535433858267716
11
10.9645581102362204
21
-4.4062260236220467
0
LINE
8
BLACK
6
CONTINUOUS
10
10.9645581102362204
20
-4.4062260236220467
11
10.9748606299212597
21
-4.4751913385826771
0
LINE
8
BLACK
6
CONTINUOUS
10
10.9748606299212597
20
-4.4751913385826771
11
10.9754096456692913
21
-4.5495521259842517
0
LINE
8
BLACK
6
CONTINUOUS
10
10.9754096456692913
20
-4.5495521259842517
11
10.9665302362204731
21
-4.6255644094488186
0
LINE
8
BLACK
6
CONTINUOUS
10
10.9665302362204731
20
-4.6255644094488186
11
10.9485474803149607
21
-4.6994842125984251
0
LINE
8
BLACK
6
CONTINUOUS
10
10.9485474803149607
20
-4.6994842125984251
11
10.9360012992125988
21
-4.7351066141732279
0
LINE
8
BLACK
6
CONTINUOUS
10
10.9360012992125988
20
-4.7351066141732279
11
10.8975120078740151
21
-4.8149022440944877
0
LINE
8
BLACK
6
CONTINUOUS
10
10.8975120078740151
20
-4.8149022440944877
11
10.847055196850393
21
-4.8907778740157477
0
LINE
8
BLACK
6
CONTINUOUS
10
10.847055196850393
20
-4.8907778740157477
11
10.7859795275590553
21
-4.9616042125984254
0
LINE
8
BLACK
6
CONTINUOUS
10
10.7859795275590553
20
-4.9616042125984254
11
10.7156335433070868
21
-5.0262519291338581
0
LINE
8
BLACK
6
CONTINUOUS
10
10.7156335433070868
20
-5.0262519291338581
11
10.6373659842519679
21
-5.0835917322834643
0
LINE
8
BLACK
6
CONTINUOUS
10
10.6373659842519679
20
-5.0835917322834643
11
10.5525254330708655
21
-5.1324942519685042
0
LINE
8
BLACK
6
CONTINUOUS
10
10.5525254330708655
20
-5.1324942519685042
11
10.4624605511811026
21
-5.1718302362204724
0
LINE
8
BLACK
6
CONTINUOUS
10
10.4624605511811026
20
-5.1718302362204724
11
10.3853036220472443
21
-5.1962475196850395
0
LINE
8
BLACK
6
CONTINUOUS
10
10.3853036220472443
20
-5.1962475196850395
11
10.3356722440944875
21
-5.2063295669291341
0
LINE
8
BLACK
6
CONTINUOUS
10
10.3356722440944875
20
-5.2063295669291341
11
10.2777175984251965
21
-5.2133198425196845
0
LINE
8
BLACK
6
CONTINUOUS
10
10.2777175984251965
20
-5.2133198425196845
11
10.2159152362204715
21
-5.2170439370078743
0
LINE
8
BLACK
6
CONTINUOUS
10
10.2159152362204715
20
-5.2170439370078743
11
10.1547404724409454
21
-5.2173275590551178
0
LINE
8
BLACK
6
CONTINUOUS
10
10.1547404724409454
20
-5.2173275590551178
11
10.0986688188976377
21
-5.2139962598425198
0
LINE
8
BLACK
6
CONTINUOUS
10
10.0986688188976377
20
-5.2139962598425198
11
10.0617598425196846
21
-5.2088529133858268
0
LINE
8
BLACK
6
CONTINUOUS
10
10.0617598425196846
20
-5.2088529133858268
11
10.0173235826771645
21
-5.1984174803149603
0
LINE
8
BLACK
6
CONTINUOUS
10
10.0173235826771645
20
-5.1984174803149603
11
9.9693929921259841
21
-5.1837443307086613
0
LINE
8
BLACK
6
CONTINUOUS
10
9.9693929921259841
20
-5.1837443307086613
11
9.922832283464567
21
-5.1665500393700787
0
LINE
8
BLACK
6
CONTINUOUS
10
9.922832283464567
20
-5.1665500393700787
11
9.8825054724409451
21
-5.1485511417322831
0
LINE
8
BLACK
6
CONTINUOUS
10
9.8825054724409451
20
-5.1485511417322831
11
9.8664332283464571
21
-5.1399222440944881
0
LINE
8
BLACK
6
CONTINUOUS
10
9.8664332283464571
20
-5.1399222440944881
11
9.8229237795275584
21
-5.1108372440944878
0
LINE
8
BLACK
6
CONTINUOUS
10
9.8229237795275584
20
-5.1108372440944878
11
9.7769939370078731
21
-5.073615354330709
0
LINE
8
BLACK
6
CONTINUOUS
10
9.7769939370078731
20
-5.073615354330709
11
9.7328709842519689
21
-5.0319905905511808
0
LINE
8
BLACK
6
CONTINUOUS
10
9.7328709842519689
20
-5.0319905905511808
11
9.6947822440944886
21
-4.9896969291338582
0
LINE
8
BLACK
6
CONTINUOUS
10
9.6947822440944886
20
-4.9896969291338582
11
9.6909394881889757
21
-4.9849078740157475
0
LINE
8
BLACK
6
CONTINUOUS
10
9.6909394881889757
20
-4.9849078740157475
11
9.6353068110236215
21
-4.9037225590551179
0
LINE
8
BLACK
6
CONTINUOUS
10
9.6353068110236215
20
-4.9037225590551179
11
9.590480708661417
21
-4.81481842519685
0
LINE
8
BLACK
6
CONTINUOUS
10
9.590480708661417
20
-4.81481842519685
11
9.5565938582677159
21
-4.7189132677165357
0
LINE
8
BLACK
6
CONTINUOUS
10
9.5565938582677159
20
-4.7189132677165357
11
9.5344440944881885
21
-4.6197042913385822
0
LINE
8
BLACK
6
CONTINUOUS
10
9.5344440944881885
20
-4.6197042913385822
11
9.5337788976377951
21
-4.6167248818897635
0
LINE
8
BLACK
6
CONTINUOUS
10
9.5337788976377951
20
-4.6167248818897635
11
9.5221686220472446
21
-4.5089711023622048
0
LINE
8
BLACK
6
CONTINUOUS
10
9.5221686220472446
20
-4.5089711023622048
11
9.5218956692913377
21
-4.3963697244094488
0
LINE
8
BLACK
6
CONTINUOUS
10
9.5218956692913377
20
-4.3963697244094488
11
9.5330927165354336
21
-4.2796385433070867
0
LINE
8
BLACK
6
CONTINUOUS
10
9.5330927165354336
20
-4.2796385433070867
11
9.5463772440944883
21
-4.2029090551181101
0
LINE
8
BLACK
6
CONTINUOUS
10
9.5463772440944883
20
-4.2029090551181101
11
9.5763136614173234
21
-4.0882115354330706
0
LINE
8
BLACK
6
CONTINUOUS
10
9.5763136614173234
20
-4.0882115354330706
11
9.6195847244094494
21
-3.9738209842519683
0
LINE
8
BLACK
6
CONTINUOUS
10
9.6195847244094494
20
-3.9738209842519683
11
9.6762565748031495
21
-3.8596050787401572
0
LINE
8
BLACK
6
CONTINUOUS
10
9.6762565748031495
20
-3.8596050787401572
11
9.7463953543307085
21
-3.7454314566929132
0
LINE
8
BLACK
6
CONTINUOUS
10
9.7463953543307085
20
-3.7454314566929132
11
9.8300672440944883
21
-3.6311678346456691
0
LINE
8
BLACK
6
CONTINUOUS
10
9.8300672440944883
20
-3.6311678346456691
11
9.8358766535433073
21
-3.6238587795275592
0
LINE
8
BLACK
6
CONTINUOUS
10
9.8358766535433073
20
-3.6238587795275592
11
9.8807904724409443
21
-3.5701791732283463
0
LINE
8
BLACK
6
CONTINUOUS
10
9.8807904724409443
20
-3.5701791732283463
11
9.9284948818897636
21
-3.517764251968504
0
LINE
8
BLACK
6
CONTINUOUS
10
9.9284948818897636
20
-3.517764251968504
11
9.9773035826771643
21
-3.4681736220472441
0
LINE
8
BLACK
6
CONTINUOUS
10
9.9773035826771643
20
-3.4681736220472441
11
10.0255303149606299
21
-3.4229668897637793
0
LINE
8
BLACK
6
CONTINUOUS
10
10.0255303149606299
20
-3.4229668897637793
11
10.0714888976377956
21
-3.3837037401574803
0
LINE
8
BLACK
6
CONTINUOUS
10
10.0714888976377956
20
-3.3837037401574803
11
10.1134930314960627
21
-3.3519438582677163
0
LINE
8
BLACK
6
CONTINUOUS
10
10.1134930314960627
20
-3.3519438582677163
11
10.1498564960629913
21
-3.329246811023622
0
LINE
8
BLACK
6
CONTINUOUS
10
10.1498564960629913
20
-3.329246811023622
11
10.159794015748032
21
-3.3242603937007873
0
LINE
8
BLACK
6
CONTINUOUS
10
10.159794015748032
20
-3.3242603937007873
11
10.19745157480315
21
-3.3119742125984253
0
LINE
8
BLACK
6
CONTINUOUS
10
10.19745157480315
20
-3.3119742125984253
11
10.238645
21
-3.3071091732283464
0
LINE
8
BLACK
6
CONTINUOUS
10
10.238645
20
-3.3071091732283464
11
10.2785537007874019
21
-3.3097722834645666
0
LINE
8
BLACK
6
CONTINUOUS
10
9.8307369685039365
20
-4.6634514960629918
11
9.847098937007873
21
-4.7098617716535429
0
LINE
8
BLACK
6
CONTINUOUS
10
9.847098937007873
20
-4.7098617716535429
11
9.8721175984251968
21
-4.7554479921259842
0
LINE
8
BLACK
6
CONTINUOUS
10
9.8721175984251968
20
-4.7554479921259842
11
9.904053346456692
21
-4.7967230314960627
0
LINE
8
BLACK
6
CONTINUOUS
10
9.904053346456692
20
-4.7967230314960627
11
9.9219910629921255
21
-4.8145814173228345
0
LINE
8
BLACK
6
CONTINUOUS
10
9.9219910629921255
20
-4.8145814173228345
11
9.9822468897637791
21
-4.8602137007874013
0
LINE
8
BLACK
6
CONTINUOUS
10
9.9822468897637791
20
-4.8602137007874013
11
10.0484463385826768
21
-4.8940340944881893
0
LINE
8
BLACK
6
CONTINUOUS
10
10.0484463385826768
20
-4.8940340944881893
11
10.1192111417322828
21
-4.9156980708661413
0
LINE
8
BLACK
6
CONTINUOUS
10
10.1192111417322828
20
-4.9156980708661413
11
10.1931630708661416
21
-4.9248611023622049
0
LINE
8
BLACK
6
CONTINUOUS
10
10.1931630708661416
20
-4.9248611023622049
11
10.2689238976377943
21
-4.9211785826771655
0
LINE
8
BLACK
6
CONTINUOUS
10
10.2689238976377943
20
-4.9211785826771655
11
10.3144865354330708
21
-4.9127049606299211
0
LINE
8
BLACK
6
CONTINUOUS
10
10.3144865354330708
20
-4.9127049606299211
11
10.3893246850393695
21
-4.8890411023622047
0
LINE
8
BLACK
6
CONTINUOUS
10
10.3893246850393695
20
-4.8890411023622047
11
10.4569747244094486
21
-4.8559222047244095
0
LINE
8
BLACK
6
CONTINUOUS
10
10.4569747244094486
20
-4.8559222047244095
11
10.5164645275590551
21
-4.8143161417322835
0
LINE
8
BLACK
6
CONTINUOUS
10
10.5164645275590551
20
-4.8143161417322835
11
10.5668219685039375
21
-4.7651909055118109
0
LINE
8
BLACK
6
CONTINUOUS
10
10.5668219685039375
20
-4.7651909055118109
11
10.6070749212598425
21
-4.7095144488188971
0
LINE
8
BLACK
6
CONTINUOUS
10
10.6070749212598425
20
-4.7095144488188971
11
10.63625122047244
21
-4.6482547637795273
0
LINE
8
BLACK
6
CONTINUOUS
10
10.63625122047244
20
-4.6482547637795273
11
10.6533788188976377
21
-4.5823797637795272
0
LINE
8
BLACK
6
CONTINUOUS
10
10.6533788188976377
20
-4.5823797637795272
11
10.6545999606299215
21
-4.5740494881889759
0
LINE
8
BLACK
6
CONTINUOUS
10
10.6545999606299215
20
-4.5740494881889759
11
10.6585532283464559
21
-4.5068235039370075
0
LINE
8
BLACK
6
CONTINUOUS
10
10.6585532283464559
20
-4.5068235039370075
11
10.6517096456692908
21
-4.4459120866141735
0
LINE
8
BLACK
6
CONTINUOUS
10
10.6517096456692908
20
-4.4459120866141735
11
10.6342779133858265
21
-4.3921525196850393
0
LINE
8
BLACK
6
CONTINUOUS
10
10.6342779133858265
20
-4.3921525196850393
11
10.6064666929133864
21
-4.3463820472440942
0
LINE
8
BLACK
6
CONTINUOUS
10
10.6064666929133864
20
-4.3463820472440942
11
10.5943775196850396
21
-4.3324660236220476
0
LINE
8
BLACK
6
CONTINUOUS
10
10.5943775196850396
20
-4.3324660236220476
11
10.5658823228346446
21
-4.3071892913385827
0
LINE
8
BLACK
6
CONTINUOUS
10
10.5658823228346446
20
-4.3071892913385827
11
10.5343333464566928
21
-4.2896430708661413
0
LINE
8
BLACK
6
CONTINUOUS
10
10.5343333464566928
20
-4.2896430708661413
11
10.4958353149606296
21
-4.2780137795275586
0
LINE
8
BLACK
6
CONTINUOUS
10
10.4958353149606296
20
-4.2780137795275586
11
10.4665369291338575
21
-4.2729475196850393
0
LINE
8
BLACK
6
CONTINUOUS
10
10.4665369291338575
20
-4.2729475196850393
11
10.4058234645669287
21
-4.2686547637795274
0
LINE
8
BLACK
6
CONTINUOUS
10
10.4058234645669287
20
-4.2686547637795274
11
10.347554015748031
21
-4.2734722047244089
0
LINE
8
BLACK
6
CONTINUOUS
10
10.347554015748031
20
-4.2734722047244089
11
10.2906095275590541
21
-4.2879444094488184
0
LINE
8
BLACK
6
CONTINUOUS
10
10.2906095275590541
20
-4.2879444094488184
11
10.2338711023622047
21
-4.312615984251968
0
LINE
8
BLACK
6
CONTINUOUS
10
10.2338711023622047
20
-4.312615984251968
11
10.1762196456692919
21
-4.348031535433071
0
LINE
8
BLACK
6
CONTINUOUS
10
10.1762196456692919
20
-4.348031535433071
11
10.1165361811023615
21
-4.3947356299212599
0
LINE
8
BLACK
6
CONTINUOUS
10
10.1165361811023615
20
-4.3947356299212599
11
10.0537016929133856
21
-4.4532728740157479
0
LINE
8
BLACK
6
CONTINUOUS
10
10.0537016929133856
20
-4.4532728740157479
11
10.0159622047244099
21
-4.4922331496062995
0
LINE
8
BLACK
6
CONTINUOUS
10
10.0159622047244099
20
-4.4922331496062995
11
9.9743243700787403
21
-4.5337776377952759
0
LINE
8
BLACK
6
CONTINUOUS
10
9.9743243700787403
20
-4.5337776377952759
11
9.9375012598425201
21
-4.5642112204724405
0
LINE
8
BLACK
6
CONTINUOUS
10
9.9375012598425201
20
-4.5642112204724405
11
9.9040556692913384
21
-4.5845070078740155
0
LINE
8
BLACK
6
CONTINUOUS
10
9.9040556692913384
20
-4.5845070078740155
11
9.8725504724409454
21
-4.5956380708661415
0
LINE
8
BLACK
6
CONTINUOUS
10
9.8725504724409454
20
-4.5956380708661415
11
9.8601249606299213
21
-4.597747677165354
0
LINE
8
BLACK
6
CONTINUOUS
10
9.8601249606299213
20
-4.597747677165354
11
9.8393924803149613
21
-4.6008073622047245
0
LINE
8
BLACK
6
CONTINUOUS
10
9.8393924803149613
20
-4.6008073622047245
11
9.8288545275590558
21
-4.6049996062992129
0
LINE
8
BLACK
6
CONTINUOUS
10
9.8288545275590558
20
-4.6049996062992129
11
9.8251343700787395
21
-4.6124215354330707
0
LINE
8
BLACK
6
CONTINUOUS
10
9.8251343700787395
20
-4.6124215354330707
11
9.8247713779527555
21
-4.6197042913385822
0
LINE
8
BLACK
6
CONTINUOUS
10
9.8247713779527555
20
-4.6197042913385822
11
9.8307369685039365
21
-4.6634514960629918
0
LINE
8
BLACK
6
CONTINUOUS
10
9.2173519685039373
20
-3.7113549999999997
11
9.2308328740157481
21
-3.7145391338582678
0
LINE
8
BLACK
6
CONTINUOUS
10
9.2308328740157481
20
-3.7145391338582678
11
9.2739473228346458
21
-3.7310098818897637
0
LINE
8
BLACK
6
CONTINUOUS
10
9.2739473228346458
20
-3.7310098818897637
11
9.306502677165355
21
-3.7552164566929132
0
LINE
8
BLACK
6
CONTINUOUS
10
9.306502677165355
20
-3.7552164566929132
11
9.3297352755905507
21
-3.788114094488189
0
LINE
8
BLACK
6
CONTINUOUS
10
9.3297352755905507
20
-3.788114094488189
11
9.3319427165354334
21
-3.7926639763779528
0
LINE
8
BLACK
6
CONTINUOUS
10
9.3319427165354334
20
-3.7926639763779528
11
9.3454967322834648
21
-3.8341101574803149
0
LINE
8
BLACK
6
CONTINUOUS
10
9.3454967322834648
20
-3.8341101574803149
11
9.3486292125984249
21
-3.875535118110236
0
LINE
8
BLACK
6
CONTINUOUS
10
9.3486292125984249
20
-3.875535118110236
11
9.3415761811023614
21
-3.9139840551181102
0
LINE
8
BLACK
6
CONTINUOUS
10
9.3415761811023614
20
-3.9139840551181102
11
9.3245737007874006
21
-3.9465020472440946
0
LINE
8
BLACK
6
CONTINUOUS
10
9.3245737007874006
20
-3.9465020472440946
11
9.3191354330708656
21
-3.9529903543307086
0
LINE
8
BLACK
6
CONTINUOUS
10
9.3191354330708656
20
-3.9529903543307086
11
9.2901006692913377
21
-3.9756000393700788
0
LINE
8
BLACK
6
CONTINUOUS
10
9.2901006692913377
20
-3.9756000393700788
11
9.2527322047244098
21
-3.991522559055118
0
LINE
8
BLACK
6
CONTINUOUS
10
9.2527322047244098
20
-3.991522559055118
11
9.2109087401574801
21
-4.0000681102362208
0
LINE
8
BLACK
6
CONTINUOUS
10
9.2109087401574801
20
-4.0000681102362208
11
9.1685088582677157
21
-4.0005466929133862
0
LINE
8
BLACK
6
CONTINUOUS
10
9.1685088582677157
20
-4.0005466929133862
11
9.1294112204724414
21
-3.9922685039370078
0
LINE
8
BLACK
6
CONTINUOUS
10
9.1294112204724414
20
-3.9922685039370078
11
9.1198945275590546
21
-3.9884290944881888
0
LINE
8
BLACK
6
CONTINUOUS
10
9.1198945275590546
20
-3.9884290944881888
11
9.0985522047244096
21
-3.9766422440944882
0
LINE
8
BLACK
6
CONTINUOUS
10
9.0985522047244096
20
-3.9766422440944882
11
9.080121771653543
21
-3.9630648818897636
0
LINE
8
BLACK
6
CONTINUOUS
10
9.080121771653543
20
-3.9630648818897636
11
9.0765591732283468
21
-3.9596669291338582
0
LINE
8
BLACK
6
CONTINUOUS
10
9.0765591732283468
20
-3.9596669291338582
11
9.0539776771653546
21
-3.9278631496062992
0
LINE
8
BLACK
6
CONTINUOUS
10
9.0539776771653546
20
-3.9278631496062992
11
9.040480078740158
21
-3.8910805905511809
0
LINE
8
BLACK
6
CONTINUOUS
10
9.040480078740158
20
-3.8910805905511809
11
9.0359535826771644
21
-3.8522353543307086
0
LINE
8
BLACK
6
CONTINUOUS
10
9.0359535826771644
20
-3.8522353543307086
11
9.0402855511811016
21
-3.8142433858267717
0
LINE
8
BLACK
6
CONTINUOUS
10
9.0402855511811016
20
-3.8142433858267717
11
9.0533632283464573
21
-3.7800207480314958
0
LINE
8
BLACK
6
CONTINUOUS
10
9.0533632283464573
20
-3.7800207480314958
11
9.0750738582677162
21
-3.7524834645669292
0
LINE
8
BLACK
6
CONTINUOUS
10
9.0750738582677162
20
-3.7524834645669292
11
9.0848639370078743
21
-3.744847440944882
0
LINE
8
BLACK
6
CONTINUOUS
10
9.0848639370078743
20
-3.744847440944882
11
9.1033276377952745
21
-3.7351737401574803
0
LINE
8
BLACK
6
CONTINUOUS
10
9.1033276377952745
20
-3.7351737401574803
11
9.1290716141732275
21
-3.7250829527559053
0
LINE
8
BLACK
6
CONTINUOUS
10
9.1290716141732275
20
-3.7250829527559053
11
9.1526717322834639
21
-3.7178406299212599
0
LINE
8
BLACK
6
CONTINUOUS
10
9.1526717322834639
20
-3.7178406299212599
11
9.1795129133858264
21
-3.7115482677165352
0
LINE
8
BLACK
6
CONTINUOUS
10
9.1795129133858264
20
-3.7115482677165352
11
9.1991790157480313
21
-3.7094664173228344
0
LINE
8
BLACK
6
CONTINUOUS
10
9.1991790157480313
20
-3.7094664173228344
11
9.2173519685039373
21
-3.7113549999999997
  0
ENDSEC
  0
EOF
